{"glyphs":{"0":{"ha":993,"x_min":117,"x_max":914,"o":"m 515 976 q 811 849 708 976 q 914 486 914 722 q 811 122 914 250 q 515 -6 708 -6 q 220 122 324 -6 q 117 486 117 250 q 220 849 117 722 q 515 976 324 976 m 515 900 q 292 795 368 900 q 215 486 215 690 q 292 177 215 282 q 515 72 368 72 q 740 177 663 72 q 817 486 817 282 q 740 795 817 690 q 515 900 663 900 z "},"1":{"ha":503,"x_min":8,"x_max":339,"o":"m 8 972 l 339 972 l 339 0 l 243 0 l 243 886 l 8 886 l 8 972 z "},"2":{"ha":792,"x_min":47,"x_max":743,"o":"m 743 86 l 743 0 l 54 0 l 54 79 l 438 479 q 543 615 504 549 q 582 729 582 681 q 525 849 582 806 q 367 892 468 892 q 224 860 297 892 q 90 774 150 829 l 47 844 q 205 942 118 907 q 378 976 292 976 q 599 913 517 976 q 682 742 682 849 q 634 595 682 676 q 503 426 586 514 l 175 86 l 743 86 z "},"3":{"ha":806,"x_min":28,"x_max":731,"o":"m 394 556 q 640 482 549 550 q 731 297 731 414 q 685 140 731 208 q 556 33 640 71 q 358 -6 471 -6 q 182 20 269 -6 q 28 89 94 46 l 71 164 q 203 100 129 124 q 353 76 278 76 q 561 135 485 76 q 638 292 638 194 q 562 440 638 389 q 350 490 486 490 l 225 490 l 225 553 l 556 886 l 74 886 l 74 972 l 681 972 l 681 908 l 333 558 l 394 556 z "},"4":{"ha":811,"x_min":32,"x_max":769,"o":"m 769 350 l 769 264 l 614 264 l 614 0 l 524 0 l 524 264 l 32 264 l 32 342 l 400 972 l 494 972 l 135 350 l 524 350 l 524 622 l 614 622 l 614 350 l 769 350 z "},"5":{"ha":850,"x_min":96,"x_max":794,"o":"m 444 599 q 629 563 550 599 q 751 462 708 526 q 794 315 794 397 q 751 147 794 219 q 626 34 707 74 q 438 -6 544 -6 q 262 23 354 -6 q 96 99 169 51 l 136 174 q 279 104 201 129 q 429 79 357 79 q 622 142 550 79 q 693 308 693 204 q 622 458 693 403 q 425 513 551 513 q 298 503 375 513 q 167 481 221 494 l 167 972 l 756 972 l 756 886 l 257 886 l 257 582 q 351 594 299 589 q 444 599 404 599 z "},"6":{"ha":889,"x_min":97,"x_max":808,"o":"m 733 836 q 622 880 683 864 q 504 896 561 896 q 272 786 354 896 q 190 483 190 676 q 193 419 190 464 q 303 567 225 515 q 496 619 382 619 q 724 538 640 619 q 808 314 808 456 q 719 81 808 167 q 478 -6 629 -6 q 198 117 299 -6 q 97 464 97 240 q 146 734 97 618 q 285 913 194 850 q 497 976 375 976 q 638 958 564 976 q 772 908 711 940 l 733 836 m 481 542 q 342 509 401 542 q 250 423 282 476 q 218 307 218 369 q 246 201 218 254 q 331 113 274 149 q 471 78 388 78 q 650 142 582 78 q 718 317 718 207 q 653 481 718 421 q 481 542 589 542 z "},"7":{"ha":782,"x_min":31,"x_max":743,"o":"m 31 972 l 743 972 l 743 893 l 301 0 l 199 0 l 639 886 l 119 886 l 118 740 l 31 740 l 31 972 z "},"8":{"ha":890,"x_min":92,"x_max":801,"o":"m 446 976 q 672 913 590 976 q 754 735 754 849 q 713 604 754 658 q 593 521 671 550 q 747 428 692 492 q 801 272 801 364 q 706 69 801 143 q 447 -6 611 -6 q 187 68 282 -6 q 92 269 92 142 q 148 427 92 363 q 304 521 204 492 q 181 606 225 550 q 138 738 138 661 q 221 913 138 849 q 446 976 304 976 m 447 904 q 281 858 340 904 q 221 729 221 811 q 281 600 221 647 q 447 553 342 553 q 612 600 553 553 q 671 729 671 647 q 612 858 671 811 q 447 904 553 904 m 446 476 q 252 424 322 476 q 182 281 182 372 q 252 127 182 182 q 447 72 322 72 q 641 127 571 72 q 711 279 711 182 q 640 424 711 371 q 446 476 569 476 z "},"9":{"ha":885,"x_min":97,"x_max":803,"o":"m 172 136 q 281 92 221 108 q 399 76 342 76 q 628 187 547 76 q 710 490 710 297 q 707 554 710 510 q 597 406 675 458 q 407 353 519 353 q 181 435 264 353 q 97 658 97 517 q 186 891 97 806 q 425 976 275 976 q 703 854 603 976 q 803 510 803 732 q 754 239 803 356 q 616 58 706 122 q 406 -6 526 -6 q 267 13 340 -6 q 133 63 194 32 l 172 136 m 432 893 q 255 830 322 893 q 188 657 188 767 q 251 492 188 553 q 422 431 314 431 q 560 463 501 431 q 651 549 619 496 q 682 665 682 603 q 654 771 682 718 q 570 858 626 824 q 432 893 514 893 z "},"\u0000":{"ha":0,"x_min":0,"x_max":0,"o":""},"\r":{"ha":382,"x_min":0,"x_max":0,"o":""}," ":{"ha":382,"x_min":0,"x_max":0,"o":""},"A":{"ha":1067,"x_min":131,"x_max":936,"o":"m 131 576 q 238 872 131 765 q 533 979 344 979 q 829 872 722 979 q 936 576 936 765 l 936 0 l 840 0 l 840 288 l 226 288 l 226 0 l 131 0 l 131 576 m 840 576 q 759 809 840 725 q 533 893 678 893 q 308 809 389 893 q 226 576 226 725 l 226 374 l 840 374 l 840 576 z "},"Á":{"ha":1067,"x_min":131,"x_max":936,"o":"m 131 576 q 238 872 131 765 q 533 979 344 979 q 829 872 722 979 q 936 576 936 765 l 936 0 l 840 0 l 840 288 l 226 288 l 226 0 l 131 0 l 131 576 m 840 576 q 759 809 840 725 q 533 893 678 893 q 308 809 389 893 q 226 576 226 725 l 226 374 l 840 374 l 840 576 m 636 1246 l 732 1204 l 557 1065 l 474 1075 l 636 1246 z "},"Ă":{"ha":1067,"x_min":131,"x_max":936,"o":"m 131 576 q 238 872 131 765 q 533 979 344 979 q 829 872 722 979 q 936 576 936 765 l 936 0 l 840 0 l 840 288 l 226 288 l 226 0 l 131 0 l 131 576 m 840 576 q 759 809 840 725 q 533 893 678 893 q 308 809 389 893 q 226 576 226 725 l 226 374 l 840 374 l 840 576 m 431 1236 q 462 1162 433 1192 q 533 1132 490 1132 q 605 1162 576 1132 q 636 1236 633 1192 l 704 1236 q 654 1113 703 1161 q 533 1065 606 1065 q 414 1113 463 1065 q 363 1236 365 1161 l 431 1236 z "},"Ắ":{"ha":1067,"x_min":131,"x_max":936,"o":"m 131 576 q 238 872 131 765 q 533 979 344 979 q 829 872 722 979 q 936 576 936 765 l 936 0 l 840 0 l 840 288 l 226 288 l 226 0 l 131 0 l 131 576 m 840 576 q 759 809 840 725 q 533 893 678 893 q 308 809 389 893 q 226 576 226 725 l 226 374 l 840 374 l 840 576 z "},"Ặ":{"ha":1067,"x_min":131,"x_max":936,"o":"m 131 576 q 238 872 131 765 q 533 979 344 979 q 829 872 722 979 q 936 576 936 765 l 936 0 l 840 0 l 840 288 l 226 288 l 226 0 l 131 0 l 131 576 m 840 576 q 759 809 840 725 q 533 893 678 893 q 308 809 389 893 q 226 576 226 725 l 226 374 l 840 374 l 840 576 m 535 -106 q 581 -124 563 -106 q 599 -171 599 -143 q 580 -218 599 -199 q 535 -237 561 -237 q 488 -218 507 -237 q 469 -171 469 -199 q 488 -124 469 -143 q 535 -106 507 -106 m 431 1236 q 462 1162 433 1192 q 533 1132 490 1132 q 605 1162 576 1132 q 636 1236 633 1192 l 704 1236 q 654 1113 703 1161 q 533 1065 606 1065 q 414 1113 463 1065 q 363 1236 365 1161 l 431 1236 z "},"Ằ":{"ha":1067,"x_min":131,"x_max":936,"o":"m 131 576 q 238 872 131 765 q 533 979 344 979 q 829 872 722 979 q 936 576 936 765 l 936 0 l 840 0 l 840 288 l 226 288 l 226 0 l 131 0 l 131 576 m 840 576 q 759 809 840 725 q 533 893 678 893 q 308 809 389 893 q 226 576 226 725 l 226 374 l 840 374 l 840 576 z "},"Ẳ":{"ha":1067,"x_min":131,"x_max":936,"o":"m 131 576 q 238 872 131 765 q 533 979 344 979 q 829 872 722 979 q 936 576 936 765 l 936 0 l 840 0 l 840 288 l 226 288 l 226 0 l 131 0 l 131 576 m 840 576 q 759 809 840 725 q 533 893 678 893 q 308 809 389 893 q 226 576 226 725 l 226 374 l 840 374 l 840 576 z "},"Ẵ":{"ha":1067,"x_min":131,"x_max":936,"o":"m 131 576 q 238 872 131 765 q 533 979 344 979 q 829 872 722 979 q 936 576 936 765 l 936 0 l 840 0 l 840 288 l 226 288 l 226 0 l 131 0 l 131 576 m 840 576 q 759 809 840 725 q 533 893 678 893 q 308 809 389 893 q 226 576 226 725 l 226 374 l 840 374 l 840 576 z "},"Â":{"ha":1067,"x_min":131,"x_max":936,"o":"m 131 576 q 238 872 131 765 q 533 979 344 979 q 829 872 722 979 q 936 576 936 765 l 936 0 l 840 0 l 840 288 l 226 288 l 226 0 l 131 0 l 131 576 m 840 576 q 759 809 840 725 q 533 893 678 893 q 308 809 389 893 q 226 576 226 725 l 226 374 l 840 374 l 840 576 m 728 1068 l 632 1068 l 535 1174 l 436 1068 l 340 1068 l 483 1242 l 586 1242 l 728 1068 z "},"Ấ":{"ha":1067,"x_min":131,"x_max":936,"o":"m 131 576 q 238 872 131 765 q 533 979 344 979 q 829 872 722 979 q 936 576 936 765 l 936 0 l 840 0 l 840 288 l 226 288 l 226 0 l 131 0 l 131 576 m 840 576 q 759 809 840 725 q 533 893 678 893 q 308 809 389 893 q 226 576 226 725 l 226 374 l 840 374 l 840 576 z "},"Ậ":{"ha":1067,"x_min":131,"x_max":936,"o":"m 131 576 q 238 872 131 765 q 533 979 344 979 q 829 872 722 979 q 936 576 936 765 l 936 0 l 840 0 l 840 288 l 226 288 l 226 0 l 131 0 l 131 576 m 840 576 q 759 809 840 725 q 533 893 678 893 q 308 809 389 893 q 226 576 226 725 l 226 374 l 840 374 l 840 576 m 535 -106 q 581 -124 563 -106 q 599 -171 599 -143 q 580 -218 599 -199 q 535 -237 561 -237 q 488 -218 507 -237 q 469 -171 469 -199 q 488 -124 469 -143 q 535 -106 507 -106 m 728 1068 l 632 1068 l 535 1174 l 436 1068 l 340 1068 l 483 1242 l 586 1242 l 728 1068 z "},"Ầ":{"ha":1067,"x_min":131,"x_max":936,"o":"m 131 576 q 238 872 131 765 q 533 979 344 979 q 829 872 722 979 q 936 576 936 765 l 936 0 l 840 0 l 840 288 l 226 288 l 226 0 l 131 0 l 131 576 m 840 576 q 759 809 840 725 q 533 893 678 893 q 308 809 389 893 q 226 576 226 725 l 226 374 l 840 374 l 840 576 z "},"Ẩ":{"ha":1067,"x_min":131,"x_max":936,"o":"m 131 576 q 238 872 131 765 q 533 979 344 979 q 829 872 722 979 q 936 576 936 765 l 936 0 l 840 0 l 840 288 l 226 288 l 226 0 l 131 0 l 131 576 m 840 576 q 759 809 840 725 q 533 893 678 893 q 308 809 389 893 q 226 576 226 725 l 226 374 l 840 374 l 840 576 z "},"Ẫ":{"ha":1067,"x_min":131,"x_max":936,"o":"m 131 576 q 238 872 131 765 q 533 979 344 979 q 829 872 722 979 q 936 576 936 765 l 936 0 l 840 0 l 840 288 l 226 288 l 226 0 l 131 0 l 131 576 m 840 576 q 759 809 840 725 q 533 893 678 893 q 308 809 389 893 q 226 576 226 725 l 226 374 l 840 374 l 840 576 z "},"Ȁ":{"ha":1067,"x_min":131,"x_max":936,"o":"m 131 576 q 238 872 131 765 q 533 979 344 979 q 829 872 722 979 q 936 576 936 765 l 936 0 l 840 0 l 840 288 l 226 288 l 226 0 l 131 0 l 131 576 m 840 576 q 759 809 840 725 q 533 893 678 893 q 308 809 389 893 q 226 576 226 725 l 226 374 l 840 374 l 840 576 m 367 1251 l 490 1075 l 415 1065 l 286 1213 l 367 1251 m 564 1251 l 688 1075 l 613 1065 l 483 1213 l 564 1251 z "},"Ä":{"ha":1067,"x_min":131,"x_max":936,"o":"m 131 576 q 238 872 131 765 q 533 979 344 979 q 829 872 722 979 q 936 576 936 765 l 936 0 l 840 0 l 840 288 l 226 288 l 226 0 l 131 0 l 131 576 m 840 576 q 759 809 840 725 q 533 893 678 893 q 308 809 389 893 q 226 576 226 725 l 226 374 l 840 374 l 840 576 m 421 1188 q 463 1170 446 1188 q 481 1126 481 1153 q 463 1083 481 1101 q 421 1065 446 1065 q 377 1083 394 1065 q 360 1126 360 1101 q 377 1170 360 1153 q 421 1188 394 1188 m 650 1188 q 692 1170 675 1188 q 710 1126 710 1153 q 692 1083 710 1101 q 650 1065 675 1065 q 606 1083 624 1065 q 589 1126 589 1101 q 606 1170 589 1153 q 650 1188 624 1188 z "},"Ạ":{"ha":1067,"x_min":131,"x_max":936,"o":"m 131 576 q 238 872 131 765 q 533 979 344 979 q 829 872 722 979 q 936 576 936 765 l 936 0 l 840 0 l 840 288 l 226 288 l 226 0 l 131 0 l 131 576 m 840 576 q 759 809 840 725 q 533 893 678 893 q 308 809 389 893 q 226 576 226 725 l 226 374 l 840 374 l 840 576 m 535 -106 q 581 -124 563 -106 q 599 -171 599 -143 q 580 -218 599 -199 q 535 -237 561 -237 q 488 -218 507 -237 q 469 -171 469 -199 q 488 -124 469 -143 q 535 -106 507 -106 z "},"À":{"ha":1067,"x_min":131,"x_max":936,"o":"m 131 576 q 238 872 131 765 q 533 979 344 979 q 829 872 722 979 q 936 576 936 765 l 936 0 l 840 0 l 840 288 l 226 288 l 226 0 l 131 0 l 131 576 m 840 576 q 759 809 840 725 q 533 893 678 893 q 308 809 389 893 q 226 576 226 725 l 226 374 l 840 374 l 840 576 m 438 1246 l 600 1075 l 517 1065 l 342 1204 l 438 1246 z "},"Ả":{"ha":1067,"x_min":131,"x_max":936,"o":"m 131 576 q 238 872 131 765 q 533 979 344 979 q 829 872 722 979 q 936 576 936 765 l 936 0 l 840 0 l 840 288 l 226 288 l 226 0 l 131 0 l 131 576 m 840 576 q 759 809 840 725 q 533 893 678 893 q 308 809 389 893 q 226 576 226 725 l 226 374 l 840 374 l 840 576 m 524 1301 q 611 1273 578 1301 q 644 1196 644 1244 q 619 1117 644 1158 q 554 1043 594 1076 l 497 1068 q 546 1124 528 1093 q 564 1182 564 1156 q 548 1219 564 1204 q 507 1235 532 1235 q 446 1214 476 1235 l 413 1267 q 524 1301 464 1301 z "},"Ȃ":{"ha":1067,"x_min":131,"x_max":936,"o":"m 131 576 q 238 872 131 765 q 533 979 344 979 q 829 872 722 979 q 936 576 936 765 l 936 0 l 840 0 l 840 288 l 226 288 l 226 0 l 131 0 l 131 576 m 840 576 q 759 809 840 725 q 533 893 678 893 q 308 809 389 893 q 226 576 226 725 l 226 374 l 840 374 l 840 576 m 363 1069 q 414 1192 365 1144 q 533 1240 463 1240 q 654 1192 606 1240 q 704 1069 703 1144 l 636 1069 q 605 1145 633 1115 q 533 1175 576 1175 q 462 1145 490 1175 q 431 1069 433 1115 l 363 1069 z "},"Ā":{"ha":1067,"x_min":131,"x_max":936,"o":"m 131 576 q 238 872 131 765 q 533 979 344 979 q 829 872 722 979 q 936 576 936 765 l 936 0 l 840 0 l 840 288 l 226 288 l 226 0 l 131 0 l 131 576 m 840 576 q 759 809 840 725 q 533 893 678 893 q 308 809 389 893 q 226 576 226 725 l 226 374 l 840 374 l 840 576 m 317 1140 l 750 1140 l 750 1076 l 317 1076 l 317 1140 z "},"Ą":{"ha":1067,"x_min":131,"x_max":936,"o":"m 936 0 q 826 -92 860 -54 q 792 -169 792 -131 q 806 -212 792 -199 q 846 -226 821 -226 q 910 -207 878 -226 l 935 -269 q 828 -299 885 -299 q 738 -269 771 -299 q 704 -185 704 -239 q 737 -85 704 -133 q 840 11 769 -37 l 840 288 l 226 288 l 226 0 l 131 0 l 131 576 q 238 872 131 765 q 533 979 344 979 q 829 872 722 979 q 936 576 936 765 l 936 0 m 840 374 l 840 576 q 759 809 840 725 q 533 893 678 893 q 308 809 389 893 q 226 576 226 725 l 226 374 l 840 374 z "},"Å":{"ha":1067,"x_min":131,"x_max":936,"o":"m 131 576 q 238 872 131 765 q 533 979 344 979 q 829 872 722 979 q 936 576 936 765 l 936 0 l 840 0 l 840 288 l 226 288 l 226 0 l 131 0 l 131 576 m 840 576 q 759 809 840 725 q 533 893 678 893 q 308 809 389 893 q 226 576 226 725 l 226 374 l 840 374 l 840 576 m 533 1322 q 631 1281 590 1322 q 672 1185 672 1240 q 631 1089 672 1129 q 533 1049 590 1049 q 435 1089 476 1049 q 394 1185 394 1129 q 435 1281 394 1240 q 533 1322 476 1322 m 533 1268 q 472 1244 497 1268 q 447 1185 447 1219 q 473 1127 447 1151 q 533 1103 499 1103 q 594 1127 568 1103 q 619 1185 619 1151 q 594 1244 619 1219 q 533 1268 568 1268 z "},"Ǻ":{"ha":1067,"x_min":131,"x_max":936,"o":"m 131 576 q 238 872 131 765 q 533 979 344 979 q 829 872 722 979 q 936 576 936 765 l 936 0 l 840 0 l 840 288 l 226 288 l 226 0 l 131 0 l 131 576 m 840 576 q 759 809 840 725 q 533 893 678 893 q 308 809 389 893 q 226 576 226 725 l 226 374 l 840 374 l 840 576 m 533 1322 q 631 1281 590 1322 q 672 1185 672 1240 q 631 1089 672 1129 q 533 1049 590 1049 q 435 1089 476 1049 q 394 1185 394 1129 q 435 1281 394 1240 q 533 1322 476 1322 m 533 1268 q 472 1244 497 1268 q 447 1185 447 1219 q 473 1127 447 1151 q 533 1103 499 1103 q 594 1127 568 1103 q 619 1185 619 1151 q 594 1244 619 1219 q 533 1268 568 1268 m 638 1533 l 717 1481 l 521 1372 l 444 1396 l 638 1533 z "},"Ã":{"ha":1067,"x_min":131,"x_max":936,"o":"m 131 576 q 238 872 131 765 q 533 979 344 979 q 829 872 722 979 q 936 576 936 765 l 936 0 l 840 0 l 840 288 l 226 288 l 226 0 l 131 0 l 131 576 m 840 576 q 759 809 840 725 q 533 893 678 893 q 308 809 389 893 q 226 576 226 725 l 226 374 l 840 374 l 840 576 m 738 1215 q 710 1108 738 1150 q 629 1067 683 1067 q 577 1078 600 1067 q 524 1111 554 1090 q 481 1138 496 1131 q 450 1146 467 1146 q 410 1126 424 1146 q 397 1072 397 1107 l 329 1072 q 356 1179 329 1138 q 438 1221 383 1221 q 490 1209 467 1221 q 543 1175 514 1197 q 585 1148 571 1156 q 617 1140 600 1140 q 669 1215 669 1140 l 738 1215 z "},"Æ":{"ha":1415,"x_min":7,"x_max":1335,"o":"m 761 86 l 1335 86 l 1335 0 l 667 0 l 667 276 l 271 276 l 110 0 l 7 0 l 582 971 l 667 971 l 667 972 l 1317 972 l 1317 885 l 761 885 l 761 538 l 1257 538 l 1257 451 l 761 451 l 761 86 m 315 353 l 667 353 l 667 892 l 629 892 l 315 353 z "},"Ǽ":{"ha":1415,"x_min":7,"x_max":1335,"o":"m 761 86 l 1335 86 l 1335 0 l 667 0 l 667 276 l 271 276 l 110 0 l 7 0 l 582 971 l 667 971 l 667 972 l 1317 972 l 1317 885 l 761 885 l 761 538 l 1257 538 l 1257 451 l 761 451 l 761 86 m 315 353 l 667 353 l 667 892 l 629 892 l 315 353 m 953 1244 l 1049 1203 l 874 1064 l 790 1074 l 953 1244 z "},"B":{"ha":999,"x_min":153,"x_max":915,"o":"m 560 972 q 788 908 706 972 q 871 729 871 843 q 823 585 871 643 q 689 508 775 526 q 856 429 796 494 q 915 264 915 364 q 822 69 915 139 q 564 0 729 0 l 153 0 l 153 972 l 560 972 m 556 543 q 715 588 658 543 q 772 717 772 633 q 715 842 772 797 q 556 885 658 886 l 249 885 l 249 543 l 556 543 m 556 86 q 749 135 681 86 q 818 274 818 185 q 749 410 818 361 q 556 458 679 458 l 249 458 l 249 86 l 556 86 z "},"C":{"ha":974,"x_min":58,"x_max":917,"o":"m 858 774 q 724 863 800 831 q 565 894 647 894 q 359 840 453 894 q 210 692 265 786 q 156 488 156 599 q 210 283 156 376 q 359 135 265 190 q 565 81 453 81 q 722 112 646 81 q 858 199 799 143 l 917 136 q 751 31 844 69 q 561 -8 658 -8 q 308 58 424 -8 q 126 239 193 125 q 58 488 58 353 q 126 735 58 622 q 310 913 194 847 q 564 979 426 979 q 754 942 663 979 q 915 840 846 906 l 858 774 z "},"Ć":{"ha":974,"x_min":58,"x_max":917,"o":"m 858 774 q 724 863 800 831 q 565 894 647 894 q 359 840 453 894 q 210 692 265 786 q 156 488 156 599 q 210 283 156 376 q 359 135 265 190 q 565 81 453 81 q 722 112 646 81 q 858 199 799 143 l 917 136 q 751 31 844 69 q 561 -8 658 -8 q 308 58 424 -8 q 126 239 193 125 q 58 488 58 353 q 126 735 58 622 q 310 913 194 847 q 564 979 426 979 q 754 942 663 979 q 915 840 846 906 l 858 774 m 679 1246 l 775 1204 l 600 1065 l 517 1075 l 679 1246 z "},"Č":{"ha":974,"x_min":58,"x_max":917,"o":"m 858 774 q 724 863 800 831 q 565 894 647 894 q 359 840 453 894 q 210 692 265 786 q 156 488 156 599 q 210 283 156 376 q 359 135 265 190 q 565 81 453 81 q 722 112 646 81 q 858 199 799 143 l 917 136 q 751 31 844 69 q 561 -8 658 -8 q 308 58 424 -8 q 126 239 193 125 q 58 488 58 353 q 126 735 58 622 q 310 913 194 847 q 564 979 426 979 q 754 942 663 979 q 915 840 846 906 l 858 774 m 654 1242 l 750 1242 l 607 1068 l 504 1068 l 363 1242 l 458 1242 l 556 1136 l 654 1242 z "},"Ç":{"ha":974,"x_min":58,"x_max":917,"o":"m 565 -74 q 649 -110 621 -79 q 678 -181 678 -140 q 638 -267 678 -233 q 535 -300 599 -300 q 474 -292 506 -300 q 417 -269 442 -283 l 439 -210 q 481 -226 457 -219 q 525 -232 504 -232 q 581 -214 561 -232 q 601 -172 601 -196 q 581 -134 601 -150 q 526 -118 561 -118 l 485 -118 l 518 -7 q 285 72 390 3 q 119 250 181 140 q 58 488 58 360 q 126 735 58 622 q 310 913 194 847 q 564 979 426 979 q 754 942 663 979 q 915 840 846 906 l 858 774 q 724 863 800 831 q 565 894 647 894 q 359 840 453 894 q 210 692 265 786 q 156 488 156 599 q 210 283 156 376 q 359 135 265 190 q 565 81 453 81 q 722 112 646 81 q 858 199 799 143 l 917 136 q 763 35 849 74 q 586 -7 676 -3 l 565 -74 z "},"Ḉ":{"ha":974,"x_min":58,"x_max":917,"o":"m 724 1204 l 549 1065 l 465 1075 l 628 1246 l 724 1204 m 565 -74 q 649 -110 621 -79 q 678 -181 678 -140 q 638 -267 678 -233 q 535 -300 599 -300 q 474 -292 506 -300 q 417 -269 442 -283 l 439 -210 q 481 -226 457 -219 q 525 -232 504 -232 q 581 -214 561 -232 q 601 -172 601 -196 q 581 -134 601 -150 q 526 -118 561 -118 l 485 -118 l 518 -7 q 285 72 390 3 q 119 250 181 140 q 58 488 58 360 q 126 735 58 622 q 310 913 194 847 q 564 979 426 979 q 754 942 663 979 q 915 840 846 906 l 858 774 q 724 863 800 831 q 565 894 647 894 q 359 840 453 894 q 210 692 265 786 q 156 488 156 599 q 210 283 156 376 q 359 135 265 190 q 565 81 453 81 q 722 112 646 81 q 858 199 799 143 l 917 136 q 763 35 849 74 q 586 -7 676 -3 l 565 -74 z "},"Ĉ":{"ha":974,"x_min":58,"x_max":917,"o":"m 858 774 q 724 863 800 831 q 565 894 647 894 q 359 840 453 894 q 210 692 265 786 q 156 488 156 599 q 210 283 156 376 q 359 135 265 190 q 565 81 453 81 q 722 112 646 81 q 858 199 799 143 l 917 136 q 751 31 844 69 q 561 -8 658 -8 q 308 58 424 -8 q 126 239 193 125 q 58 488 58 353 q 126 735 58 622 q 310 913 194 847 q 564 979 426 979 q 754 942 663 979 q 915 840 846 906 l 858 774 m 771 1068 l 675 1068 l 578 1174 l 479 1068 l 383 1068 l 526 1242 l 629 1242 l 771 1068 z "},"Ċ":{"ha":974,"x_min":58,"x_max":917,"o":"m 858 774 q 724 863 800 831 q 565 894 647 894 q 359 840 453 894 q 210 692 265 786 q 156 488 156 599 q 210 283 156 376 q 359 135 265 190 q 565 81 453 81 q 722 112 646 81 q 858 199 799 143 l 917 136 q 751 31 844 69 q 561 -8 658 -8 q 308 58 424 -8 q 126 239 193 125 q 58 488 58 353 q 126 735 58 622 q 310 913 194 847 q 564 979 426 979 q 754 942 663 979 q 915 840 846 906 l 858 774 m 576 1197 q 623 1178 604 1197 q 642 1132 642 1160 q 623 1085 642 1104 q 576 1065 604 1065 q 531 1085 550 1065 q 513 1132 513 1104 q 531 1178 513 1160 q 576 1197 549 1197 z "},"D":{"ha":1101,"x_min":153,"x_max":1043,"o":"m 543 971 q 797 907 682 971 q 977 731 911 843 q 1043 485 1043 619 q 977 239 1043 350 q 796 64 911 128 q 540 0 681 0 l 153 0 l 153 971 l 543 971 m 546 86 q 747 139 656 86 q 892 283 839 192 q 946 485 946 374 q 892 688 946 596 q 745 832 838 779 q 542 885 653 885 l 249 885 l 249 86 l 546 86 z "},"Ǆ":{"ha":2015,"x_min":153,"x_max":1953,"o":"m 543 971 q 797 907 682 971 q 977 731 911 843 q 1043 485 1043 619 q 977 239 1043 350 q 796 64 911 128 q 540 0 681 0 l 153 0 l 153 971 l 543 971 m 546 86 q 747 139 656 86 q 892 283 839 192 q 946 485 946 374 q 892 688 946 596 q 745 832 838 779 q 542 885 653 885 l 249 885 l 249 86 l 546 86 m 1289 86 l 1953 86 l 1953 0 l 1164 0 l 1164 75 l 1467 447 l 1256 447 l 1256 526 l 1532 526 l 1824 885 l 1182 885 l 1182 971 l 1947 971 l 1947 897 l 1642 521 l 1853 521 l 1853 442 l 1578 442 l 1289 86 m 1643 1242 l 1739 1242 l 1596 1068 l 1493 1068 l 1351 1242 l 1447 1242 l 1544 1136 l 1643 1242 z "},"Ð":{"ha":1101,"x_min":54,"x_max":1043,"o":"m 543 972 q 797 908 682 972 q 977 732 911 843 q 1043 486 1043 621 q 977 239 1043 350 q 797 64 911 128 q 542 0 682 0 l 153 0 l 153 456 l 54 456 l 54 517 l 153 517 l 153 972 l 543 972 m 546 86 q 748 139 656 86 q 894 283 840 192 q 947 485 947 374 q 893 688 947 596 q 746 832 839 779 q 542 885 653 885 l 249 885 l 249 517 l 583 517 l 583 456 l 249 456 l 249 86 l 546 86 z "},"Ď":{"ha":1101,"x_min":153,"x_max":1043,"o":"m 543 971 q 797 907 682 971 q 977 731 911 843 q 1043 485 1043 619 q 977 239 1043 350 q 796 64 911 128 q 540 0 681 0 l 153 0 l 153 971 l 543 971 m 546 86 q 747 139 656 86 q 892 283 839 192 q 946 485 946 374 q 892 688 946 596 q 745 832 838 779 q 542 885 653 885 l 249 885 l 249 86 l 546 86 m 600 1240 l 696 1240 l 553 1067 l 450 1067 l 308 1240 l 404 1240 l 501 1135 l 600 1240 z "},"Đ":{"ha":1101,"x_min":54,"x_max":1043,"o":"m 543 972 q 797 908 682 972 q 977 732 911 843 q 1043 486 1043 621 q 977 239 1043 350 q 797 64 911 128 q 542 0 682 0 l 153 0 l 153 456 l 54 456 l 54 517 l 153 517 l 153 972 l 543 972 m 546 86 q 748 139 656 86 q 894 283 840 192 q 947 485 947 374 q 893 688 947 596 q 746 832 839 779 q 542 885 653 885 l 249 885 l 249 517 l 583 517 l 583 456 l 249 456 l 249 86 l 546 86 z "},"Ḍ":{"ha":1101,"x_min":153,"x_max":1043,"o":"m 543 971 q 797 907 682 971 q 977 731 911 843 q 1043 485 1043 619 q 977 239 1043 350 q 796 64 911 128 q 540 0 681 0 l 153 0 l 153 971 l 543 971 m 546 86 q 747 139 656 86 q 892 283 839 192 q 946 485 946 374 q 892 688 946 596 q 745 832 838 779 q 542 885 653 885 l 249 885 l 249 86 l 546 86 m 538 -106 q 583 -124 565 -106 q 601 -171 601 -143 q 583 -218 601 -199 q 538 -237 564 -237 q 491 -218 510 -237 q 472 -171 472 -199 q 491 -124 472 -143 q 538 -106 510 -106 z "},"Ḏ":{"ha":1101,"x_min":153,"x_max":1043,"o":"m 543 971 q 797 907 682 971 q 977 731 911 843 q 1043 485 1043 619 q 977 239 1043 350 q 796 64 911 128 q 540 0 681 0 l 153 0 l 153 971 l 543 971 m 546 86 q 747 139 656 86 q 892 283 839 192 q 946 485 946 374 q 892 688 946 596 q 745 832 838 779 q 542 885 653 885 l 249 885 l 249 86 l 546 86 m 344 -119 l 728 -119 l 728 -183 l 344 -183 l 344 -119 z "},"ǅ":{"ha":1829,"x_min":153,"x_max":1768,"o":"m 543 971 q 797 907 682 971 q 977 731 911 843 q 1043 485 1043 619 q 977 239 1043 350 q 796 64 911 128 q 540 0 681 0 l 153 0 l 153 971 l 543 971 m 546 86 q 747 139 656 86 q 892 283 839 192 q 946 485 946 374 q 892 688 946 596 q 745 832 838 779 q 542 885 653 885 l 249 885 l 249 86 l 546 86 m 1289 78 l 1768 76 l 1768 -1 l 1176 0 l 1176 71 l 1388 332 l 1231 332 l 1231 407 l 1449 407 l 1644 650 l 1189 651 l 1189 728 l 1757 726 l 1757 657 l 1550 401 l 1708 401 l 1708 326 l 1490 326 l 1289 78 m 1575 1033 l 1671 1033 l 1528 860 l 1425 860 l 1283 1033 l 1379 1033 l 1476 928 l 1575 1033 z "},"E":{"ha":781,"x_min":65,"x_max":758,"o":"m 446 469 q 301 444 365 469 q 200 375 236 419 q 164 274 164 331 q 201 172 164 217 q 301 101 238 126 q 446 76 365 76 q 588 96 510 76 q 719 144 665 115 l 758 69 q 610 14 699 36 q 439 -8 521 -8 q 246 26 331 -8 q 113 123 161 61 q 65 263 65 185 q 135 427 65 357 q 314 515 204 497 q 168 594 225 533 q 111 735 111 656 q 153 862 111 806 q 272 949 196 918 q 447 981 349 981 q 592 965 517 981 q 715 925 667 949 l 681 850 q 574 884 636 871 q 454 897 511 897 q 324 874 381 897 q 235 811 267 851 q 203 719 203 771 q 272 599 203 644 q 446 553 340 553 l 624 553 l 624 469 l 446 469 z "},"É":{"ha":781,"x_min":65,"x_max":758,"o":"m 446 469 q 301 444 365 469 q 200 375 236 419 q 164 274 164 331 q 201 172 164 217 q 301 101 238 126 q 446 76 365 76 q 588 96 510 76 q 719 144 665 115 l 758 69 q 610 14 699 36 q 439 -8 521 -8 q 246 26 331 -8 q 113 123 161 61 q 65 263 65 185 q 135 427 65 357 q 314 515 204 497 q 168 594 225 533 q 111 735 111 656 q 153 862 111 806 q 272 949 196 918 q 447 981 349 981 q 592 965 517 981 q 715 925 667 949 l 681 850 q 574 884 636 871 q 454 897 511 897 q 324 874 381 897 q 235 811 267 851 q 203 719 203 771 q 272 599 203 644 q 446 553 340 553 l 624 553 l 624 469 l 446 469 m 546 1246 l 642 1204 l 467 1065 l 383 1075 l 546 1246 z "},"Ĕ":{"ha":781,"x_min":65,"x_max":758,"o":"m 446 469 q 301 444 365 469 q 200 375 236 419 q 164 274 164 331 q 201 172 164 217 q 301 101 238 126 q 446 76 365 76 q 588 96 510 76 q 719 144 665 115 l 758 69 q 610 14 699 36 q 439 -8 521 -8 q 246 26 331 -8 q 113 123 161 61 q 65 263 65 185 q 135 427 65 357 q 314 515 204 497 q 168 594 225 533 q 111 735 111 656 q 153 862 111 806 q 272 949 196 918 q 447 981 349 981 q 592 965 517 981 q 715 925 667 949 l 681 850 q 574 884 636 871 q 454 897 511 897 q 324 874 381 897 q 235 811 267 851 q 203 719 203 771 q 272 599 203 644 q 446 553 340 553 l 624 553 l 624 469 l 446 469 m 340 1236 q 372 1162 343 1192 q 443 1132 400 1132 q 515 1162 486 1132 q 546 1236 543 1192 l 614 1236 q 564 1113 613 1161 q 443 1065 515 1065 q 324 1113 372 1065 q 272 1236 275 1161 l 340 1236 z "},"Ě":{"ha":781,"x_min":65,"x_max":758,"o":"m 446 469 q 301 444 365 469 q 200 375 236 419 q 164 274 164 331 q 201 172 164 217 q 301 101 238 126 q 446 76 365 76 q 588 96 510 76 q 719 144 665 115 l 758 69 q 610 14 699 36 q 439 -8 521 -8 q 246 26 331 -8 q 113 123 161 61 q 65 263 65 185 q 135 427 65 357 q 314 515 204 497 q 168 594 225 533 q 111 735 111 656 q 153 862 111 806 q 272 949 196 918 q 447 981 349 981 q 592 965 517 981 q 715 925 667 949 l 681 850 q 574 884 636 871 q 454 897 511 897 q 324 874 381 897 q 235 811 267 851 q 203 719 203 771 q 272 599 203 644 q 446 553 340 553 l 624 553 l 624 469 l 446 469 m 521 1242 l 617 1242 l 474 1068 l 371 1068 l 229 1242 l 325 1242 l 422 1136 l 521 1242 z "},"Ḝ":{"ha":781,"x_min":65,"x_max":758,"o":"m 419 1065 q 300 1113 349 1065 q 249 1236 251 1161 l 317 1236 q 348 1162 319 1192 q 419 1132 376 1132 q 491 1162 463 1132 q 522 1236 519 1192 l 590 1236 q 540 1113 589 1161 q 419 1065 492 1065 m 461 -74 q 545 -110 517 -79 q 574 -181 574 -140 q 534 -267 574 -233 q 431 -300 494 -300 q 369 -292 401 -300 q 313 -269 338 -283 l 335 -210 q 376 -226 353 -219 q 421 -232 400 -232 q 477 -214 457 -232 q 497 -172 497 -196 q 477 -134 497 -150 q 422 -118 457 -118 l 381 -118 l 414 -8 q 233 31 313 -4 q 110 127 154 67 q 65 263 65 188 q 135 427 65 357 q 314 515 204 497 q 168 594 225 533 q 111 735 111 656 q 153 862 111 806 q 272 949 196 918 q 447 981 349 981 q 592 965 517 981 q 715 925 667 949 l 681 850 q 574 884 636 871 q 454 897 511 897 q 324 874 381 897 q 235 811 267 851 q 203 719 203 771 q 272 599 203 644 q 446 553 340 553 l 624 553 l 624 469 l 446 469 q 301 444 365 469 q 200 375 236 419 q 164 274 164 331 q 201 172 164 217 q 301 101 238 126 q 446 76 365 76 q 588 96 510 76 q 719 144 665 115 l 758 69 q 632 19 707 40 q 482 -7 557 -1 l 461 -74 z "},"Ê":{"ha":781,"x_min":65,"x_max":758,"o":"m 446 469 q 301 444 365 469 q 200 375 236 419 q 164 274 164 331 q 201 172 164 217 q 301 101 238 126 q 446 76 365 76 q 588 96 510 76 q 719 144 665 115 l 758 69 q 610 14 699 36 q 439 -8 521 -8 q 246 26 331 -8 q 113 123 161 61 q 65 263 65 185 q 135 427 65 357 q 314 515 204 497 q 168 594 225 533 q 111 735 111 656 q 153 862 111 806 q 272 949 196 918 q 447 981 349 981 q 592 965 517 981 q 715 925 667 949 l 681 850 q 574 884 636 871 q 454 897 511 897 q 324 874 381 897 q 235 811 267 851 q 203 719 203 771 q 272 599 203 644 q 446 553 340 553 l 624 553 l 624 469 l 446 469 m 638 1068 l 542 1068 l 444 1174 l 346 1068 l 250 1068 l 393 1242 l 496 1242 l 638 1068 z "},"Ế":{"ha":781,"x_min":65,"x_max":758,"o":"m 446 469 q 301 444 365 469 q 200 375 236 419 q 164 274 164 331 q 201 172 164 217 q 301 101 238 126 q 446 76 365 76 q 588 96 510 76 q 719 144 665 115 l 758 69 q 610 14 699 36 q 439 -8 521 -8 q 246 26 331 -8 q 113 123 161 61 q 65 263 65 185 q 135 427 65 357 q 314 515 204 497 q 168 594 225 533 q 111 735 111 656 q 153 862 111 806 q 272 949 196 918 q 447 981 349 981 q 592 965 517 981 q 715 925 667 949 l 681 850 q 574 884 636 871 q 454 897 511 897 q 324 874 381 897 q 235 811 267 851 q 203 719 203 771 q 272 599 203 644 q 446 553 340 553 l 624 553 l 624 469 l 446 469 m 664 1060 l 561 1060 l 450 1143 l 338 1060 l 235 1060 l 383 1185 l 515 1185 l 664 1060 m 553 1390 l 632 1338 l 436 1229 l 360 1253 l 553 1390 z "},"Ệ":{"ha":781,"x_min":65,"x_max":758,"o":"m 446 469 q 301 444 365 469 q 200 375 236 419 q 164 274 164 331 q 201 172 164 217 q 301 101 238 126 q 446 76 365 76 q 588 96 510 76 q 719 144 665 115 l 758 69 q 610 14 699 36 q 439 -8 521 -8 q 246 26 331 -8 q 113 123 161 61 q 65 263 65 185 q 135 427 65 357 q 314 515 204 497 q 168 594 225 533 q 111 735 111 656 q 153 862 111 806 q 272 949 196 918 q 447 981 349 981 q 592 965 517 981 q 715 925 667 949 l 681 850 q 574 884 636 871 q 454 897 511 897 q 324 874 381 897 q 235 811 267 851 q 203 719 203 771 q 272 599 203 644 q 446 553 340 553 l 624 553 l 624 469 l 446 469 m 438 -106 q 483 -124 465 -106 q 501 -171 501 -143 q 483 -218 501 -199 q 438 -237 464 -237 q 391 -218 410 -237 q 372 -171 372 -199 q 391 -124 372 -143 q 438 -106 410 -106 m 632 1068 l 536 1068 l 439 1174 l 340 1068 l 244 1068 l 388 1242 l 490 1242 l 632 1068 z "},"Ề":{"ha":781,"x_min":65,"x_max":758,"o":"m 446 469 q 301 444 365 469 q 200 375 236 419 q 164 274 164 331 q 201 172 164 217 q 301 101 238 126 q 446 76 365 76 q 588 96 510 76 q 719 144 665 115 l 758 69 q 610 14 699 36 q 439 -8 521 -8 q 246 26 331 -8 q 113 123 161 61 q 65 263 65 185 q 135 427 65 357 q 314 515 204 497 q 168 594 225 533 q 111 735 111 656 q 153 862 111 806 q 272 949 196 918 q 447 981 349 981 q 592 965 517 981 q 715 925 667 949 l 681 850 q 574 884 636 871 q 454 897 511 897 q 324 874 381 897 q 235 811 267 851 q 203 719 203 771 q 272 599 203 644 q 446 553 340 553 l 624 553 l 624 469 l 446 469 m 658 1060 l 556 1060 l 444 1143 l 332 1060 l 229 1060 l 378 1185 l 510 1185 l 658 1060 m 338 1390 l 529 1253 l 454 1229 l 257 1338 l 338 1390 z "},"Ể":{"ha":781,"x_min":65,"x_max":758,"o":"m 446 469 q 301 444 365 469 q 200 375 236 419 q 164 274 164 331 q 201 172 164 217 q 301 101 238 126 q 446 76 365 76 q 588 96 510 76 q 719 144 665 115 l 758 69 q 610 14 699 36 q 439 -8 521 -8 q 246 26 331 -8 q 113 123 161 61 q 65 263 65 185 q 135 427 65 357 q 314 515 204 497 q 168 594 225 533 q 111 735 111 656 q 153 862 111 806 q 272 949 196 918 q 447 981 349 981 q 592 965 517 981 q 715 925 667 949 l 681 850 q 574 884 636 871 q 454 897 511 897 q 324 874 381 897 q 235 811 267 851 q 203 719 203 771 q 272 599 203 644 q 446 553 340 553 l 624 553 l 624 469 l 446 469 m 672 1060 l 569 1060 l 458 1143 l 346 1060 l 243 1060 l 392 1185 l 524 1185 l 672 1060 m 449 1438 q 526 1413 497 1438 q 554 1350 554 1389 q 531 1288 554 1319 q 468 1228 508 1256 l 415 1250 q 461 1292 444 1269 q 478 1335 478 1315 q 465 1364 478 1353 q 431 1375 453 1375 q 378 1360 403 1375 l 347 1406 q 449 1438 400 1438 z "},"Ễ":{"ha":781,"x_min":65,"x_max":758,"o":"m 446 469 q 301 444 365 469 q 200 375 236 419 q 164 274 164 331 q 201 172 164 217 q 301 101 238 126 q 446 76 365 76 q 588 96 510 76 q 719 144 665 115 l 758 69 q 610 14 699 36 q 439 -8 521 -8 q 246 26 331 -8 q 113 123 161 61 q 65 263 65 185 q 135 427 65 357 q 314 515 204 497 q 168 594 225 533 q 111 735 111 656 q 153 862 111 806 q 272 949 196 918 q 447 981 349 981 q 592 965 517 981 q 715 925 667 949 l 681 850 q 574 884 636 871 q 454 897 511 897 q 324 874 381 897 q 235 811 267 851 q 203 719 203 771 q 272 599 203 644 q 446 553 340 553 l 624 553 l 624 469 l 446 469 m 667 1060 l 564 1060 l 453 1143 l 340 1060 l 238 1060 l 386 1185 l 518 1185 l 667 1060 m 654 1368 q 627 1276 654 1311 q 547 1240 600 1240 q 494 1250 518 1240 q 439 1279 471 1260 q 398 1302 415 1294 q 364 1310 381 1310 q 322 1292 336 1310 q 308 1244 308 1275 l 250 1244 q 277 1338 250 1303 q 357 1374 304 1374 q 410 1364 386 1374 q 465 1335 433 1354 q 506 1312 489 1319 q 540 1304 524 1304 q 582 1322 568 1304 q 596 1368 596 1339 l 654 1368 z "},"Ȅ":{"ha":781,"x_min":65,"x_max":758,"o":"m 446 469 q 301 444 365 469 q 200 375 236 419 q 164 274 164 331 q 201 172 164 217 q 301 101 238 126 q 446 76 365 76 q 588 96 510 76 q 719 144 665 115 l 758 69 q 610 14 699 36 q 439 -8 521 -8 q 246 26 331 -8 q 113 123 161 61 q 65 263 65 185 q 135 427 65 357 q 314 515 204 497 q 168 594 225 533 q 111 735 111 656 q 153 862 111 806 q 272 949 196 918 q 447 981 349 981 q 592 965 517 981 q 715 925 667 949 l 681 850 q 574 884 636 871 q 454 897 511 897 q 324 874 381 897 q 235 811 267 851 q 203 719 203 771 q 272 599 203 644 q 446 553 340 553 l 624 553 l 624 469 l 446 469 m 276 1251 l 400 1075 l 325 1065 l 196 1213 l 276 1251 m 474 1251 l 597 1075 l 522 1065 l 393 1213 l 474 1251 z "},"Ë":{"ha":781,"x_min":65,"x_max":758,"o":"m 446 469 q 301 444 365 469 q 200 375 236 419 q 164 274 164 331 q 201 172 164 217 q 301 101 238 126 q 446 76 365 76 q 588 96 510 76 q 719 144 665 115 l 758 69 q 610 14 699 36 q 439 -8 521 -8 q 246 26 331 -8 q 113 123 161 61 q 65 263 65 185 q 135 427 65 357 q 314 515 204 497 q 168 594 225 533 q 111 735 111 656 q 153 862 111 806 q 272 949 196 918 q 447 981 349 981 q 592 965 517 981 q 715 925 667 949 l 681 850 q 574 884 636 871 q 454 897 511 897 q 324 874 381 897 q 235 811 267 851 q 203 719 203 771 q 272 599 203 644 q 446 553 340 553 l 624 553 l 624 469 l 446 469 m 331 1188 q 373 1170 356 1188 q 390 1126 390 1153 q 373 1083 390 1101 q 331 1065 356 1065 q 287 1083 304 1065 q 269 1126 269 1101 q 287 1170 269 1153 q 331 1188 304 1188 m 560 1188 q 602 1170 585 1188 q 619 1126 619 1153 q 602 1083 619 1101 q 560 1065 585 1065 q 516 1083 533 1065 q 499 1126 499 1101 q 516 1170 499 1153 q 560 1188 533 1188 z "},"Ė":{"ha":781,"x_min":65,"x_max":758,"o":"m 446 469 q 301 444 365 469 q 200 375 236 419 q 164 274 164 331 q 201 172 164 217 q 301 101 238 126 q 446 76 365 76 q 588 96 510 76 q 719 144 665 115 l 758 69 q 610 14 699 36 q 439 -8 521 -8 q 246 26 331 -8 q 113 123 161 61 q 65 263 65 185 q 135 427 65 357 q 314 515 204 497 q 168 594 225 533 q 111 735 111 656 q 153 862 111 806 q 272 949 196 918 q 447 981 349 981 q 592 965 517 981 q 715 925 667 949 l 681 850 q 574 884 636 871 q 454 897 511 897 q 324 874 381 897 q 235 811 267 851 q 203 719 203 771 q 272 599 203 644 q 446 553 340 553 l 624 553 l 624 469 l 446 469 m 443 1197 q 490 1178 471 1197 q 508 1132 508 1160 q 490 1085 508 1104 q 443 1065 471 1065 q 398 1085 417 1065 q 379 1132 379 1104 q 397 1178 379 1160 q 443 1197 415 1197 z "},"Ẹ":{"ha":781,"x_min":65,"x_max":758,"o":"m 446 469 q 301 444 365 469 q 200 375 236 419 q 164 274 164 331 q 201 172 164 217 q 301 101 238 126 q 446 76 365 76 q 588 96 510 76 q 719 144 665 115 l 758 69 q 610 14 699 36 q 439 -8 521 -8 q 246 26 331 -8 q 113 123 161 61 q 65 263 65 185 q 135 427 65 357 q 314 515 204 497 q 168 594 225 533 q 111 735 111 656 q 153 862 111 806 q 272 949 196 918 q 447 981 349 981 q 592 965 517 981 q 715 925 667 949 l 681 850 q 574 884 636 871 q 454 897 511 897 q 324 874 381 897 q 235 811 267 851 q 203 719 203 771 q 272 599 203 644 q 446 553 340 553 l 624 553 l 624 469 l 446 469 m 439 -106 q 485 -124 467 -106 q 503 -171 503 -143 q 484 -218 503 -199 q 439 -237 465 -237 q 392 -218 411 -237 q 374 -171 374 -199 q 392 -124 374 -143 q 439 -106 411 -106 z "},"È":{"ha":781,"x_min":65,"x_max":758,"o":"m 446 469 q 301 444 365 469 q 200 375 236 419 q 164 274 164 331 q 201 172 164 217 q 301 101 238 126 q 446 76 365 76 q 588 96 510 76 q 719 144 665 115 l 758 69 q 610 14 699 36 q 439 -8 521 -8 q 246 26 331 -8 q 113 123 161 61 q 65 263 65 185 q 135 427 65 357 q 314 515 204 497 q 168 594 225 533 q 111 735 111 656 q 153 862 111 806 q 272 949 196 918 q 447 981 349 981 q 592 965 517 981 q 715 925 667 949 l 681 850 q 574 884 636 871 q 454 897 511 897 q 324 874 381 897 q 235 811 267 851 q 203 719 203 771 q 272 599 203 644 q 446 553 340 553 l 624 553 l 624 469 l 446 469 m 347 1246 l 510 1075 l 426 1065 l 251 1204 l 347 1246 z "},"Ẻ":{"ha":781,"x_min":65,"x_max":758,"o":"m 446 469 q 301 444 365 469 q 200 375 236 419 q 164 274 164 331 q 201 172 164 217 q 301 101 238 126 q 446 76 365 76 q 588 96 510 76 q 719 144 665 115 l 758 69 q 610 14 699 36 q 439 -8 521 -8 q 246 26 331 -8 q 113 123 161 61 q 65 263 65 185 q 135 427 65 357 q 314 515 204 497 q 168 594 225 533 q 111 735 111 656 q 153 862 111 806 q 272 949 196 918 q 447 981 349 981 q 592 965 517 981 q 715 925 667 949 l 681 850 q 574 884 636 871 q 454 897 511 897 q 324 874 381 897 q 235 811 267 851 q 203 719 203 771 q 272 599 203 644 q 446 553 340 553 l 624 553 l 624 469 l 446 469 m 433 1301 q 521 1273 488 1301 q 554 1196 554 1244 q 529 1117 554 1158 q 464 1043 504 1076 l 407 1068 q 456 1124 438 1093 q 474 1182 474 1156 q 458 1219 474 1204 q 417 1235 442 1235 q 356 1214 386 1235 l 322 1267 q 433 1301 374 1301 z "},"Ȇ":{"ha":781,"x_min":65,"x_max":758,"o":"m 446 469 q 301 444 365 469 q 200 375 236 419 q 164 274 164 331 q 201 172 164 217 q 301 101 238 126 q 446 76 365 76 q 588 96 510 76 q 719 144 665 115 l 758 69 q 610 14 699 36 q 439 -8 521 -8 q 246 26 331 -8 q 113 123 161 61 q 65 263 65 185 q 135 427 65 357 q 314 515 204 497 q 168 594 225 533 q 111 735 111 656 q 153 862 111 806 q 272 949 196 918 q 447 981 349 981 q 592 965 517 981 q 715 925 667 949 l 681 850 q 574 884 636 871 q 454 897 511 897 q 324 874 381 897 q 235 811 267 851 q 203 719 203 771 q 272 599 203 644 q 446 553 340 553 l 624 553 l 624 469 l 446 469 m 272 1069 q 324 1192 275 1144 q 443 1240 372 1240 q 564 1192 515 1240 q 614 1069 613 1144 l 546 1069 q 515 1145 543 1115 q 443 1175 486 1175 q 372 1145 400 1175 q 340 1069 343 1115 l 272 1069 z "},"Ē":{"ha":781,"x_min":65,"x_max":758,"o":"m 446 469 q 301 444 365 469 q 200 375 236 419 q 164 274 164 331 q 201 172 164 217 q 301 101 238 126 q 446 76 365 76 q 588 96 510 76 q 719 144 665 115 l 758 69 q 610 14 699 36 q 439 -8 521 -8 q 246 26 331 -8 q 113 123 161 61 q 65 263 65 185 q 135 427 65 357 q 314 515 204 497 q 168 594 225 533 q 111 735 111 656 q 153 862 111 806 q 272 949 196 918 q 447 981 349 981 q 592 965 517 981 q 715 925 667 949 l 681 850 q 574 884 636 871 q 454 897 511 897 q 324 874 381 897 q 235 811 267 851 q 203 719 203 771 q 272 599 203 644 q 446 553 340 553 l 624 553 l 624 469 l 446 469 m 226 1140 l 660 1140 l 660 1076 l 226 1076 l 226 1140 z "},"Ḗ":{"ha":781,"x_min":65,"x_max":758,"o":"m 446 469 q 301 444 365 469 q 200 375 236 419 q 164 274 164 331 q 201 172 164 217 q 301 101 238 126 q 446 76 365 76 q 588 96 510 76 q 719 144 665 115 l 758 69 q 610 14 699 36 q 439 -8 521 -8 q 246 26 331 -8 q 113 123 161 61 q 65 263 65 185 q 135 427 65 357 q 314 515 204 497 q 168 594 225 533 q 111 735 111 656 q 153 862 111 806 q 272 949 196 918 q 447 981 349 981 q 592 965 517 981 q 715 925 667 949 l 681 850 q 574 884 636 871 q 454 897 511 897 q 324 874 381 897 q 235 811 267 851 q 203 719 203 771 q 272 599 203 644 q 446 553 340 553 l 624 553 l 624 469 l 446 469 z "},"Ḕ":{"ha":781,"x_min":65,"x_max":758,"o":"m 446 469 q 301 444 365 469 q 200 375 236 419 q 164 274 164 331 q 201 172 164 217 q 301 101 238 126 q 446 76 365 76 q 588 96 510 76 q 719 144 665 115 l 758 69 q 610 14 699 36 q 439 -8 521 -8 q 246 26 331 -8 q 113 123 161 61 q 65 263 65 185 q 135 427 65 357 q 314 515 204 497 q 168 594 225 533 q 111 735 111 656 q 153 862 111 806 q 272 949 196 918 q 447 981 349 981 q 592 965 517 981 q 715 925 667 949 l 681 850 q 574 884 636 871 q 454 897 511 897 q 324 874 381 897 q 235 811 267 851 q 203 719 203 771 q 272 599 203 644 q 446 553 340 553 l 624 553 l 624 469 l 446 469 z "},"Ę":{"ha":781,"x_min":65,"x_max":758,"o":"m 647 -226 q 711 -207 681 -226 l 736 -269 q 629 -299 683 -299 q 539 -265 572 -299 q 506 -175 506 -232 q 603 13 506 -86 q 439 -8 522 -8 q 246 26 331 -8 q 113 123 161 61 q 65 263 65 185 q 135 427 65 357 q 314 515 204 497 q 168 594 225 533 q 111 735 111 656 q 153 862 111 806 q 272 949 196 918 q 447 981 349 981 q 592 965 517 981 q 715 925 667 949 l 681 850 q 574 884 636 871 q 454 897 511 897 q 324 874 381 897 q 235 811 267 851 q 203 719 203 771 q 272 599 203 644 q 446 553 340 553 l 624 553 l 624 469 l 446 469 q 301 444 365 469 q 200 375 236 419 q 164 274 164 331 q 201 172 164 217 q 301 101 238 126 q 446 76 365 76 q 588 96 510 76 q 719 144 665 115 l 758 69 l 739 60 q 633 -60 672 1 q 593 -167 593 -121 q 608 -211 593 -196 q 647 -226 622 -226 z "},"Ẽ":{"ha":781,"x_min":65,"x_max":758,"o":"m 446 469 q 301 444 365 469 q 200 375 236 419 q 164 274 164 331 q 201 172 164 217 q 301 101 238 126 q 446 76 365 76 q 588 96 510 76 q 719 144 665 115 l 758 69 q 610 14 699 36 q 439 -8 521 -8 q 246 26 331 -8 q 113 123 161 61 q 65 263 65 185 q 135 427 65 357 q 314 515 204 497 q 168 594 225 533 q 111 735 111 656 q 153 862 111 806 q 272 949 196 918 q 447 981 349 981 q 592 965 517 981 q 715 925 667 949 l 681 850 q 574 884 636 871 q 454 897 511 897 q 324 874 381 897 q 235 811 267 851 q 203 719 203 771 q 272 599 203 644 q 446 553 340 553 l 624 553 l 624 469 l 446 469 m 647 1215 q 620 1108 647 1150 q 539 1067 593 1067 q 487 1078 510 1067 q 433 1111 464 1090 q 391 1138 406 1131 q 360 1146 376 1146 q 320 1126 333 1146 q 307 1072 307 1107 l 239 1072 q 266 1179 239 1138 q 347 1221 293 1221 q 400 1209 376 1221 q 453 1175 424 1197 q 495 1148 481 1156 q 526 1140 510 1140 q 579 1215 579 1140 l 647 1215 z "},"F":{"ha":710,"x_min":131,"x_max":697,"o":"m 432 889 q 281 832 338 889 q 225 679 225 775 l 225 499 l 619 499 l 619 413 l 225 413 l 225 0 l 131 0 l 131 681 q 210 895 131 815 q 425 975 290 975 q 568 959 496 975 q 697 917 640 943 l 671 832 q 553 873 618 857 q 432 889 488 889 z "},"G":{"ha":1049,"x_min":58,"x_max":922,"o":"m 835 485 l 919 485 l 919 0 l 844 0 l 844 101 q 708 21 783 50 q 556 -8 633 -8 q 306 58 419 -8 q 125 239 192 125 q 58 488 58 353 q 126 735 58 622 q 312 913 194 847 q 568 979 429 979 q 759 944 667 979 q 922 847 851 910 l 867 779 q 730 865 807 835 q 568 894 653 894 q 361 840 456 894 q 211 692 267 785 q 156 488 156 599 q 210 281 156 375 q 359 133 265 188 q 564 78 453 78 q 711 108 640 78 q 835 194 782 139 l 835 485 z "},"Ğ":{"ha":1049,"x_min":58,"x_max":922,"o":"m 835 485 l 919 485 l 919 0 l 844 0 l 844 101 q 708 21 783 50 q 556 -8 633 -8 q 306 58 419 -8 q 125 239 192 125 q 58 488 58 353 q 126 735 58 622 q 312 913 194 847 q 568 979 429 979 q 759 944 667 979 q 922 847 851 910 l 867 779 q 730 865 807 835 q 568 894 653 894 q 361 840 456 894 q 211 692 267 785 q 156 488 156 599 q 210 281 156 375 q 359 133 265 188 q 564 78 453 78 q 711 108 640 78 q 835 194 782 139 l 835 485 m 422 1236 q 453 1162 425 1192 q 525 1132 482 1132 q 597 1162 568 1132 q 628 1236 625 1192 l 696 1236 q 646 1113 694 1161 q 525 1065 597 1065 q 406 1113 454 1065 q 354 1236 357 1161 l 422 1236 z "},"Ǧ":{"ha":1049,"x_min":58,"x_max":922,"o":"m 835 485 l 919 485 l 919 0 l 844 0 l 844 101 q 708 21 783 50 q 556 -8 633 -8 q 306 58 419 -8 q 125 239 192 125 q 58 488 58 353 q 126 735 58 622 q 312 913 194 847 q 568 979 429 979 q 759 944 667 979 q 922 847 851 910 l 867 779 q 730 865 807 835 q 568 894 653 894 q 361 840 456 894 q 211 692 267 785 q 156 488 156 599 q 210 281 156 375 q 359 133 265 188 q 564 78 453 78 q 711 108 640 78 q 835 194 782 139 l 835 485 m 603 1242 l 699 1242 l 556 1068 l 453 1068 l 311 1242 l 407 1242 l 504 1136 l 603 1242 z "},"Ĝ":{"ha":1049,"x_min":58,"x_max":922,"o":"m 835 485 l 919 485 l 919 0 l 844 0 l 844 101 q 708 21 783 50 q 556 -8 633 -8 q 306 58 419 -8 q 125 239 192 125 q 58 488 58 353 q 126 735 58 622 q 312 913 194 847 q 568 979 429 979 q 759 944 667 979 q 922 847 851 910 l 867 779 q 730 865 807 835 q 568 894 653 894 q 361 840 456 894 q 211 692 267 785 q 156 488 156 599 q 210 281 156 375 q 359 133 265 188 q 564 78 453 78 q 711 108 640 78 q 835 194 782 139 l 835 485 m 719 1068 l 624 1068 l 526 1174 l 428 1068 l 332 1068 l 475 1242 l 578 1242 l 719 1068 z "},"Ģ":{"ha":1049,"x_min":58,"x_max":922,"o":"m 835 485 l 919 485 l 919 0 l 844 0 l 844 101 q 708 21 783 50 q 556 -8 633 -8 q 306 58 419 -8 q 125 239 192 125 q 58 488 58 353 q 126 735 58 622 q 312 913 194 847 q 568 979 429 979 q 759 944 667 979 q 922 847 851 910 l 867 779 q 730 865 807 835 q 568 894 653 894 q 361 840 456 894 q 211 692 267 785 q 156 488 156 599 q 210 281 156 375 q 359 133 265 188 q 564 78 453 78 q 711 108 640 78 q 835 194 782 139 l 835 485 m 482 -85 l 571 -85 l 500 -301 l 431 -301 l 482 -85 z "},"Ġ":{"ha":1049,"x_min":58,"x_max":922,"o":"m 835 485 l 919 485 l 919 0 l 844 0 l 844 101 q 708 21 783 50 q 556 -8 633 -8 q 306 58 419 -8 q 125 239 192 125 q 58 488 58 353 q 126 735 58 622 q 312 913 194 847 q 568 979 429 979 q 759 944 667 979 q 922 847 851 910 l 867 779 q 730 865 807 835 q 568 894 653 894 q 361 840 456 894 q 211 692 267 785 q 156 488 156 599 q 210 281 156 375 q 359 133 265 188 q 564 78 453 78 q 711 108 640 78 q 835 194 782 139 l 835 485 m 525 1197 q 572 1178 553 1197 q 590 1132 590 1160 q 572 1085 590 1104 q 525 1065 553 1065 q 480 1085 499 1065 q 461 1132 461 1104 q 479 1178 461 1160 q 525 1197 497 1197 z "},"Ḡ":{"ha":1049,"x_min":58,"x_max":922,"o":"m 835 485 l 919 485 l 919 0 l 844 0 l 844 101 q 708 21 783 50 q 556 -8 633 -8 q 306 58 419 -8 q 125 239 192 125 q 58 488 58 353 q 126 735 58 622 q 312 913 194 847 q 568 979 429 979 q 759 944 667 979 q 922 847 851 910 l 867 779 q 730 865 807 835 q 568 894 653 894 q 361 840 456 894 q 211 692 267 785 q 156 488 156 599 q 210 281 156 375 q 359 133 265 188 q 564 78 453 78 q 711 108 640 78 q 835 194 782 139 l 835 485 m 308 1140 l 742 1140 l 742 1076 l 308 1076 l 308 1140 z "},"H":{"ha":1104,"x_min":153,"x_max":951,"o":"m 153 971 l 249 971 l 249 526 l 856 526 l 856 971 l 951 971 l 951 0 l 856 0 l 856 440 l 249 440 l 249 0 l 153 0 l 153 971 z "},"Ħ":{"ha":1104,"x_min":44,"x_max":1063,"o":"m 1063 790 l 1063 729 l 951 729 l 951 0 l 856 0 l 856 440 l 249 440 l 249 0 l 153 0 l 153 729 l 44 729 l 44 790 l 153 790 l 153 972 l 249 972 l 249 790 l 856 790 l 856 972 l 951 972 l 951 790 l 1063 790 m 856 526 l 856 729 l 249 729 l 249 526 l 856 526 z "},"Ḫ":{"ha":1104,"x_min":153,"x_max":951,"o":"m 153 971 l 249 971 l 249 526 l 856 526 l 856 971 l 951 971 l 951 0 l 856 0 l 856 440 l 249 440 l 249 0 l 153 0 l 153 971 m 450 -69 q 481 -144 453 -114 q 553 -174 510 -174 q 624 -144 596 -174 q 656 -69 653 -114 l 724 -69 q 674 -192 722 -144 q 553 -240 625 -240 q 433 -192 482 -240 q 382 -69 385 -144 l 450 -69 z "},"Ĥ":{"ha":1104,"x_min":153,"x_max":951,"o":"m 153 971 l 249 971 l 249 526 l 856 526 l 856 971 l 951 971 l 951 0 l 856 0 l 856 440 l 249 440 l 249 0 l 153 0 l 153 971 m 750 1067 l 654 1067 l 557 1172 l 458 1067 l 363 1067 l 506 1240 l 608 1240 l 750 1067 z "},"Ḥ":{"ha":1104,"x_min":153,"x_max":951,"o":"m 153 971 l 249 971 l 249 526 l 856 526 l 856 971 l 951 971 l 951 0 l 856 0 l 856 440 l 249 440 l 249 0 l 153 0 l 153 971 m 554 -106 q 600 -124 582 -106 q 618 -171 618 -143 q 599 -218 618 -199 q 554 -237 581 -237 q 508 -218 526 -237 q 489 -171 489 -199 q 508 -124 489 -143 q 554 -106 526 -106 z "},"I":{"ha":647,"x_min":78,"x_max":571,"o":"m 571 885 l 372 885 l 372 86 l 571 86 l 571 0 l 78 0 l 78 86 l 276 86 l 276 885 l 78 885 l 78 972 l 571 972 l 571 885 z "},"Ĳ":{"ha":1313,"x_min":78,"x_max":1182,"o":"m 571 885 l 372 885 l 372 86 l 571 86 l 571 0 l 78 0 l 78 86 l 276 86 l 276 885 l 78 885 l 78 972 l 571 972 l 571 885 m 1182 147 q 1111 -67 1182 8 q 911 -143 1040 -143 q 766 -108 833 -143 q 649 -6 699 -72 l 697 67 q 797 -20 742 10 q 911 -50 853 -50 q 1041 1 996 -50 q 1086 150 1086 53 l 1086 885 l 736 885 l 736 972 l 1182 972 l 1182 147 z "},"Í":{"ha":647,"x_min":78,"x_max":571,"o":"m 571 885 l 372 885 l 372 86 l 571 86 l 571 0 l 78 0 l 78 86 l 276 86 l 276 885 l 78 885 l 78 972 l 571 972 l 571 885 m 426 1246 l 522 1204 l 347 1065 l 264 1075 l 426 1246 z "},"Ĭ":{"ha":647,"x_min":78,"x_max":571,"o":"m 571 885 l 372 885 l 372 86 l 571 86 l 571 0 l 78 0 l 78 86 l 276 86 l 276 885 l 78 885 l 78 972 l 571 972 l 571 885 m 221 1236 q 252 1162 224 1192 q 324 1132 281 1132 q 395 1162 367 1132 q 426 1236 424 1192 l 494 1236 q 444 1113 493 1161 q 324 1065 396 1065 q 204 1113 253 1065 q 153 1236 156 1161 l 221 1236 z "},"Î":{"ha":647,"x_min":78,"x_max":571,"o":"m 571 885 l 372 885 l 372 86 l 571 86 l 571 0 l 78 0 l 78 86 l 276 86 l 276 885 l 78 885 l 78 972 l 571 972 l 571 885 m 518 1068 l 422 1068 l 325 1174 l 226 1068 l 131 1068 l 274 1242 l 376 1242 l 518 1068 z "},"Ȉ":{"ha":647,"x_min":76,"x_max":571,"o":"m 571 885 l 372 885 l 372 86 l 571 86 l 571 0 l 78 0 l 78 86 l 276 86 l 276 885 l 78 885 l 78 972 l 571 972 l 571 885 m 157 1251 l 281 1075 l 206 1065 l 76 1213 l 157 1251 m 354 1251 l 478 1075 l 403 1065 l 274 1213 l 354 1251 z "},"Ï":{"ha":647,"x_min":78,"x_max":571,"o":"m 571 885 l 372 885 l 372 86 l 571 86 l 571 0 l 78 0 l 78 86 l 276 86 l 276 885 l 78 885 l 78 972 l 571 972 l 571 885 m 211 1188 q 253 1170 236 1188 q 271 1126 271 1153 q 253 1083 271 1101 q 211 1065 236 1065 q 167 1083 185 1065 q 150 1126 150 1101 q 167 1170 150 1153 q 211 1188 185 1188 m 440 1188 q 483 1170 465 1188 q 500 1126 500 1153 q 483 1083 500 1101 q 440 1065 465 1065 q 397 1083 414 1065 q 379 1126 379 1101 q 397 1170 379 1153 q 440 1188 414 1188 z "},"Ḯ":{"ha":647,"x_min":78,"x_max":571,"o":"m 571 885 l 372 885 l 372 86 l 571 86 l 571 0 l 78 0 l 78 86 l 276 86 l 276 885 l 78 885 l 78 972 l 571 972 l 571 885 z "},"İ":{"ha":647,"x_min":78,"x_max":571,"o":"m 571 885 l 372 885 l 372 86 l 571 86 l 571 0 l 78 0 l 78 86 l 276 86 l 276 885 l 78 885 l 78 972 l 571 972 l 571 885 m 324 1197 q 370 1178 351 1197 q 389 1132 389 1160 q 370 1085 389 1104 q 324 1065 351 1065 q 278 1085 297 1065 q 260 1132 260 1104 q 278 1178 260 1160 q 324 1197 296 1197 z "},"Ị":{"ha":647,"x_min":78,"x_max":571,"o":"m 571 885 l 372 885 l 372 86 l 571 86 l 571 0 l 78 0 l 78 86 l 276 86 l 276 885 l 78 885 l 78 972 l 571 972 l 571 885 m 325 -106 q 371 -124 353 -106 q 389 -171 389 -143 q 370 -218 389 -199 q 325 -237 351 -237 q 278 -218 297 -237 q 260 -171 260 -199 q 278 -124 260 -143 q 325 -106 297 -106 z "},"Ì":{"ha":647,"x_min":78,"x_max":571,"o":"m 571 885 l 372 885 l 372 86 l 571 86 l 571 0 l 78 0 l 78 86 l 276 86 l 276 885 l 78 885 l 78 972 l 571 972 l 571 885 m 228 1246 l 390 1075 l 307 1065 l 132 1204 l 228 1246 z "},"Ỉ":{"ha":647,"x_min":78,"x_max":571,"o":"m 571 885 l 372 885 l 372 86 l 571 86 l 571 0 l 78 0 l 78 86 l 276 86 l 276 885 l 78 885 l 78 972 l 571 972 l 571 885 m 314 1301 q 401 1273 368 1301 q 435 1196 435 1244 q 410 1117 435 1158 q 344 1043 385 1076 l 288 1068 q 336 1124 318 1093 q 354 1182 354 1156 q 338 1219 354 1204 q 297 1235 322 1235 q 236 1214 267 1235 l 203 1267 q 314 1301 254 1301 z "},"Ȋ":{"ha":647,"x_min":78,"x_max":571,"o":"m 571 885 l 372 885 l 372 86 l 571 86 l 571 0 l 78 0 l 78 86 l 276 86 l 276 885 l 78 885 l 78 972 l 571 972 l 571 885 m 153 1069 q 204 1192 156 1144 q 324 1240 253 1240 q 444 1192 396 1240 q 494 1069 493 1144 l 426 1069 q 395 1145 424 1115 q 324 1175 367 1175 q 252 1145 281 1175 q 221 1069 224 1115 l 153 1069 z "},"Ī":{"ha":647,"x_min":78,"x_max":571,"o":"m 571 885 l 372 885 l 372 86 l 571 86 l 571 0 l 78 0 l 78 86 l 276 86 l 276 885 l 78 885 l 78 972 l 571 972 l 571 885 m 107 1140 l 540 1140 l 540 1076 l 107 1076 l 107 1140 z "},"Į":{"ha":647,"x_min":78,"x_max":571,"o":"m 372 885 l 372 86 l 571 86 l 571 0 l 372 0 q 262 -92 296 -54 q 228 -169 228 -131 q 242 -212 228 -199 q 282 -226 257 -226 q 346 -207 314 -226 l 371 -269 q 264 -299 321 -299 q 174 -269 207 -299 q 140 -185 140 -239 q 261 0 140 -89 l 78 0 l 78 86 l 276 86 l 276 885 l 78 885 l 78 972 l 571 972 l 571 885 l 372 885 z "},"Ĩ":{"ha":647,"x_min":78,"x_max":571,"o":"m 571 885 l 372 885 l 372 86 l 571 86 l 571 0 l 78 0 l 78 86 l 276 86 l 276 885 l 78 885 l 78 972 l 571 972 l 571 885 m 528 1215 q 501 1108 528 1150 q 419 1067 474 1067 q 367 1078 390 1067 q 314 1111 344 1090 q 272 1138 286 1131 q 240 1146 257 1146 q 201 1126 214 1146 q 188 1072 188 1107 l 119 1072 q 147 1179 119 1138 q 228 1221 174 1221 q 281 1209 257 1221 q 333 1175 304 1197 q 376 1148 361 1156 q 407 1140 390 1140 q 460 1215 460 1140 l 528 1215 z "},"J":{"ha":665,"x_min":1,"x_max":535,"o":"m 535 147 q 464 -67 535 8 q 264 -143 393 -143 q 119 -108 186 -143 q 1 -6 51 -72 l 50 67 q 150 -20 94 10 q 264 -50 206 -50 q 394 1 349 -50 q 439 150 439 53 l 439 885 l 89 885 l 89 972 l 535 972 l 535 147 z "},"Ĵ":{"ha":665,"x_min":1,"x_max":535,"o":"m 535 147 q 464 -67 535 8 q 264 -143 393 -143 q 119 -108 186 -143 q 1 -6 51 -72 l 50 67 q 150 -20 94 10 q 264 -50 206 -50 q 394 1 349 -50 q 439 150 439 53 l 439 885 l 89 885 l 89 972 l 535 972 l 535 147 m 510 1068 l 414 1068 l 317 1174 l 218 1068 l 122 1068 l 265 1242 l 368 1242 l 510 1068 z "},"K":{"ha":964,"x_min":153,"x_max":932,"o":"m 932 0 l 814 0 l 446 472 l 249 258 l 249 0 l 153 0 l 153 972 l 249 972 l 249 381 l 788 972 l 904 972 l 514 547 l 932 0 z "},"Ķ":{"ha":964,"x_min":153,"x_max":932,"o":"m 932 0 l 814 0 l 446 472 l 249 258 l 249 0 l 153 0 l 153 972 l 249 972 l 249 381 l 788 972 l 904 972 l 514 547 l 932 0 m 435 -85 l 524 -85 l 453 -301 l 383 -301 l 435 -85 z "},"L":{"ha":713,"x_min":153,"x_max":676,"o":"m 153 971 l 249 971 l 249 86 l 676 86 l 676 0 l 153 0 l 153 971 z "},"Ǉ":{"ha":1376,"x_min":153,"x_max":1247,"o":"m 153 971 l 249 971 l 249 86 l 676 86 l 676 0 l 153 0 l 153 971 m 1247 147 q 1176 -67 1247 8 q 976 -143 1106 -143 q 831 -108 899 -143 q 714 -6 764 -72 l 763 67 q 863 -20 807 10 q 976 -50 918 -50 q 1106 1 1061 -50 q 1151 150 1151 53 l 1151 885 l 801 885 l 801 972 l 1247 972 l 1247 147 z "},"Ĺ":{"ha":713,"x_min":150,"x_max":676,"o":"m 153 971 l 249 971 l 249 86 l 676 86 l 676 0 l 153 0 l 153 971 m 313 1244 l 408 1203 l 233 1064 l 150 1074 l 313 1244 z "},"Ľ":{"ha":713,"x_min":153,"x_max":676,"o":"m 153 971 l 249 971 l 249 86 l 676 86 l 676 0 l 153 0 l 153 971 m 588 972 l 676 972 l 654 708 l 588 708 l 588 972 z "},"Ļ":{"ha":713,"x_min":153,"x_max":676,"o":"m 153 971 l 249 971 l 249 86 l 676 86 l 676 0 l 153 0 l 153 971 m 372 -85 l 461 -85 l 390 -301 l 321 -301 l 372 -85 z "},"Ŀ":{"ha":713,"x_min":153,"x_max":676,"o":"m 153 971 l 249 971 l 249 86 l 676 86 l 676 0 l 153 0 l 153 971 z "},"Ḷ":{"ha":713,"x_min":153,"x_max":676,"o":"m 153 971 l 249 971 l 249 86 l 676 86 l 676 0 l 153 0 l 153 971 m 417 -106 q 463 -124 444 -106 q 481 -171 481 -143 q 462 -218 481 -199 q 417 -237 443 -237 q 370 -218 389 -237 q 351 -171 351 -199 q 370 -124 351 -143 q 417 -106 389 -106 z "},"ǈ":{"ha":1056,"x_min":153,"x_max":956,"o":"m 153 971 l 249 971 l 249 86 l 676 86 l 676 0 l 153 0 l 153 971 m 656 -178 q 728 -193 693 -192 q 815 -152 785 -194 q 844 -28 844 -110 l 844 728 l 938 728 l 938 -39 q 888 -212 938 -151 q 747 -272 839 -272 q 633 -249 692 -272 l 656 -178 m 892 1003 q 938 984 919 1003 q 956 938 956 965 q 937 890 956 910 q 892 871 918 871 q 845 890 864 871 q 826 938 826 910 q 845 984 826 965 q 892 1003 864 1003 z "},"Ḻ":{"ha":713,"x_min":153,"x_max":676,"o":"m 153 971 l 249 971 l 249 86 l 676 86 l 676 0 l 153 0 l 153 971 m 224 -119 l 607 -119 l 607 -183 l 224 -183 l 224 -119 z "},"Ł":{"ha":743,"x_min":38,"x_max":707,"o":"m 279 86 l 707 86 l 707 0 l 183 0 l 183 469 l 38 390 l 38 454 l 183 533 l 183 972 l 279 972 l 279 585 l 451 678 l 451 614 l 279 521 l 279 86 z "},"M":{"ha":1682,"x_min":153,"x_max":1553,"o":"m 1232 979 q 1397 934 1324 979 q 1512 808 1471 889 q 1553 625 1553 728 l 1553 0 l 1456 0 l 1456 606 q 1424 752 1456 688 q 1334 853 1392 817 q 1204 889 1276 889 q 1049 845 1118 889 q 940 726 979 801 q 900 563 900 651 l 900 0 l 803 0 l 804 606 q 772 752 804 688 q 681 853 739 817 q 551 889 624 889 q 396 845 465 889 q 288 727 326 801 q 249 563 249 653 l 249 0 l 153 0 l 153 979 l 249 979 l 249 789 q 384 928 297 878 q 581 979 471 979 q 769 917 689 979 q 882 750 850 854 q 1017 917 925 856 q 1232 979 1110 979 z "},"Ṃ":{"ha":1682,"x_min":153,"x_max":1553,"o":"m 1232 979 q 1397 934 1324 979 q 1512 808 1471 889 q 1553 625 1553 728 l 1553 0 l 1456 0 l 1456 606 q 1424 752 1456 688 q 1334 853 1392 817 q 1204 889 1276 889 q 1049 845 1118 889 q 940 726 979 801 q 900 563 900 651 l 900 0 l 803 0 l 804 606 q 772 752 804 688 q 681 853 739 817 q 551 889 624 889 q 396 845 465 889 q 288 727 326 801 q 249 563 249 653 l 249 0 l 153 0 l 153 979 l 249 979 l 249 789 q 384 928 297 878 q 581 979 471 979 q 769 917 689 979 q 882 750 850 854 q 1017 917 925 856 q 1232 979 1110 979 m 853 -106 q 899 -124 881 -106 q 917 -171 917 -143 q 898 -218 917 -199 q 853 -237 879 -237 q 806 -218 825 -237 q 788 -171 788 -199 q 806 -124 788 -143 q 853 -106 825 -106 z "},"N":{"ha":1085,"x_min":153,"x_max":954,"o":"m 611 979 q 788 934 710 979 q 910 808 867 889 q 954 625 954 728 l 954 0 l 857 0 l 858 606 q 823 752 858 688 q 725 853 788 817 q 583 889 663 889 q 411 845 488 889 q 292 726 335 801 q 249 563 249 651 l 249 0 l 153 0 l 153 972 l 249 972 l 249 782 q 395 926 300 874 q 611 979 490 979 z "},"Ǌ":{"ha":1749,"x_min":153,"x_max":1619,"o":"m 611 979 q 788 934 710 979 q 910 808 867 889 q 954 625 954 728 l 954 0 l 857 0 l 858 606 q 823 752 858 688 q 725 853 788 817 q 583 889 663 889 q 411 845 488 889 q 292 726 335 801 q 249 563 249 651 l 249 0 l 153 0 l 153 972 l 249 972 l 249 782 q 395 926 300 874 q 611 979 490 979 m 1619 147 q 1549 -67 1619 8 q 1349 -143 1478 -143 q 1203 -108 1271 -143 q 1086 -6 1136 -72 l 1135 67 q 1235 -20 1179 10 q 1349 -50 1290 -50 q 1478 1 1433 -50 q 1524 150 1524 53 l 1524 885 l 1174 885 l 1174 972 l 1619 972 l 1619 147 z "},"Ń":{"ha":1085,"x_min":153,"x_max":954,"o":"m 611 979 q 788 934 710 979 q 910 808 867 889 q 954 625 954 728 l 954 0 l 857 0 l 858 606 q 823 752 858 688 q 725 853 788 817 q 583 889 663 889 q 411 845 488 889 q 292 726 335 801 q 249 563 249 651 l 249 0 l 153 0 l 153 972 l 249 972 l 249 782 q 395 926 300 874 q 611 979 490 979 m 679 1246 l 775 1204 l 600 1065 l 517 1075 l 679 1246 z "},"Ň":{"ha":1085,"x_min":153,"x_max":954,"o":"m 611 979 q 788 934 710 979 q 910 808 867 889 q 954 625 954 728 l 954 0 l 857 0 l 858 606 q 823 752 858 688 q 725 853 788 817 q 583 889 663 889 q 411 845 488 889 q 292 726 335 801 q 249 563 249 651 l 249 0 l 153 0 l 153 972 l 249 972 l 249 782 q 395 926 300 874 q 611 979 490 979 m 654 1242 l 750 1242 l 607 1068 l 504 1068 l 363 1242 l 458 1242 l 556 1136 l 654 1242 z "},"Ņ":{"ha":1085,"x_min":153,"x_max":954,"o":"m 611 979 q 788 934 710 979 q 910 808 867 889 q 954 625 954 728 l 954 0 l 857 0 l 858 606 q 823 752 858 688 q 725 853 788 817 q 583 889 663 889 q 411 845 488 889 q 292 726 335 801 q 249 563 249 651 l 249 0 l 153 0 l 153 972 l 249 972 l 249 782 q 395 926 300 874 q 611 979 490 979 m 504 -85 l 593 -85 l 522 -301 l 453 -301 l 504 -85 z "},"Ṅ":{"ha":1085,"x_min":153,"x_max":954,"o":"m 611 979 q 788 934 710 979 q 910 808 867 889 q 954 625 954 728 l 954 0 l 857 0 l 858 606 q 823 752 858 688 q 725 853 788 817 q 583 889 663 889 q 411 845 488 889 q 292 726 335 801 q 249 563 249 651 l 249 0 l 153 0 l 153 972 l 249 972 l 249 782 q 395 926 300 874 q 611 979 490 979 m 576 1197 q 623 1178 604 1197 q 642 1132 642 1160 q 623 1085 642 1104 q 576 1065 604 1065 q 531 1085 550 1065 q 513 1132 513 1104 q 531 1178 513 1160 q 576 1197 549 1197 z "},"Ṇ":{"ha":1085,"x_min":153,"x_max":954,"o":"m 611 979 q 788 934 710 979 q 910 808 867 889 q 954 625 954 728 l 954 0 l 857 0 l 858 606 q 823 752 858 688 q 725 853 788 817 q 583 889 663 889 q 411 845 488 889 q 292 726 335 801 q 249 563 249 651 l 249 0 l 153 0 l 153 972 l 249 972 l 249 782 q 395 926 300 874 q 611 979 490 979 m 549 -106 q 594 -124 576 -106 q 613 -171 613 -143 q 594 -218 613 -199 q 549 -237 575 -237 q 502 -218 521 -237 q 483 -171 483 -199 q 502 -124 483 -143 q 549 -106 521 -106 z "},"Ŋ":{"ha":1085,"x_min":153,"x_max":954,"o":"m 611 971 q 788 926 710 971 q 910 801 867 881 q 954 618 954 721 l 954 0 q 882 -204 954 -131 q 683 -278 810 -278 q 542 -246 607 -278 q 426 -154 476 -214 l 475 -82 q 573 -158 519 -132 q 682 -185 626 -185 q 808 -137 763 -185 q 858 0 854 -90 l 857 0 l 857 599 q 822 744 857 679 q 725 844 788 808 q 583 881 663 881 q 419 840 493 879 q 301 735 346 801 q 249 585 256 668 l 249 0 l 153 0 l 153 971 l 249 971 l 249 775 q 395 917 300 865 q 611 971 490 969 z "},"ǋ":{"ha":1428,"x_min":153,"x_max":1328,"o":"m 611 979 q 788 934 710 979 q 910 808 867 889 q 954 625 954 728 l 954 0 l 857 0 l 858 606 q 823 752 858 688 q 725 853 788 817 q 583 889 663 889 q 411 845 488 889 q 292 726 335 801 q 249 563 249 651 l 249 0 l 153 0 l 153 972 l 249 972 l 249 782 q 395 926 300 874 q 611 979 490 979 m 1028 -178 q 1100 -193 1065 -192 q 1187 -152 1157 -194 q 1217 -28 1217 -110 l 1217 728 l 1310 728 l 1310 -39 q 1260 -212 1310 -151 q 1119 -272 1211 -272 q 1006 -249 1064 -272 l 1028 -178 m 1264 1003 q 1310 984 1292 1003 q 1328 938 1328 965 q 1309 890 1328 910 q 1264 871 1290 871 q 1217 890 1236 871 q 1199 938 1199 910 q 1217 984 1199 965 q 1264 1003 1236 1003 z "},"Ṉ":{"ha":1085,"x_min":153,"x_max":954,"o":"m 611 979 q 788 934 710 979 q 910 808 867 889 q 954 625 954 728 l 954 0 l 857 0 l 858 606 q 823 752 858 688 q 725 853 788 817 q 583 889 663 889 q 411 845 488 889 q 292 726 335 801 q 249 563 249 651 l 249 0 l 153 0 l 153 972 l 249 972 l 249 782 q 395 926 300 874 q 611 979 490 979 m 356 -119 l 739 -119 l 739 -183 l 356 -183 l 356 -119 z "},"Ñ":{"ha":1085,"x_min":153,"x_max":954,"o":"m 611 979 q 788 934 710 979 q 910 808 867 889 q 954 625 954 728 l 954 0 l 857 0 l 858 606 q 823 752 858 688 q 725 853 788 817 q 583 889 663 889 q 411 845 488 889 q 292 726 335 801 q 249 563 249 651 l 249 0 l 153 0 l 153 972 l 249 972 l 249 782 q 395 926 300 874 q 611 979 490 979 m 781 1215 q 753 1108 781 1150 q 672 1067 726 1067 q 620 1078 643 1067 q 567 1111 597 1090 q 524 1138 539 1131 q 493 1146 510 1146 q 453 1126 467 1146 q 440 1072 440 1107 l 372 1072 q 399 1179 372 1138 q 481 1221 426 1221 q 533 1209 510 1221 q 586 1175 557 1197 q 628 1148 614 1156 q 660 1140 643 1140 q 713 1215 713 1140 l 781 1215 z "},"O":{"ha":1131,"x_min":58,"x_max":1072,"o":"m 565 979 q 820 913 704 979 q 1004 735 936 847 q 1072 488 1072 622 q 1004 239 1072 353 q 820 58 936 125 q 565 -8 704 -8 q 310 58 426 -8 q 126 239 194 125 q 58 488 58 353 q 126 735 58 622 q 310 913 194 847 q 565 979 426 979 m 567 893 q 361 839 456 893 q 211 692 267 785 q 156 488 156 599 q 211 282 156 376 q 361 133 267 188 q 567 78 456 78 q 770 133 676 78 q 919 282 864 188 q 975 488 975 376 q 919 692 975 599 q 770 839 864 785 q 567 893 676 893 z "},"Ó":{"ha":1131,"x_min":58,"x_max":1072,"o":"m 565 979 q 820 913 704 979 q 1004 735 936 847 q 1072 488 1072 622 q 1004 239 1072 353 q 820 58 936 125 q 565 -8 704 -8 q 310 58 426 -8 q 126 239 194 125 q 58 488 58 353 q 126 735 58 622 q 310 913 194 847 q 565 979 426 979 m 567 893 q 361 839 456 893 q 211 692 267 785 q 156 488 156 599 q 211 282 156 376 q 361 133 267 188 q 567 78 456 78 q 770 133 676 78 q 919 282 864 188 q 975 488 975 376 q 919 692 975 599 q 770 839 864 785 q 567 893 676 893 m 668 1246 l 764 1204 l 589 1065 l 506 1075 l 668 1246 z "},"Ŏ":{"ha":1131,"x_min":58,"x_max":1072,"o":"m 565 979 q 820 913 704 979 q 1004 735 936 847 q 1072 488 1072 622 q 1004 239 1072 353 q 820 58 936 125 q 565 -8 704 -8 q 310 58 426 -8 q 126 239 194 125 q 58 488 58 353 q 126 735 58 622 q 310 913 194 847 q 565 979 426 979 m 567 893 q 361 839 456 893 q 211 692 267 785 q 156 488 156 599 q 211 282 156 376 q 361 133 267 188 q 567 78 456 78 q 770 133 676 78 q 919 282 864 188 q 975 488 975 376 q 919 692 975 599 q 770 839 864 785 q 567 893 676 893 m 463 1236 q 494 1162 465 1192 q 565 1132 522 1132 q 637 1162 608 1132 q 668 1236 665 1192 l 736 1236 q 686 1113 735 1161 q 565 1065 638 1065 q 446 1113 494 1065 q 394 1236 397 1161 l 463 1236 z "},"Ô":{"ha":1131,"x_min":58,"x_max":1072,"o":"m 565 979 q 820 913 704 979 q 1004 735 936 847 q 1072 488 1072 622 q 1004 239 1072 353 q 820 58 936 125 q 565 -8 704 -8 q 310 58 426 -8 q 126 239 194 125 q 58 488 58 353 q 126 735 58 622 q 310 913 194 847 q 565 979 426 979 m 567 893 q 361 839 456 893 q 211 692 267 785 q 156 488 156 599 q 211 282 156 376 q 361 133 267 188 q 567 78 456 78 q 770 133 676 78 q 919 282 864 188 q 975 488 975 376 q 919 692 975 599 q 770 839 864 785 q 567 893 676 893 m 760 1068 l 664 1068 l 567 1174 l 468 1068 l 372 1068 l 515 1242 l 618 1242 l 760 1068 z "},"Ố":{"ha":1131,"x_min":58,"x_max":1072,"o":"m 565 979 q 820 913 704 979 q 1004 735 936 847 q 1072 488 1072 622 q 1004 239 1072 353 q 820 58 936 125 q 565 -8 704 -8 q 310 58 426 -8 q 126 239 194 125 q 58 488 58 353 q 126 735 58 622 q 310 913 194 847 q 565 979 426 979 m 567 893 q 361 839 456 893 q 211 692 267 785 q 156 488 156 599 q 211 282 156 376 q 361 133 267 188 q 567 78 456 78 q 770 133 676 78 q 919 282 864 188 q 975 488 975 376 q 919 692 975 599 q 770 839 864 785 q 567 893 676 893 m 786 1060 l 683 1060 l 572 1143 l 460 1060 l 357 1060 l 506 1185 l 638 1185 l 786 1060 m 675 1390 l 754 1338 l 558 1229 l 482 1253 l 675 1390 z "},"Ộ":{"ha":1131,"x_min":58,"x_max":1072,"o":"m 565 979 q 820 913 704 979 q 1004 735 936 847 q 1072 488 1072 622 q 1004 239 1072 353 q 820 58 936 125 q 565 -8 704 -8 q 310 58 426 -8 q 126 239 194 125 q 58 488 58 353 q 126 735 58 622 q 310 913 194 847 q 565 979 426 979 m 567 893 q 361 839 456 893 q 211 692 267 785 q 156 488 156 599 q 211 282 156 376 q 361 133 267 188 q 567 78 456 78 q 770 133 676 78 q 919 282 864 188 q 975 488 975 376 q 919 692 975 599 q 770 839 864 785 q 567 893 676 893 m 567 -106 q 613 -124 594 -106 q 631 -171 631 -143 q 612 -218 631 -199 q 567 -237 593 -237 q 520 -218 539 -237 q 501 -171 501 -199 q 520 -124 501 -143 q 567 -106 539 -106 m 760 1068 l 664 1068 l 567 1174 l 468 1068 l 372 1068 l 515 1242 l 618 1242 l 760 1068 z "},"Ồ":{"ha":1131,"x_min":58,"x_max":1072,"o":"m 565 979 q 820 913 704 979 q 1004 735 936 847 q 1072 488 1072 622 q 1004 239 1072 353 q 820 58 936 125 q 565 -8 704 -8 q 310 58 426 -8 q 126 239 194 125 q 58 488 58 353 q 126 735 58 622 q 310 913 194 847 q 565 979 426 979 m 567 893 q 361 839 456 893 q 211 692 267 785 q 156 488 156 599 q 211 282 156 376 q 361 133 267 188 q 567 78 456 78 q 770 133 676 78 q 919 282 864 188 q 975 488 975 376 q 919 692 975 599 q 770 839 864 785 q 567 893 676 893 m 781 1060 l 678 1060 l 567 1143 l 454 1060 l 351 1060 l 500 1185 l 632 1185 l 781 1060 m 460 1390 l 651 1253 l 576 1229 l 379 1338 l 460 1390 z "},"Ổ":{"ha":1131,"x_min":58,"x_max":1072,"o":"m 565 979 q 820 913 704 979 q 1004 735 936 847 q 1072 488 1072 622 q 1004 239 1072 353 q 820 58 936 125 q 565 -8 704 -8 q 310 58 426 -8 q 126 239 194 125 q 58 488 58 353 q 126 735 58 622 q 310 913 194 847 q 565 979 426 979 m 567 893 q 361 839 456 893 q 211 692 267 785 q 156 488 156 599 q 211 282 156 376 q 361 133 267 188 q 567 78 456 78 q 770 133 676 78 q 919 282 864 188 q 975 488 975 376 q 919 692 975 599 q 770 839 864 785 q 567 893 676 893 m 794 1060 l 692 1060 l 581 1143 l 468 1060 l 365 1060 l 514 1185 l 646 1185 l 794 1060 m 571 1438 q 648 1413 619 1438 q 676 1350 676 1389 q 653 1288 676 1319 q 590 1228 631 1256 l 538 1250 q 583 1292 567 1269 q 600 1335 600 1315 q 588 1364 600 1353 q 553 1375 575 1375 q 500 1360 525 1375 l 469 1406 q 571 1438 522 1438 z "},"Ỗ":{"ha":1131,"x_min":58,"x_max":1072,"o":"m 565 979 q 820 913 704 979 q 1004 735 936 847 q 1072 488 1072 622 q 1004 239 1072 353 q 820 58 936 125 q 565 -8 704 -8 q 310 58 426 -8 q 126 239 194 125 q 58 488 58 353 q 126 735 58 622 q 310 913 194 847 q 565 979 426 979 m 567 893 q 361 839 456 893 q 211 692 267 785 q 156 488 156 599 q 211 282 156 376 q 361 133 267 188 q 567 78 456 78 q 770 133 676 78 q 919 282 864 188 q 975 488 975 376 q 919 692 975 599 q 770 839 864 785 q 567 893 676 893 m 789 1060 l 686 1060 l 575 1143 l 463 1060 l 360 1060 l 508 1185 l 640 1185 l 789 1060 m 776 1368 q 749 1276 776 1311 q 669 1240 722 1240 q 617 1250 640 1240 q 561 1279 593 1260 q 520 1302 538 1294 q 486 1310 503 1310 q 444 1292 458 1310 q 431 1244 431 1275 l 372 1244 q 399 1338 372 1303 q 479 1374 426 1374 q 532 1364 508 1374 q 588 1335 556 1354 q 628 1312 611 1319 q 663 1304 646 1304 q 704 1322 690 1304 q 718 1368 718 1339 l 776 1368 z "},"Ȍ":{"ha":1131,"x_min":58,"x_max":1072,"o":"m 565 979 q 820 913 704 979 q 1004 735 936 847 q 1072 488 1072 622 q 1004 239 1072 353 q 820 58 936 125 q 565 -8 704 -8 q 310 58 426 -8 q 126 239 194 125 q 58 488 58 353 q 126 735 58 622 q 310 913 194 847 q 565 979 426 979 m 567 893 q 361 839 456 893 q 211 692 267 785 q 156 488 156 599 q 211 282 156 376 q 361 133 267 188 q 567 78 456 78 q 770 133 676 78 q 919 282 864 188 q 975 488 975 376 q 919 692 975 599 q 770 839 864 785 q 567 893 676 893 m 399 1251 l 522 1075 l 447 1065 l 318 1213 l 399 1251 m 596 1251 l 719 1075 l 644 1065 l 515 1213 l 596 1251 z "},"Ö":{"ha":1131,"x_min":58,"x_max":1072,"o":"m 565 979 q 820 913 704 979 q 1004 735 936 847 q 1072 488 1072 622 q 1004 239 1072 353 q 820 58 936 125 q 565 -8 704 -8 q 310 58 426 -8 q 126 239 194 125 q 58 488 58 353 q 126 735 58 622 q 310 913 194 847 q 565 979 426 979 m 567 893 q 361 839 456 893 q 211 692 267 785 q 156 488 156 599 q 211 282 156 376 q 361 133 267 188 q 567 78 456 78 q 770 133 676 78 q 919 282 864 188 q 975 488 975 376 q 919 692 975 599 q 770 839 864 785 q 567 893 676 893 m 453 1188 q 495 1170 478 1188 q 513 1126 513 1153 q 495 1083 513 1101 q 453 1065 478 1065 q 409 1083 426 1065 q 392 1126 392 1101 q 409 1170 392 1153 q 453 1188 426 1188 m 682 1188 q 724 1170 707 1188 q 742 1126 742 1153 q 724 1083 742 1101 q 682 1065 707 1065 q 638 1083 656 1065 q 621 1126 621 1101 q 638 1170 621 1153 q 682 1188 656 1188 z "},"Ȫ":{"ha":1131,"x_min":58,"x_max":1072,"o":"m 565 979 q 820 913 704 979 q 1004 735 936 847 q 1072 488 1072 622 q 1004 239 1072 353 q 820 58 936 125 q 565 -8 704 -8 q 310 58 426 -8 q 126 239 194 125 q 58 488 58 353 q 126 735 58 622 q 310 913 194 847 q 565 979 426 979 m 567 893 q 361 839 456 893 q 211 692 267 785 q 156 488 156 599 q 211 282 156 376 q 361 133 267 188 q 567 78 456 78 q 770 133 676 78 q 919 282 864 188 q 975 488 975 376 q 919 692 975 599 q 770 839 864 785 q 567 893 676 893 z "},"Ȱ":{"ha":1131,"x_min":58,"x_max":1072,"o":"m 565 979 q 820 913 704 979 q 1004 735 936 847 q 1072 488 1072 622 q 1004 239 1072 353 q 820 58 936 125 q 565 -8 704 -8 q 310 58 426 -8 q 126 239 194 125 q 58 488 58 353 q 126 735 58 622 q 310 913 194 847 q 565 979 426 979 m 567 893 q 361 839 456 893 q 211 692 267 785 q 156 488 156 599 q 211 282 156 376 q 361 133 267 188 q 567 78 456 78 q 770 133 676 78 q 919 282 864 188 q 975 488 975 376 q 919 692 975 599 q 770 839 864 785 q 567 893 676 893 z "},"Ọ":{"ha":1131,"x_min":58,"x_max":1072,"o":"m 565 979 q 820 913 704 979 q 1004 735 936 847 q 1072 488 1072 622 q 1004 239 1072 353 q 820 58 936 125 q 565 -8 704 -8 q 310 58 426 -8 q 126 239 194 125 q 58 488 58 353 q 126 735 58 622 q 310 913 194 847 q 565 979 426 979 m 567 893 q 361 839 456 893 q 211 692 267 785 q 156 488 156 599 q 211 282 156 376 q 361 133 267 188 q 567 78 456 78 q 770 133 676 78 q 919 282 864 188 q 975 488 975 376 q 919 692 975 599 q 770 839 864 785 q 567 893 676 893 m 567 -106 q 613 -124 594 -106 q 631 -171 631 -143 q 612 -218 631 -199 q 567 -237 593 -237 q 520 -218 539 -237 q 501 -171 501 -199 q 520 -124 501 -143 q 567 -106 539 -106 z "},"Ò":{"ha":1131,"x_min":58,"x_max":1072,"o":"m 565 979 q 820 913 704 979 q 1004 735 936 847 q 1072 488 1072 622 q 1004 239 1072 353 q 820 58 936 125 q 565 -8 704 -8 q 310 58 426 -8 q 126 239 194 125 q 58 488 58 353 q 126 735 58 622 q 310 913 194 847 q 565 979 426 979 m 567 893 q 361 839 456 893 q 211 692 267 785 q 156 488 156 599 q 211 282 156 376 q 361 133 267 188 q 567 78 456 78 q 770 133 676 78 q 919 282 864 188 q 975 488 975 376 q 919 692 975 599 q 770 839 864 785 q 567 893 676 893 m 469 1246 l 632 1075 l 549 1065 l 374 1204 l 469 1246 z "},"Ỏ":{"ha":1131,"x_min":58,"x_max":1072,"o":"m 565 979 q 820 913 704 979 q 1004 735 936 847 q 1072 488 1072 622 q 1004 239 1072 353 q 820 58 936 125 q 565 -8 704 -8 q 310 58 426 -8 q 126 239 194 125 q 58 488 58 353 q 126 735 58 622 q 310 913 194 847 q 565 979 426 979 m 567 893 q 361 839 456 893 q 211 692 267 785 q 156 488 156 599 q 211 282 156 376 q 361 133 267 188 q 567 78 456 78 q 770 133 676 78 q 919 282 864 188 q 975 488 975 376 q 919 692 975 599 q 770 839 864 785 q 567 893 676 893 m 556 1301 q 643 1273 610 1301 q 676 1196 676 1244 q 651 1117 676 1158 q 586 1043 626 1076 l 529 1068 q 578 1124 560 1093 q 596 1182 596 1156 q 580 1219 596 1204 q 539 1235 564 1235 q 478 1214 508 1235 l 444 1267 q 556 1301 496 1301 z "},"Ơ":{"ha":1167,"x_min":58,"x_max":1072,"o":"m 896 861 q 1026 695 979 792 q 1072 488 1072 599 q 1004 239 1072 353 q 820 58 936 125 q 565 -8 704 -8 q 310 58 426 -8 q 126 239 194 125 q 58 488 58 353 q 126 735 58 622 q 310 913 194 847 q 565 979 426 979 q 789 929 685 979 q 849 919 822 919 q 921 951 894 919 q 947 1028 947 982 q 918 1118 947 1076 l 997 1147 q 1031 1032 1031 1089 q 994 922 1031 969 q 896 861 957 875 m 567 78 q 770 133 676 78 q 919 282 864 188 q 975 488 975 376 q 919 692 975 599 q 770 839 864 785 q 567 893 676 893 q 361 839 456 893 q 211 692 267 785 q 156 488 156 599 q 211 282 156 376 q 361 133 267 188 q 567 78 456 78 z "},"Ớ":{"ha":1167,"x_min":58,"x_max":1072,"o":"m 896 861 q 1026 695 979 792 q 1072 488 1072 599 q 1004 239 1072 353 q 820 58 936 125 q 565 -8 704 -8 q 310 58 426 -8 q 126 239 194 125 q 58 488 58 353 q 126 735 58 622 q 310 913 194 847 q 565 979 426 979 q 789 929 685 979 q 849 919 822 919 q 921 951 894 919 q 947 1028 947 982 q 918 1118 947 1076 l 997 1147 q 1031 1032 1031 1089 q 994 922 1031 969 q 896 861 957 875 m 567 78 q 770 133 676 78 q 919 282 864 188 q 975 488 975 376 q 919 692 975 599 q 770 839 864 785 q 567 893 676 893 q 361 839 456 893 q 211 692 267 785 q 156 488 156 599 q 211 282 156 376 q 361 133 267 188 q 567 78 456 78 m 668 1246 l 764 1204 l 589 1065 l 506 1075 l 668 1246 z "},"Ợ":{"ha":1167,"x_min":58,"x_max":1072,"o":"m 896 861 q 1026 695 979 792 q 1072 488 1072 599 q 1004 239 1072 353 q 820 58 936 125 q 565 -8 704 -8 q 310 58 426 -8 q 126 239 194 125 q 58 488 58 353 q 126 735 58 622 q 310 913 194 847 q 565 979 426 979 q 789 929 685 979 q 849 919 822 919 q 921 951 894 919 q 947 1028 947 982 q 918 1118 947 1076 l 997 1147 q 1031 1032 1031 1089 q 994 922 1031 969 q 896 861 957 875 m 567 78 q 770 133 676 78 q 919 282 864 188 q 975 488 975 376 q 919 692 975 599 q 770 839 864 785 q 567 893 676 893 q 361 839 456 893 q 211 692 267 785 q 156 488 156 599 q 211 282 156 376 q 361 133 267 188 q 567 78 456 78 m 567 -106 q 613 -124 594 -106 q 631 -171 631 -143 q 612 -218 631 -199 q 567 -237 593 -237 q 520 -218 539 -237 q 501 -171 501 -199 q 520 -124 501 -143 q 567 -106 539 -106 z "},"Ờ":{"ha":1167,"x_min":58,"x_max":1072,"o":"m 896 861 q 1026 695 979 792 q 1072 488 1072 599 q 1004 239 1072 353 q 820 58 936 125 q 565 -8 704 -8 q 310 58 426 -8 q 126 239 194 125 q 58 488 58 353 q 126 735 58 622 q 310 913 194 847 q 565 979 426 979 q 789 929 685 979 q 849 919 822 919 q 921 951 894 919 q 947 1028 947 982 q 918 1118 947 1076 l 997 1147 q 1031 1032 1031 1089 q 994 922 1031 969 q 896 861 957 875 m 567 78 q 770 133 676 78 q 919 282 864 188 q 975 488 975 376 q 919 692 975 599 q 770 839 864 785 q 567 893 676 893 q 361 839 456 893 q 211 692 267 785 q 156 488 156 599 q 211 282 156 376 q 361 133 267 188 q 567 78 456 78 m 469 1246 l 632 1075 l 549 1065 l 374 1204 l 469 1246 z "},"Ở":{"ha":1167,"x_min":58,"x_max":1072,"o":"m 896 861 q 1026 695 979 792 q 1072 488 1072 599 q 1004 239 1072 353 q 820 58 936 125 q 565 -8 704 -8 q 310 58 426 -8 q 126 239 194 125 q 58 488 58 353 q 126 735 58 622 q 310 913 194 847 q 565 979 426 979 q 789 929 685 979 q 849 919 822 919 q 921 951 894 919 q 947 1028 947 982 q 918 1118 947 1076 l 997 1147 q 1031 1032 1031 1089 q 994 922 1031 969 q 896 861 957 875 m 567 78 q 770 133 676 78 q 919 282 864 188 q 975 488 975 376 q 919 692 975 599 q 770 839 864 785 q 567 893 676 893 q 361 839 456 893 q 211 692 267 785 q 156 488 156 599 q 211 282 156 376 q 361 133 267 188 q 567 78 456 78 m 556 1301 q 643 1273 610 1301 q 676 1196 676 1244 q 651 1117 676 1158 q 586 1043 626 1076 l 529 1068 q 578 1124 560 1093 q 596 1182 596 1156 q 580 1219 596 1204 q 539 1235 564 1235 q 478 1214 508 1235 l 444 1267 q 556 1301 496 1301 z "},"Ỡ":{"ha":1167,"x_min":58,"x_max":1072,"o":"m 896 861 q 1026 695 979 792 q 1072 488 1072 599 q 1004 239 1072 353 q 820 58 936 125 q 565 -8 704 -8 q 310 58 426 -8 q 126 239 194 125 q 58 488 58 353 q 126 735 58 622 q 310 913 194 847 q 565 979 426 979 q 789 929 685 979 q 849 919 822 919 q 921 951 894 919 q 947 1028 947 982 q 918 1118 947 1076 l 997 1147 q 1031 1032 1031 1089 q 994 922 1031 969 q 896 861 957 875 m 567 78 q 770 133 676 78 q 919 282 864 188 q 975 488 975 376 q 919 692 975 599 q 770 839 864 785 q 567 893 676 893 q 361 839 456 893 q 211 692 267 785 q 156 488 156 599 q 211 282 156 376 q 361 133 267 188 q 567 78 456 78 m 769 1215 q 742 1108 769 1150 q 661 1067 715 1067 q 609 1078 632 1067 q 556 1111 586 1090 q 513 1138 528 1131 q 482 1146 499 1146 q 442 1126 456 1146 q 429 1072 429 1107 l 361 1072 q 388 1179 361 1138 q 469 1221 415 1221 q 522 1209 499 1221 q 575 1175 546 1197 q 617 1148 603 1156 q 649 1140 632 1140 q 701 1215 701 1140 l 769 1215 z "},"Ő":{"ha":1131,"x_min":58,"x_max":1072,"o":"m 565 979 q 820 913 704 979 q 1004 735 936 847 q 1072 488 1072 622 q 1004 239 1072 353 q 820 58 936 125 q 565 -8 704 -8 q 310 58 426 -8 q 126 239 194 125 q 58 488 58 353 q 126 735 58 622 q 310 913 194 847 q 565 979 426 979 m 567 893 q 361 839 456 893 q 211 692 267 785 q 156 488 156 599 q 211 282 156 376 q 361 133 267 188 q 567 78 456 78 q 770 133 676 78 q 919 282 864 188 q 975 488 975 376 q 919 692 975 599 q 770 839 864 785 q 567 893 676 893 m 528 1251 l 608 1213 l 479 1065 l 406 1075 l 528 1251 m 725 1251 l 806 1213 l 676 1065 l 603 1075 l 725 1251 z "},"Ȏ":{"ha":1131,"x_min":58,"x_max":1072,"o":"m 565 979 q 820 913 704 979 q 1004 735 936 847 q 1072 488 1072 622 q 1004 239 1072 353 q 820 58 936 125 q 565 -8 704 -8 q 310 58 426 -8 q 126 239 194 125 q 58 488 58 353 q 126 735 58 622 q 310 913 194 847 q 565 979 426 979 m 567 893 q 361 839 456 893 q 211 692 267 785 q 156 488 156 599 q 211 282 156 376 q 361 133 267 188 q 567 78 456 78 q 770 133 676 78 q 919 282 864 188 q 975 488 975 376 q 919 692 975 599 q 770 839 864 785 q 567 893 676 893 m 394 1069 q 446 1192 397 1144 q 565 1240 494 1240 q 686 1192 638 1240 q 736 1069 735 1144 l 668 1069 q 637 1145 665 1115 q 565 1175 608 1175 q 494 1145 522 1175 q 463 1069 465 1115 l 394 1069 z "},"Ō":{"ha":1131,"x_min":58,"x_max":1072,"o":"m 565 979 q 820 913 704 979 q 1004 735 936 847 q 1072 488 1072 622 q 1004 239 1072 353 q 820 58 936 125 q 565 -8 704 -8 q 310 58 426 -8 q 126 239 194 125 q 58 488 58 353 q 126 735 58 622 q 310 913 194 847 q 565 979 426 979 m 567 893 q 361 839 456 893 q 211 692 267 785 q 156 488 156 599 q 211 282 156 376 q 361 133 267 188 q 567 78 456 78 q 770 133 676 78 q 919 282 864 188 q 975 488 975 376 q 919 692 975 599 q 770 839 864 785 q 567 893 676 893 m 349 1140 l 782 1140 l 782 1076 l 349 1076 l 349 1140 z "},"Ṓ":{"ha":1131,"x_min":58,"x_max":1072,"o":"m 565 979 q 820 913 704 979 q 1004 735 936 847 q 1072 488 1072 622 q 1004 239 1072 353 q 820 58 936 125 q 565 -8 704 -8 q 310 58 426 -8 q 126 239 194 125 q 58 488 58 353 q 126 735 58 622 q 310 913 194 847 q 565 979 426 979 m 567 893 q 361 839 456 893 q 211 692 267 785 q 156 488 156 599 q 211 282 156 376 q 361 133 267 188 q 567 78 456 78 q 770 133 676 78 q 919 282 864 188 q 975 488 975 376 q 919 692 975 599 q 770 839 864 785 q 567 893 676 893 m 393 1135 l 721 1135 l 721 1071 l 393 1071 l 393 1135 m 660 1368 l 739 1315 l 543 1207 l 467 1231 l 660 1368 z "},"Ṑ":{"ha":1131,"x_min":58,"x_max":1072,"o":"m 565 979 q 820 913 704 979 q 1004 735 936 847 q 1072 488 1072 622 q 1004 239 1072 353 q 820 58 936 125 q 565 -8 704 -8 q 310 58 426 -8 q 126 239 194 125 q 58 488 58 353 q 126 735 58 622 q 310 913 194 847 q 565 979 426 979 m 567 893 q 361 839 456 893 q 211 692 267 785 q 156 488 156 599 q 211 282 156 376 q 361 133 267 188 q 567 78 456 78 q 770 133 676 78 q 919 282 864 188 q 975 488 975 376 q 919 692 975 599 q 770 839 864 785 q 567 893 676 893 m 414 1135 l 742 1135 l 742 1071 l 414 1071 l 414 1135 m 471 1368 l 663 1231 l 588 1207 l 390 1315 l 471 1368 z "},"Ǫ":{"ha":1131,"x_min":58,"x_max":1072,"o":"m 819 57 q 714 -60 753 0 q 675 -167 675 -121 q 690 -211 675 -196 q 729 -226 704 -226 q 793 -207 763 -226 l 818 -269 q 711 -299 765 -299 q 621 -265 654 -299 q 588 -175 588 -232 q 676 4 588 -90 q 565 -8 625 -8 q 310 58 426 -8 q 126 239 194 125 q 58 488 58 353 q 126 735 58 622 q 310 913 194 847 q 565 979 426 979 q 820 913 704 979 q 1004 735 936 847 q 1072 488 1072 622 q 1003 237 1072 351 q 819 57 935 122 m 156 488 q 211 282 156 376 q 361 133 267 188 q 567 78 456 78 q 770 133 676 78 q 919 282 864 188 q 975 488 975 376 q 919 692 975 599 q 770 839 864 785 q 567 893 676 893 q 361 839 456 893 q 211 692 267 785 q 156 488 156 599 z "},"Ø":{"ha":1131,"x_min":58,"x_max":1072,"o":"m 878 871 q 1021 703 969 803 q 1072 486 1072 603 q 1004 240 1072 353 q 820 62 936 128 q 565 -4 704 -4 q 310 63 426 -4 l 213 -76 l 129 -76 l 253 99 q 110 269 161 168 q 58 486 58 369 q 126 731 58 619 q 310 908 194 843 q 565 974 426 974 q 819 908 704 974 l 918 1049 l 1003 1049 l 878 871 m 156 486 q 196 313 156 394 q 306 175 236 231 l 768 835 q 567 888 674 888 q 361 834 456 888 q 211 688 267 781 q 156 486 156 596 m 567 82 q 770 136 676 82 q 919 283 864 190 q 975 486 975 376 q 935 660 975 579 q 825 796 894 740 l 361 136 q 567 82 457 82 z "},"Ǿ":{"ha":1131,"x_min":58,"x_max":1072,"o":"m 878 871 q 1021 703 969 803 q 1072 486 1072 603 q 1004 240 1072 353 q 820 62 936 128 q 565 -4 704 -4 q 310 63 426 -4 l 213 -76 l 129 -76 l 253 99 q 110 269 161 168 q 58 486 58 369 q 126 731 58 619 q 310 908 194 843 q 565 974 426 974 q 819 908 704 974 l 918 1049 l 1003 1049 l 878 871 m 156 486 q 196 313 156 394 q 306 175 236 231 l 768 835 q 567 888 674 888 q 361 834 456 888 q 211 688 267 781 q 156 486 156 596 m 567 82 q 770 136 676 82 q 919 283 864 190 q 975 486 975 376 q 935 660 975 579 q 825 796 894 740 l 361 136 q 567 82 457 82 m 669 1246 l 765 1204 l 590 1065 l 507 1075 l 669 1246 z "},"Õ":{"ha":1131,"x_min":58,"x_max":1072,"o":"m 565 979 q 820 913 704 979 q 1004 735 936 847 q 1072 488 1072 622 q 1004 239 1072 353 q 820 58 936 125 q 565 -8 704 -8 q 310 58 426 -8 q 126 239 194 125 q 58 488 58 353 q 126 735 58 622 q 310 913 194 847 q 565 979 426 979 m 567 893 q 361 839 456 893 q 211 692 267 785 q 156 488 156 599 q 211 282 156 376 q 361 133 267 188 q 567 78 456 78 q 770 133 676 78 q 919 282 864 188 q 975 488 975 376 q 919 692 975 599 q 770 839 864 785 q 567 893 676 893 m 769 1215 q 742 1108 769 1150 q 661 1067 715 1067 q 609 1078 632 1067 q 556 1111 586 1090 q 513 1138 528 1131 q 482 1146 499 1146 q 442 1126 456 1146 q 429 1072 429 1107 l 361 1072 q 388 1179 361 1138 q 469 1221 415 1221 q 522 1209 499 1221 q 575 1175 546 1197 q 617 1148 603 1156 q 649 1140 632 1140 q 701 1215 701 1140 l 769 1215 z "},"Ṍ":{"ha":1131,"x_min":58,"x_max":1072,"o":"m 565 979 q 820 913 704 979 q 1004 735 936 847 q 1072 488 1072 622 q 1004 239 1072 353 q 820 58 936 125 q 565 -8 704 -8 q 310 58 426 -8 q 126 239 194 125 q 58 488 58 353 q 126 735 58 622 q 310 913 194 847 q 565 979 426 979 m 567 893 q 361 839 456 893 q 211 692 267 785 q 156 488 156 599 q 211 282 156 376 q 361 133 267 188 q 567 78 456 78 q 770 133 676 78 q 919 282 864 188 q 975 488 975 376 q 919 692 975 599 q 770 839 864 785 q 567 893 676 893 z "},"Ṏ":{"ha":1131,"x_min":58,"x_max":1072,"o":"m 565 979 q 820 913 704 979 q 1004 735 936 847 q 1072 488 1072 622 q 1004 239 1072 353 q 820 58 936 125 q 565 -8 704 -8 q 310 58 426 -8 q 126 239 194 125 q 58 488 58 353 q 126 735 58 622 q 310 913 194 847 q 565 979 426 979 m 567 893 q 361 839 456 893 q 211 692 267 785 q 156 488 156 599 q 211 282 156 376 q 361 133 267 188 q 567 78 456 78 q 770 133 676 78 q 919 282 864 188 q 975 488 975 376 q 919 692 975 599 q 770 839 864 785 q 567 893 676 893 z "},"Ȭ":{"ha":1131,"x_min":58,"x_max":1072,"o":"m 565 979 q 820 913 704 979 q 1004 735 936 847 q 1072 488 1072 622 q 1004 239 1072 353 q 820 58 936 125 q 565 -8 704 -8 q 310 58 426 -8 q 126 239 194 125 q 58 488 58 353 q 126 735 58 622 q 310 913 194 847 q 565 979 426 979 m 567 893 q 361 839 456 893 q 211 692 267 785 q 156 488 156 599 q 211 282 156 376 q 361 133 267 188 q 567 78 456 78 q 770 133 676 78 q 919 282 864 188 q 975 488 975 376 q 919 692 975 599 q 770 839 864 785 q 567 893 676 893 z "},"Œ":{"ha":1518,"x_min":58,"x_max":1438,"o":"m 1438 86 l 1438 0 l 565 0 q 310 65 426 0 q 126 241 194 129 q 58 486 58 353 q 126 730 58 618 q 310 907 194 842 q 565 972 426 972 l 1419 972 l 1419 885 l 864 885 l 864 538 l 1360 538 l 1360 451 l 864 451 l 864 86 l 1438 86 m 768 83 l 768 886 l 565 886 q 359 833 453 886 q 210 688 265 779 q 156 485 156 596 q 210 283 156 375 q 359 138 265 192 q 565 85 453 85 l 768 83 z "},"P":{"ha":928,"x_min":153,"x_max":889,"o":"m 511 971 q 790 887 692 971 q 889 649 889 803 q 790 401 889 489 q 511 314 692 314 l 249 314 l 249 0 l 153 0 l 153 971 l 511 971 m 507 400 q 722 463 646 400 q 797 646 797 526 q 722 824 797 763 q 507 885 647 885 l 249 885 l 249 400 l 507 400 z "},"Þ":{"ha":931,"x_min":153,"x_max":893,"o":"m 481 825 q 788 745 683 825 q 893 510 893 665 q 788 267 893 350 q 481 183 682 183 l 249 183 l 249 0 l 153 0 l 153 971 l 249 971 l 249 825 l 481 825 m 478 264 q 794 507 794 264 q 478 744 794 744 l 249 744 l 249 264 l 478 264 z "},"Q":{"ha":1131,"x_min":58,"x_max":1072,"o":"m 1072 488 q 1010 249 1072 358 q 842 71 949 139 q 606 -7 735 3 l 606 -181 l 525 -181 l 525 -7 q 289 71 396 3 q 120 249 182 139 q 58 488 58 358 q 126 735 58 622 q 310 913 194 847 q 565 979 426 979 q 820 913 704 979 q 1004 735 936 847 q 1072 488 1072 622 m 606 79 q 792 147 707 89 q 926 294 876 204 q 975 488 975 383 q 919 692 975 599 q 770 839 864 785 q 567 893 676 893 q 361 839 456 893 q 211 692 267 785 q 156 488 156 599 q 205 294 156 383 q 339 147 254 204 q 525 81 424 90 l 525 342 l 606 342 l 606 79 z "},"R":{"ha":1004,"x_min":153,"x_max":904,"o":"m 793 0 l 583 317 q 515 314 539 314 l 249 314 l 249 0 l 153 0 l 153 971 l 515 971 q 797 887 697 971 q 896 649 896 803 q 838 447 896 528 q 671 335 779 367 l 904 0 l 793 0 m 515 400 q 729 463 654 400 q 804 646 804 526 q 729 824 804 763 q 515 885 654 885 l 249 885 l 249 400 l 515 400 z "},"Ŕ":{"ha":1004,"x_min":153,"x_max":904,"o":"m 793 0 l 583 317 q 515 314 539 314 l 249 314 l 249 0 l 153 0 l 153 971 l 515 971 q 797 887 697 971 q 896 649 896 803 q 838 447 896 528 q 671 335 779 367 l 904 0 l 793 0 m 515 400 q 729 463 654 400 q 804 646 804 526 q 729 824 804 763 q 515 885 654 885 l 249 885 l 249 400 l 515 400 m 579 1246 l 675 1204 l 500 1065 l 417 1075 l 579 1246 z "},"Ř":{"ha":1004,"x_min":153,"x_max":904,"o":"m 793 0 l 583 317 q 515 314 539 314 l 249 314 l 249 0 l 153 0 l 153 971 l 515 971 q 797 887 697 971 q 896 649 896 803 q 838 447 896 528 q 671 335 779 367 l 904 0 l 793 0 m 515 400 q 729 463 654 400 q 804 646 804 526 q 729 824 804 763 q 515 885 654 885 l 249 885 l 249 400 l 515 400 m 554 1242 l 650 1242 l 507 1068 l 404 1068 l 263 1242 l 358 1242 l 456 1136 l 554 1242 z "},"Ŗ":{"ha":1004,"x_min":153,"x_max":904,"o":"m 793 0 l 583 317 q 515 314 539 314 l 249 314 l 249 0 l 153 0 l 153 971 l 515 971 q 797 887 697 971 q 896 649 896 803 q 838 447 896 528 q 671 335 779 367 l 904 0 l 793 0 m 515 400 q 729 463 654 400 q 804 646 804 526 q 729 824 804 763 q 515 885 654 885 l 249 885 l 249 400 l 515 400 m 458 -85 l 547 -85 l 476 -301 l 407 -301 l 458 -85 z "},"Ȑ":{"ha":1004,"x_min":153,"x_max":904,"o":"m 793 0 l 583 317 q 515 314 539 314 l 249 314 l 249 0 l 153 0 l 153 971 l 515 971 q 797 887 697 971 q 896 649 896 803 q 838 447 896 528 q 671 335 779 367 l 904 0 l 793 0 m 515 400 q 729 463 654 400 q 804 646 804 526 q 729 824 804 763 q 515 885 654 885 l 249 885 l 249 400 l 515 400 m 310 1251 l 433 1075 l 358 1065 l 229 1213 l 310 1251 m 507 1251 l 631 1075 l 556 1065 l 426 1213 l 507 1251 z "},"Ṛ":{"ha":1004,"x_min":153,"x_max":904,"o":"m 793 0 l 583 317 q 515 314 539 314 l 249 314 l 249 0 l 153 0 l 153 971 l 515 971 q 797 887 697 971 q 896 649 896 803 q 838 447 896 528 q 671 335 779 367 l 904 0 l 793 0 m 515 400 q 729 463 654 400 q 804 646 804 526 q 729 824 804 763 q 515 885 654 885 l 249 885 l 249 400 l 515 400 m 503 -106 q 549 -124 531 -106 q 567 -171 567 -143 q 548 -218 567 -199 q 503 -237 529 -237 q 456 -218 475 -237 q 438 -171 438 -199 q 456 -124 438 -143 q 503 -106 475 -106 z "},"Ȓ":{"ha":1004,"x_min":153,"x_max":904,"o":"m 793 0 l 583 317 q 515 314 539 314 l 249 314 l 249 0 l 153 0 l 153 971 l 515 971 q 797 887 697 971 q 896 649 896 803 q 838 447 896 528 q 671 335 779 367 l 904 0 l 793 0 m 515 400 q 729 463 654 400 q 804 646 804 526 q 729 824 804 763 q 515 885 654 885 l 249 885 l 249 400 l 515 400 m 306 1069 q 357 1192 308 1144 q 476 1240 406 1240 q 597 1192 549 1240 q 647 1069 646 1144 l 579 1069 q 548 1145 576 1115 q 476 1175 519 1175 q 405 1145 433 1175 q 374 1069 376 1115 l 306 1069 z "},"Ṟ":{"ha":1004,"x_min":153,"x_max":904,"o":"m 793 0 l 583 317 q 515 314 539 314 l 249 314 l 249 0 l 153 0 l 153 971 l 515 971 q 797 887 697 971 q 896 649 896 803 q 838 447 896 528 q 671 335 779 367 l 904 0 l 793 0 m 515 400 q 729 463 654 400 q 804 646 804 526 q 729 824 804 763 q 515 885 654 885 l 249 885 l 249 400 l 515 400 m 310 -119 l 693 -119 l 693 -183 l 310 -183 l 310 -119 z "},"S":{"ha":844,"x_min":47,"x_max":760,"o":"m 692 813 q 561 870 632 850 q 428 890 490 890 q 267 851 328 890 q 207 743 207 811 q 240 646 207 683 q 322 587 274 608 q 456 539 371 565 q 615 481 554 510 q 717 399 675 453 q 760 256 760 344 q 716 118 760 178 q 593 26 672 58 q 411 -7 514 -7 q 213 33 310 -7 q 47 140 117 74 l 92 219 q 243 119 157 156 q 413 83 329 83 q 589 128 524 83 q 654 250 654 174 q 621 350 654 311 q 539 410 588 389 q 403 458 490 431 q 244 516 304 489 q 143 597 185 543 q 101 736 101 650 q 143 865 101 810 q 260 951 185 921 q 433 981 335 981 q 592 957 513 981 q 733 894 672 933 l 692 813 z "},"Ś":{"ha":844,"x_min":47,"x_max":760,"o":"m 692 813 q 561 870 632 850 q 428 890 490 890 q 267 851 328 890 q 207 743 207 811 q 240 646 207 683 q 322 587 274 608 q 456 539 371 565 q 615 481 554 510 q 717 399 675 453 q 760 256 760 344 q 716 118 760 178 q 593 26 672 58 q 411 -7 514 -7 q 213 33 310 -7 q 47 140 117 74 l 92 219 q 243 119 157 156 q 413 83 329 83 q 589 128 524 83 q 654 250 654 174 q 621 350 654 311 q 539 410 588 389 q 403 458 490 431 q 244 516 304 489 q 143 597 185 543 q 101 736 101 650 q 143 865 101 810 q 260 951 185 921 q 433 981 335 981 q 592 957 513 981 q 733 894 672 933 l 692 813 m 524 1246 l 619 1204 l 444 1065 l 361 1075 l 524 1246 z "},"Ṥ":{"ha":844,"x_min":47,"x_max":760,"o":"m 692 813 q 561 870 632 850 q 428 890 490 890 q 267 851 328 890 q 207 743 207 811 q 240 646 207 683 q 322 587 274 608 q 456 539 371 565 q 615 481 554 510 q 717 399 675 453 q 760 256 760 344 q 716 118 760 178 q 593 26 672 58 q 411 -7 514 -7 q 213 33 310 -7 q 47 140 117 74 l 92 219 q 243 119 157 156 q 413 83 329 83 q 589 128 524 83 q 654 250 654 174 q 621 350 654 311 q 539 410 588 389 q 403 458 490 431 q 244 516 304 489 q 143 597 185 543 q 101 736 101 650 q 143 865 101 810 q 260 951 185 921 q 433 981 335 981 q 592 957 513 981 q 733 894 672 933 l 692 813 z "},"Ꞌ":{"ha":331,"x_min":118,"x_max":214,"o":"m 118 972 l 214 972 l 204 417 l 118 417 l 118 972 z "},"Š":{"ha":844,"x_min":47,"x_max":760,"o":"m 692 813 q 561 870 632 850 q 428 890 490 890 q 267 851 328 890 q 207 743 207 811 q 240 646 207 683 q 322 587 274 608 q 456 539 371 565 q 615 481 554 510 q 717 399 675 453 q 760 256 760 344 q 716 118 760 178 q 593 26 672 58 q 411 -7 514 -7 q 213 33 310 -7 q 47 140 117 74 l 92 219 q 243 119 157 156 q 413 83 329 83 q 589 128 524 83 q 654 250 654 174 q 621 350 654 311 q 539 410 588 389 q 403 458 490 431 q 244 516 304 489 q 143 597 185 543 q 101 736 101 650 q 143 865 101 810 q 260 951 185 921 q 433 981 335 981 q 592 957 513 981 q 733 894 672 933 l 692 813 m 499 1242 l 594 1242 l 451 1068 l 349 1068 l 207 1242 l 303 1242 l 400 1136 l 499 1242 z "},"Ṧ":{"ha":844,"x_min":47,"x_max":760,"o":"m 692 813 q 561 870 632 850 q 428 890 490 890 q 267 851 328 890 q 207 743 207 811 q 240 646 207 683 q 322 587 274 608 q 456 539 371 565 q 615 481 554 510 q 717 399 675 453 q 760 256 760 344 q 716 118 760 178 q 593 26 672 58 q 411 -7 514 -7 q 213 33 310 -7 q 47 140 117 74 l 92 219 q 243 119 157 156 q 413 83 329 83 q 589 128 524 83 q 654 250 654 174 q 621 350 654 311 q 539 410 588 389 q 403 458 490 431 q 244 516 304 489 q 143 597 185 543 q 101 736 101 650 q 143 865 101 810 q 260 951 185 921 q 433 981 335 981 q 592 957 513 981 q 733 894 672 933 l 692 813 z "},"Ş":{"ha":844,"x_min":47,"x_max":760,"o":"m 207 743 q 240 646 207 683 q 322 587 274 608 q 456 539 371 565 q 615 481 554 510 q 717 399 675 453 q 760 256 760 344 q 682 81 760 150 q 472 -4 604 11 l 450 -74 q 534 -110 506 -79 q 563 -181 563 -140 q 523 -267 563 -233 q 419 -300 483 -300 q 358 -292 390 -300 q 301 -269 326 -283 l 324 -210 q 365 -226 342 -219 q 410 -232 389 -232 q 466 -214 446 -232 q 486 -172 486 -196 q 466 -134 486 -150 q 411 -118 446 -118 l 369 -118 l 403 -7 q 209 35 303 -6 q 47 140 115 75 l 92 219 q 243 119 157 156 q 413 83 329 83 q 589 128 524 83 q 654 250 654 174 q 621 350 654 311 q 539 410 588 389 q 403 458 490 431 q 244 516 304 489 q 143 597 185 543 q 101 736 101 650 q 143 865 101 810 q 260 951 185 921 q 433 981 335 981 q 592 957 513 981 q 733 894 672 933 l 692 813 q 561 870 632 850 q 428 890 490 890 q 267 851 328 890 q 207 743 207 811 z "},"Ŝ":{"ha":844,"x_min":47,"x_max":760,"o":"m 692 813 q 561 870 632 850 q 428 890 490 890 q 267 851 328 890 q 207 743 207 811 q 240 646 207 683 q 322 587 274 608 q 456 539 371 565 q 615 481 554 510 q 717 399 675 453 q 760 256 760 344 q 716 118 760 178 q 593 26 672 58 q 411 -7 514 -7 q 213 33 310 -7 q 47 140 117 74 l 92 219 q 243 119 157 156 q 413 83 329 83 q 589 128 524 83 q 654 250 654 174 q 621 350 654 311 q 539 410 588 389 q 403 458 490 431 q 244 516 304 489 q 143 597 185 543 q 101 736 101 650 q 143 865 101 810 q 260 951 185 921 q 433 981 335 981 q 592 957 513 981 q 733 894 672 933 l 692 813 m 615 1068 l 519 1068 l 422 1174 l 324 1068 l 228 1068 l 371 1242 l 474 1242 l 615 1068 z "},"Ș":{"ha":844,"x_min":47,"x_max":760,"o":"m 692 813 q 561 870 632 850 q 428 890 490 890 q 267 851 328 890 q 207 743 207 811 q 240 646 207 683 q 322 587 274 608 q 456 539 371 565 q 615 481 554 510 q 717 399 675 453 q 760 256 760 344 q 716 118 760 178 q 593 26 672 58 q 411 -7 514 -7 q 213 33 310 -7 q 47 140 117 74 l 92 219 q 243 119 157 156 q 413 83 329 83 q 589 128 524 83 q 654 250 654 174 q 621 350 654 311 q 539 410 588 389 q 403 458 490 431 q 244 516 304 489 q 143 597 185 543 q 101 736 101 650 q 143 865 101 810 q 260 951 185 921 q 433 981 335 981 q 592 957 513 981 q 733 894 672 933 l 692 813 m 383 -85 l 472 -85 l 401 -301 l 332 -301 l 383 -85 z "},"Ṡ":{"ha":844,"x_min":47,"x_max":760,"o":"m 692 813 q 561 870 632 850 q 428 890 490 890 q 267 851 328 890 q 207 743 207 811 q 240 646 207 683 q 322 587 274 608 q 456 539 371 565 q 615 481 554 510 q 717 399 675 453 q 760 256 760 344 q 716 118 760 178 q 593 26 672 58 q 411 -7 514 -7 q 213 33 310 -7 q 47 140 117 74 l 92 219 q 243 119 157 156 q 413 83 329 83 q 589 128 524 83 q 654 250 654 174 q 621 350 654 311 q 539 410 588 389 q 403 458 490 431 q 244 516 304 489 q 143 597 185 543 q 101 736 101 650 q 143 865 101 810 q 260 951 185 921 q 433 981 335 981 q 592 957 513 981 q 733 894 672 933 l 692 813 m 421 1197 q 467 1178 449 1197 q 486 1132 486 1160 q 467 1085 486 1104 q 421 1065 449 1065 q 376 1085 394 1065 q 357 1132 357 1104 q 375 1178 357 1160 q 421 1197 393 1197 z "},"Ṣ":{"ha":844,"x_min":47,"x_max":760,"o":"m 692 813 q 561 870 632 850 q 428 890 490 890 q 267 851 328 890 q 207 743 207 811 q 240 646 207 683 q 322 587 274 608 q 456 539 371 565 q 615 481 554 510 q 717 399 675 453 q 760 256 760 344 q 716 118 760 178 q 593 26 672 58 q 411 -7 514 -7 q 213 33 310 -7 q 47 140 117 74 l 92 219 q 243 119 157 156 q 413 83 329 83 q 589 128 524 83 q 654 250 654 174 q 621 350 654 311 q 539 410 588 389 q 403 458 490 431 q 244 516 304 489 q 143 597 185 543 q 101 736 101 650 q 143 865 101 810 q 260 951 185 921 q 433 981 335 981 q 592 957 513 981 q 733 894 672 933 l 692 813 m 428 -106 q 474 -124 456 -106 q 492 -171 492 -143 q 473 -218 492 -199 q 428 -237 454 -237 q 381 -218 400 -237 q 363 -171 363 -199 q 381 -124 363 -143 q 428 -106 400 -106 z "},"Ṩ":{"ha":844,"x_min":47,"x_max":760,"o":"m 692 813 q 561 870 632 850 q 428 890 490 890 q 267 851 328 890 q 207 743 207 811 q 240 646 207 683 q 322 587 274 608 q 456 539 371 565 q 615 481 554 510 q 717 399 675 453 q 760 256 760 344 q 716 118 760 178 q 593 26 672 58 q 411 -7 514 -7 q 213 33 310 -7 q 47 140 117 74 l 92 219 q 243 119 157 156 q 413 83 329 83 q 589 128 524 83 q 654 250 654 174 q 621 350 654 311 q 539 410 588 389 q 403 458 490 431 q 244 516 304 489 q 143 597 185 543 q 101 736 101 650 q 143 865 101 810 q 260 951 185 921 q 433 981 335 981 q 592 957 513 981 q 733 894 672 933 l 692 813 m 428 -106 q 474 -124 456 -106 q 492 -171 492 -143 q 473 -218 492 -199 q 428 -237 454 -237 q 381 -218 400 -237 q 363 -171 363 -199 q 381 -124 363 -143 q 428 -106 400 -106 m 426 1197 q 473 1178 454 1197 q 492 1132 492 1160 q 473 1085 492 1104 q 426 1065 454 1065 q 381 1085 400 1065 q 363 1132 363 1104 q 381 1178 363 1160 q 426 1197 399 1197 z "},"ẞ":{"ha":936,"x_min":125,"x_max":872,"o":"m 603 549 q 802 461 732 533 q 872 279 872 389 q 783 75 872 150 q 539 0 693 0 l 424 0 l 424 86 l 539 86 q 711 138 647 86 q 775 279 775 190 q 712 417 775 367 q 533 467 649 467 l 499 467 l 499 553 l 731 832 q 508 889 638 889 q 298 817 375 889 q 221 613 221 744 l 221 0 l 125 0 l 125 613 q 227 880 125 785 q 507 975 329 975 q 811 879 682 975 l 811 797 l 603 549 z "},"Ə":{"ha":1054,"x_min":47,"x_max":996,"o":"m 507 979 q 753 913 640 979 q 931 735 865 847 q 996 488 996 622 q 931 239 996 353 q 753 58 865 125 q 507 -8 640 -8 q 222 84 343 -8 q 47 321 101 176 l 867 653 q 723 827 819 761 q 507 893 626 893 q 330 853 413 893 q 189 743 247 814 l 121 808 q 292 935 194 890 q 507 979 389 979 m 507 78 q 708 133 618 78 q 850 282 799 189 q 901 485 901 375 q 893 569 901 528 l 167 274 q 306 133 217 188 q 507 78 394 78 z "},"T":{"ha":872,"x_min":49,"x_max":821,"o":"m 786 804 q 482 886 653 875 l 482 0 l 386 0 l 386 886 q 82 804 222 875 l 49 885 q 232 955 133 931 q 433 979 331 979 q 635 955 536 979 q 821 883 735 931 l 786 804 z "},"Ŧ":{"ha":872,"x_min":49,"x_max":821,"o":"m 786 804 q 482 886 653 875 l 482 503 l 703 503 l 703 442 l 482 442 l 482 0 l 386 0 l 386 442 l 167 442 l 167 503 l 386 503 l 386 886 q 82 804 222 875 l 49 885 q 232 955 133 931 q 433 979 331 979 q 635 955 536 979 q 821 883 735 931 l 786 804 z "},"Ť":{"ha":872,"x_min":49,"x_max":821,"o":"m 786 804 q 482 886 653 875 l 482 0 l 386 0 l 386 886 q 82 804 222 875 l 49 885 q 232 955 133 931 q 433 979 331 979 q 635 955 536 979 q 821 883 735 931 l 786 804 m 514 1240 l 610 1240 l 467 1067 l 364 1067 l 222 1240 l 318 1240 l 415 1135 l 514 1240 z "},"Ţ":{"ha":872,"x_min":49,"x_max":821,"o":"m 482 0 l 458 -74 q 542 -110 514 -79 q 571 -181 571 -140 q 531 -267 571 -233 q 428 -300 492 -300 q 367 -292 399 -300 q 310 -269 335 -283 l 332 -210 q 374 -226 350 -219 q 418 -232 397 -232 q 474 -214 454 -232 q 494 -172 494 -196 q 474 -134 494 -150 q 419 -118 454 -118 l 378 -118 l 414 0 l 386 0 l 386 886 q 82 804 222 875 l 49 885 q 232 955 133 931 q 433 979 331 979 q 635 955 536 979 q 821 883 735 931 l 786 804 q 482 886 653 875 l 482 0 z "},"Ț":{"ha":872,"x_min":49,"x_max":821,"o":"m 786 804 q 482 886 653 875 l 482 0 l 386 0 l 386 886 q 82 804 222 875 l 49 885 q 232 955 133 931 q 433 979 331 979 q 635 955 536 979 q 821 883 735 931 l 786 804 m 392 -85 l 481 -85 l 410 -301 l 340 -301 l 392 -85 z "},"Ṭ":{"ha":872,"x_min":49,"x_max":821,"o":"m 786 804 q 482 886 653 875 l 482 0 l 386 0 l 386 886 q 82 804 222 875 l 49 885 q 232 955 133 931 q 433 979 331 979 q 635 955 536 979 q 821 883 735 931 l 786 804 m 436 -106 q 482 -124 464 -106 q 500 -171 500 -143 q 481 -218 500 -199 q 436 -237 463 -237 q 390 -218 408 -237 q 371 -171 371 -199 q 390 -124 371 -143 q 436 -106 408 -106 z "},"Ṯ":{"ha":872,"x_min":49,"x_max":821,"o":"m 786 804 q 482 886 653 875 l 482 0 l 386 0 l 386 886 q 82 804 222 875 l 49 885 q 232 955 133 931 q 433 979 331 979 q 635 955 536 979 q 821 883 735 931 l 786 804 m 243 -119 l 626 -119 l 626 -183 l 243 -183 l 243 -119 z "},"U":{"ha":1085,"x_min":131,"x_max":932,"o":"m 932 972 l 932 0 l 836 0 l 836 192 q 690 47 785 100 q 474 -8 594 -7 q 297 38 375 -8 q 174 165 218 83 q 131 351 131 247 l 131 972 l 226 972 l 226 371 q 262 222 226 288 q 360 120 297 157 q 501 83 422 83 q 674 129 597 85 q 793 249 750 174 q 836 415 836 324 l 836 972 l 932 972 z "},"Ú":{"ha":1085,"x_min":131,"x_max":932,"o":"m 932 972 l 932 0 l 836 0 l 836 192 q 690 47 785 100 q 474 -8 594 -7 q 297 38 375 -8 q 174 165 218 83 q 131 351 131 247 l 131 972 l 226 972 l 226 371 q 262 222 226 288 q 360 120 297 157 q 501 83 422 83 q 674 129 597 85 q 793 249 750 174 q 836 415 836 324 l 836 972 l 932 972 m 646 1246 l 742 1204 l 567 1065 l 483 1075 l 646 1246 z "},"Ŭ":{"ha":1085,"x_min":131,"x_max":932,"o":"m 932 972 l 932 0 l 836 0 l 836 192 q 690 47 785 100 q 474 -8 594 -7 q 297 38 375 -8 q 174 165 218 83 q 131 351 131 247 l 131 972 l 226 972 l 226 371 q 262 222 226 288 q 360 120 297 157 q 501 83 422 83 q 674 129 597 85 q 793 249 750 174 q 836 415 836 324 l 836 972 l 932 972 m 440 1236 q 472 1162 443 1192 q 543 1132 500 1132 q 615 1162 586 1132 q 646 1236 643 1192 l 714 1236 q 664 1113 713 1161 q 543 1065 615 1065 q 424 1113 472 1065 q 372 1236 375 1161 l 440 1236 z "},"Û":{"ha":1085,"x_min":131,"x_max":932,"o":"m 932 972 l 932 0 l 836 0 l 836 192 q 690 47 785 100 q 474 -8 594 -7 q 297 38 375 -8 q 174 165 218 83 q 131 351 131 247 l 131 972 l 226 972 l 226 371 q 262 222 226 288 q 360 120 297 157 q 501 83 422 83 q 674 129 597 85 q 793 249 750 174 q 836 415 836 324 l 836 972 l 932 972 m 738 1068 l 642 1068 l 544 1174 l 446 1068 l 350 1068 l 493 1242 l 596 1242 l 738 1068 z "},"Ȕ":{"ha":1085,"x_min":131,"x_max":932,"o":"m 932 972 l 932 0 l 836 0 l 836 192 q 690 47 785 100 q 474 -8 594 -7 q 297 38 375 -8 q 174 165 218 83 q 131 351 131 247 l 131 972 l 226 972 l 226 371 q 262 222 226 288 q 360 120 297 157 q 501 83 422 83 q 674 129 597 85 q 793 249 750 174 q 836 415 836 324 l 836 972 l 932 972 m 376 1251 l 500 1075 l 425 1065 l 296 1213 l 376 1251 m 574 1251 l 697 1075 l 622 1065 l 493 1213 l 574 1251 z "},"Ü":{"ha":1085,"x_min":131,"x_max":932,"o":"m 932 972 l 932 0 l 836 0 l 836 192 q 690 47 785 100 q 474 -8 594 -7 q 297 38 375 -8 q 174 165 218 83 q 131 351 131 247 l 131 972 l 226 972 l 226 371 q 262 222 226 288 q 360 120 297 157 q 501 83 422 83 q 674 129 597 85 q 793 249 750 174 q 836 415 836 324 l 836 972 l 932 972 m 431 1188 q 473 1170 456 1188 q 490 1126 490 1153 q 473 1083 490 1101 q 431 1065 456 1065 q 387 1083 404 1065 q 369 1126 369 1101 q 387 1170 369 1153 q 431 1188 404 1188 m 660 1188 q 702 1170 685 1188 q 719 1126 719 1153 q 702 1083 719 1101 q 660 1065 685 1065 q 616 1083 633 1065 q 599 1126 599 1101 q 616 1170 599 1153 q 660 1188 633 1188 z "},"Ụ":{"ha":1085,"x_min":131,"x_max":932,"o":"m 932 972 l 932 0 l 836 0 l 836 192 q 690 47 785 100 q 474 -8 594 -7 q 297 38 375 -8 q 174 165 218 83 q 131 351 131 247 l 131 972 l 226 972 l 226 371 q 262 222 226 288 q 360 120 297 157 q 501 83 422 83 q 674 129 597 85 q 793 249 750 174 q 836 415 836 324 l 836 972 l 932 972 m 544 -106 q 590 -124 572 -106 q 608 -171 608 -143 q 590 -218 608 -199 q 544 -237 571 -237 q 498 -218 517 -237 q 479 -171 479 -199 q 498 -124 479 -143 q 544 -106 517 -106 z "},"Ù":{"ha":1085,"x_min":131,"x_max":932,"o":"m 932 972 l 932 0 l 836 0 l 836 192 q 690 47 785 100 q 474 -8 594 -7 q 297 38 375 -8 q 174 165 218 83 q 131 351 131 247 l 131 972 l 226 972 l 226 371 q 262 222 226 288 q 360 120 297 157 q 501 83 422 83 q 674 129 597 85 q 793 249 750 174 q 836 415 836 324 l 836 972 l 932 972 m 447 1246 l 610 1075 l 526 1065 l 351 1204 l 447 1246 z "},"Ủ":{"ha":1085,"x_min":131,"x_max":932,"o":"m 932 972 l 932 0 l 836 0 l 836 192 q 690 47 785 100 q 474 -8 594 -7 q 297 38 375 -8 q 174 165 218 83 q 131 351 131 247 l 131 972 l 226 972 l 226 371 q 262 222 226 288 q 360 120 297 157 q 501 83 422 83 q 674 129 597 85 q 793 249 750 174 q 836 415 836 324 l 836 972 l 932 972 m 533 1301 q 621 1273 588 1301 q 654 1196 654 1244 q 629 1117 654 1158 q 564 1043 604 1076 l 507 1068 q 556 1124 538 1093 q 574 1182 574 1156 q 558 1219 574 1204 q 517 1235 542 1235 q 456 1214 486 1235 l 422 1267 q 533 1301 474 1301 z "},"Ư":{"ha":1103,"x_min":131,"x_max":1060,"o":"m 1038 1147 q 1060 1051 1060 1099 q 1026 959 1060 996 q 932 913 993 922 l 932 0 l 836 0 l 836 192 q 690 47 785 100 q 474 -8 594 -7 q 297 38 375 -8 q 174 165 218 83 q 131 351 131 247 l 131 972 l 226 972 l 226 371 q 262 222 226 288 q 360 120 297 157 q 501 83 422 83 q 674 129 597 85 q 793 249 750 174 q 836 415 836 324 l 836 972 l 914 972 q 966 997 949 976 q 983 1047 983 1017 q 964 1119 983 1081 l 1038 1147 z "},"Ứ":{"ha":1103,"x_min":131,"x_max":1060,"o":"m 1038 1147 q 1060 1051 1060 1099 q 1026 959 1060 996 q 932 913 993 922 l 932 0 l 836 0 l 836 192 q 690 47 785 100 q 474 -8 594 -7 q 297 38 375 -8 q 174 165 218 83 q 131 351 131 247 l 131 972 l 226 972 l 226 371 q 262 222 226 288 q 360 120 297 157 q 501 83 422 83 q 674 129 597 85 q 793 249 750 174 q 836 415 836 324 l 836 972 l 914 972 q 966 997 949 976 q 983 1047 983 1017 q 964 1119 983 1081 l 1038 1147 m 646 1246 l 742 1204 l 567 1065 l 483 1075 l 646 1246 z "},"Ự":{"ha":1103,"x_min":131,"x_max":1060,"o":"m 1038 1147 q 1060 1051 1060 1099 q 1026 959 1060 996 q 932 913 993 922 l 932 0 l 836 0 l 836 192 q 690 47 785 100 q 474 -8 594 -7 q 297 38 375 -8 q 174 165 218 83 q 131 351 131 247 l 131 972 l 226 972 l 226 371 q 262 222 226 288 q 360 120 297 157 q 501 83 422 83 q 674 129 597 85 q 793 249 750 174 q 836 415 836 324 l 836 972 l 914 972 q 966 997 949 976 q 983 1047 983 1017 q 964 1119 983 1081 l 1038 1147 m 543 -106 q 589 -124 571 -106 q 607 -171 607 -143 q 588 -218 607 -199 q 543 -237 569 -237 q 497 -218 515 -237 q 478 -171 478 -199 q 497 -124 478 -143 q 543 -106 515 -106 z "},"Ừ":{"ha":1103,"x_min":131,"x_max":1060,"o":"m 1038 1147 q 1060 1051 1060 1099 q 1026 959 1060 996 q 932 913 993 922 l 932 0 l 836 0 l 836 192 q 690 47 785 100 q 474 -8 594 -7 q 297 38 375 -8 q 174 165 218 83 q 131 351 131 247 l 131 972 l 226 972 l 226 371 q 262 222 226 288 q 360 120 297 157 q 501 83 422 83 q 674 129 597 85 q 793 249 750 174 q 836 415 836 324 l 836 972 l 914 972 q 966 997 949 976 q 983 1047 983 1017 q 964 1119 983 1081 l 1038 1147 m 446 1246 l 608 1075 l 525 1065 l 350 1204 l 446 1246 z "},"Ử":{"ha":1103,"x_min":131,"x_max":1060,"o":"m 1038 1147 q 1060 1051 1060 1099 q 1026 959 1060 996 q 932 913 993 922 l 932 0 l 836 0 l 836 192 q 690 47 785 100 q 474 -8 594 -7 q 297 38 375 -8 q 174 165 218 83 q 131 351 131 247 l 131 972 l 226 972 l 226 371 q 262 222 226 288 q 360 120 297 157 q 501 83 422 83 q 674 129 597 85 q 793 249 750 174 q 836 415 836 324 l 836 972 l 914 972 q 966 997 949 976 q 983 1047 983 1017 q 964 1119 983 1081 l 1038 1147 m 532 1301 q 619 1273 586 1301 q 653 1196 653 1244 q 628 1117 653 1158 q 563 1043 603 1076 l 506 1068 q 554 1124 536 1093 q 572 1182 572 1156 q 556 1219 572 1204 q 515 1235 540 1235 q 454 1214 485 1235 l 421 1267 q 532 1301 472 1301 z "},"Ữ":{"ha":1103,"x_min":131,"x_max":1060,"o":"m 1038 1147 q 1060 1051 1060 1099 q 1026 959 1060 996 q 932 913 993 922 l 932 0 l 836 0 l 836 192 q 690 47 785 100 q 474 -8 594 -7 q 297 38 375 -8 q 174 165 218 83 q 131 351 131 247 l 131 972 l 226 972 l 226 371 q 262 222 226 288 q 360 120 297 157 q 501 83 422 83 q 674 129 597 85 q 793 249 750 174 q 836 415 836 324 l 836 972 l 914 972 q 966 997 949 976 q 983 1047 983 1017 q 964 1119 983 1081 l 1038 1147 m 747 1215 q 720 1108 747 1150 q 639 1067 693 1067 q 587 1078 610 1067 q 533 1111 564 1090 q 491 1138 506 1131 q 460 1146 476 1146 q 420 1126 433 1146 q 407 1072 407 1107 l 339 1072 q 366 1179 339 1138 q 447 1221 393 1221 q 500 1209 476 1221 q 553 1175 524 1197 q 595 1148 581 1156 q 626 1140 610 1140 q 679 1215 679 1140 l 747 1215 z "},"Ű":{"ha":1085,"x_min":131,"x_max":932,"o":"m 932 972 l 932 0 l 836 0 l 836 192 q 690 47 785 100 q 474 -8 594 -7 q 297 38 375 -8 q 174 165 218 83 q 131 351 131 247 l 131 972 l 226 972 l 226 371 q 262 222 226 288 q 360 120 297 157 q 501 83 422 83 q 674 129 597 85 q 793 249 750 174 q 836 415 836 324 l 836 972 l 932 972 m 506 1251 l 586 1213 l 457 1065 l 383 1075 l 506 1251 m 703 1251 l 783 1213 l 654 1065 l 581 1075 l 703 1251 z "},"Ȗ":{"ha":1085,"x_min":131,"x_max":932,"o":"m 932 972 l 932 0 l 836 0 l 836 192 q 690 47 785 100 q 474 -8 594 -7 q 297 38 375 -8 q 174 165 218 83 q 131 351 131 247 l 131 972 l 226 972 l 226 371 q 262 222 226 288 q 360 120 297 157 q 501 83 422 83 q 674 129 597 85 q 793 249 750 174 q 836 415 836 324 l 836 972 l 932 972 m 372 1069 q 424 1192 375 1144 q 543 1240 472 1240 q 664 1192 615 1240 q 714 1069 713 1144 l 646 1069 q 615 1145 643 1115 q 543 1175 586 1175 q 472 1145 500 1175 q 440 1069 443 1115 l 372 1069 z "},"Ū":{"ha":1085,"x_min":131,"x_max":932,"o":"m 932 972 l 932 0 l 836 0 l 836 192 q 690 47 785 100 q 474 -8 594 -7 q 297 38 375 -8 q 174 165 218 83 q 131 351 131 247 l 131 972 l 226 972 l 226 371 q 262 222 226 288 q 360 120 297 157 q 501 83 422 83 q 674 129 597 85 q 793 249 750 174 q 836 415 836 324 l 836 972 l 932 972 m 326 1140 l 760 1140 l 760 1076 l 326 1076 l 326 1140 z "},"Ṻ":{"ha":1085,"x_min":131,"x_max":932,"o":"m 932 972 l 932 0 l 836 0 l 836 192 q 690 47 785 100 q 474 -8 594 -7 q 297 38 375 -8 q 174 165 218 83 q 131 351 131 247 l 131 972 l 226 972 l 226 371 q 262 222 226 288 q 360 120 297 157 q 501 83 422 83 q 674 129 597 85 q 793 249 750 174 q 836 415 836 324 l 836 972 l 932 972 z "},"Ų":{"ha":1085,"x_min":131,"x_max":932,"o":"m 932 0 q 822 -92 856 -54 q 788 -169 788 -131 q 802 -212 788 -199 q 842 -226 817 -226 q 906 -207 874 -226 l 931 -269 q 824 -299 881 -299 q 733 -269 767 -299 q 700 -185 700 -239 q 733 -85 700 -133 q 836 11 765 -37 l 836 192 q 690 47 785 100 q 474 -8 594 -7 q 297 38 375 -8 q 174 165 218 83 q 131 351 131 247 l 131 972 l 226 972 l 226 371 q 262 222 226 288 q 360 120 297 157 q 501 83 422 83 q 674 129 597 85 q 793 249 750 174 q 836 415 836 324 l 836 972 l 932 972 l 932 0 z "},"Ů":{"ha":1085,"x_min":131,"x_max":932,"o":"m 932 972 l 932 0 l 836 0 l 836 192 q 690 47 785 100 q 474 -8 594 -7 q 297 38 375 -8 q 174 165 218 83 q 131 351 131 247 l 131 972 l 226 972 l 226 371 q 262 222 226 288 q 360 120 297 157 q 501 83 422 83 q 674 129 597 85 q 793 249 750 174 q 836 415 836 324 l 836 972 l 932 972 m 543 1324 q 641 1283 600 1324 q 682 1186 682 1242 q 641 1090 682 1131 q 543 1050 600 1050 q 445 1090 486 1050 q 404 1186 404 1131 q 445 1283 404 1242 q 543 1324 486 1324 m 543 1269 q 482 1245 507 1269 q 457 1186 457 1221 q 483 1128 457 1153 q 543 1104 508 1104 q 603 1128 578 1104 q 629 1186 629 1153 q 603 1245 629 1221 q 543 1269 578 1269 z "},"Ũ":{"ha":1085,"x_min":131,"x_max":932,"o":"m 932 972 l 932 0 l 836 0 l 836 192 q 690 47 785 100 q 474 -8 594 -7 q 297 38 375 -8 q 174 165 218 83 q 131 351 131 247 l 131 972 l 226 972 l 226 371 q 262 222 226 288 q 360 120 297 157 q 501 83 422 83 q 674 129 597 85 q 793 249 750 174 q 836 415 836 324 l 836 972 l 932 972 m 747 1215 q 720 1108 747 1150 q 639 1067 693 1067 q 587 1078 610 1067 q 533 1111 564 1090 q 491 1138 506 1131 q 460 1146 476 1146 q 420 1126 433 1146 q 407 1072 407 1107 l 339 1072 q 366 1179 339 1138 q 447 1221 393 1221 q 500 1209 476 1221 q 553 1175 524 1197 q 595 1148 581 1156 q 626 1140 610 1140 q 679 1215 679 1140 l 747 1215 z "},"Ṹ":{"ha":1085,"x_min":131,"x_max":932,"o":"m 932 972 l 932 0 l 836 0 l 836 192 q 690 47 785 100 q 474 -8 594 -7 q 297 38 375 -8 q 174 165 218 83 q 131 351 131 247 l 131 972 l 226 972 l 226 371 q 262 222 226 288 q 360 120 297 157 q 501 83 422 83 q 674 129 597 85 q 793 249 750 174 q 836 415 836 324 l 836 972 l 932 972 m 746 1194 q 719 1102 746 1138 q 639 1067 692 1067 q 586 1076 610 1067 q 531 1106 563 1086 q 490 1128 507 1121 q 456 1136 472 1136 q 414 1119 428 1136 q 400 1071 400 1101 l 342 1071 q 369 1165 342 1129 q 449 1200 396 1200 q 501 1190 478 1200 q 557 1161 525 1181 q 598 1138 581 1146 q 632 1131 615 1131 q 674 1148 660 1131 q 688 1194 688 1165 l 746 1194 m 649 1411 l 728 1358 l 532 1250 l 456 1274 l 649 1411 z "},"V":{"ha":914,"x_min":10,"x_max":904,"o":"m 10 971 l 113 971 l 458 106 l 803 971 l 904 971 l 506 0 l 406 0 l 10 971 z "},"W":{"ha":1649,"x_min":131,"x_max":1518,"o":"m 1518 339 q 1474 158 1518 236 q 1349 35 1429 79 q 1164 -8 1269 -8 q 951 48 1043 -8 q 825 196 858 104 q 699 48 792 104 q 486 -8 607 -8 q 300 35 381 -8 q 175 158 219 79 q 131 339 131 236 l 131 972 l 226 972 l 226 339 q 301 149 226 221 q 499 78 376 78 q 701 149 625 78 q 778 339 778 221 l 778 972 l 874 972 l 874 339 q 950 149 874 221 q 1151 78 1026 78 q 1348 149 1274 78 q 1422 339 1422 221 l 1422 972 l 1518 972 l 1518 339 z "},"Ẃ":{"ha":1649,"x_min":131,"x_max":1518,"o":"m 1518 339 q 1474 158 1518 236 q 1349 35 1429 79 q 1164 -8 1269 -8 q 951 48 1043 -8 q 825 196 858 104 q 699 48 792 104 q 486 -8 607 -8 q 300 35 381 -8 q 175 158 219 79 q 131 339 131 236 l 131 972 l 226 972 l 226 339 q 301 149 226 221 q 499 78 376 78 q 701 149 625 78 q 778 339 778 221 l 778 972 l 874 972 l 874 339 q 950 149 874 221 q 1151 78 1026 78 q 1348 149 1274 78 q 1422 339 1422 221 l 1422 972 l 1518 972 l 1518 339 m 926 1246 l 1022 1204 l 847 1065 l 764 1075 l 926 1246 z "},"Ŵ":{"ha":1649,"x_min":131,"x_max":1518,"o":"m 1518 339 q 1474 158 1518 236 q 1349 35 1429 79 q 1164 -8 1269 -8 q 951 48 1043 -8 q 825 196 858 104 q 699 48 792 104 q 486 -8 607 -8 q 300 35 381 -8 q 175 158 219 79 q 131 339 131 236 l 131 972 l 226 972 l 226 339 q 301 149 226 221 q 499 78 376 78 q 701 149 625 78 q 778 339 778 221 l 778 972 l 874 972 l 874 339 q 950 149 874 221 q 1151 78 1026 78 q 1348 149 1274 78 q 1422 339 1422 221 l 1422 972 l 1518 972 l 1518 339 m 1018 1068 l 922 1068 l 825 1174 l 726 1068 l 631 1068 l 774 1242 l 876 1242 l 1018 1068 z "},"Ẅ":{"ha":1649,"x_min":131,"x_max":1518,"o":"m 1518 339 q 1474 158 1518 236 q 1349 35 1429 79 q 1164 -8 1269 -8 q 951 48 1043 -8 q 825 196 858 104 q 699 48 792 104 q 486 -8 607 -8 q 300 35 381 -8 q 175 158 219 79 q 131 339 131 236 l 131 972 l 226 972 l 226 339 q 301 149 226 221 q 499 78 376 78 q 701 149 625 78 q 778 339 778 221 l 778 972 l 874 972 l 874 339 q 950 149 874 221 q 1151 78 1026 78 q 1348 149 1274 78 q 1422 339 1422 221 l 1422 972 l 1518 972 l 1518 339 m 711 1188 q 753 1170 736 1188 q 771 1126 771 1153 q 753 1083 771 1101 q 711 1065 736 1065 q 667 1083 685 1065 q 650 1126 650 1101 q 667 1170 650 1153 q 711 1188 685 1188 m 940 1188 q 983 1170 965 1188 q 1000 1126 1000 1153 q 983 1083 1000 1101 q 940 1065 965 1065 q 897 1083 914 1065 q 879 1126 879 1101 q 897 1170 879 1153 q 940 1188 914 1188 z "},"Ẁ":{"ha":1649,"x_min":131,"x_max":1518,"o":"m 1518 339 q 1474 158 1518 236 q 1349 35 1429 79 q 1164 -8 1269 -8 q 951 48 1043 -8 q 825 196 858 104 q 699 48 792 104 q 486 -8 607 -8 q 300 35 381 -8 q 175 158 219 79 q 131 339 131 236 l 131 972 l 226 972 l 226 339 q 301 149 226 221 q 499 78 376 78 q 701 149 625 78 q 778 339 778 221 l 778 972 l 874 972 l 874 339 q 950 149 874 221 q 1151 78 1026 78 q 1348 149 1274 78 q 1422 339 1422 221 l 1422 972 l 1518 972 l 1518 339 m 728 1246 l 890 1075 l 807 1065 l 632 1204 l 728 1246 z "},"X":{"ha":914,"x_min":33,"x_max":869,"o":"m 58 971 l 171 971 l 450 579 l 729 971 l 842 971 l 510 504 l 869 0 l 754 0 l 450 425 l 146 0 l 33 0 l 392 501 l 58 971 z "},"Y":{"ha":1024,"x_min":131,"x_max":893,"o":"m 893 971 l 893 221 q 844 33 893 115 q 710 -97 796 -50 q 514 -143 624 -143 q 298 -98 404 -143 q 136 17 192 -53 l 186 83 q 326 -17 236 22 q 504 -57 415 -57 q 656 -21 589 -57 q 760 78 722 15 q 799 222 799 142 l 799 411 q 669 272 753 322 q 479 219 586 221 q 299 265 378 219 q 175 392 219 311 q 131 578 131 474 l 131 971 l 226 971 l 226 585 q 261 442 226 506 q 357 343 296 379 q 496 307 418 307 q 644 346 578 308 q 751 450 711 383 q 799 601 792 517 l 799 971 l 893 971 z "},"Ý":{"ha":1024,"x_min":131,"x_max":893,"o":"m 893 971 l 893 221 q 844 33 893 115 q 710 -97 796 -50 q 514 -143 624 -143 q 298 -98 404 -143 q 136 17 192 -53 l 186 83 q 326 -17 236 22 q 504 -57 415 -57 q 656 -21 589 -57 q 760 78 722 15 q 799 222 799 142 l 799 411 q 669 272 753 322 q 479 219 586 221 q 299 265 378 219 q 175 392 219 311 q 131 578 131 474 l 131 971 l 226 971 l 226 585 q 261 442 226 506 q 357 343 296 379 q 496 307 418 307 q 644 346 578 308 q 751 450 711 383 q 799 601 792 517 l 799 971 l 893 971 m 614 1244 l 710 1203 l 535 1064 l 451 1074 l 614 1244 z "},"Ŷ":{"ha":1024,"x_min":131,"x_max":893,"o":"m 893 971 l 893 221 q 844 33 893 115 q 710 -97 796 -50 q 514 -143 624 -143 q 298 -98 404 -143 q 136 17 192 -53 l 186 83 q 326 -17 236 22 q 504 -57 415 -57 q 656 -21 589 -57 q 760 78 722 15 q 799 222 799 142 l 799 411 q 669 272 753 322 q 479 219 586 221 q 299 265 378 219 q 175 392 219 311 q 131 578 131 474 l 131 971 l 226 971 l 226 585 q 261 442 226 506 q 357 343 296 379 q 496 307 418 307 q 644 346 578 308 q 751 450 711 383 q 799 601 792 517 l 799 971 l 893 971 m 706 1067 l 610 1067 l 513 1172 l 414 1067 l 318 1067 l 461 1240 l 564 1240 l 706 1067 z "},"Ÿ":{"ha":1024,"x_min":131,"x_max":893,"o":"m 893 971 l 893 221 q 844 33 893 115 q 710 -97 796 -50 q 514 -143 624 -143 q 298 -98 404 -143 q 136 17 192 -53 l 186 83 q 326 -17 236 22 q 504 -57 415 -57 q 656 -21 589 -57 q 760 78 722 15 q 799 222 799 142 l 799 411 q 669 272 753 322 q 479 219 586 221 q 299 265 378 219 q 175 392 219 311 q 131 578 131 474 l 131 971 l 226 971 l 226 585 q 261 442 226 506 q 357 343 296 379 q 496 307 418 307 q 644 346 578 308 q 751 450 711 383 q 799 601 792 517 l 799 971 l 893 971 m 399 1186 q 441 1169 424 1186 q 458 1125 458 1151 q 441 1082 458 1100 q 399 1064 424 1064 q 355 1082 372 1064 q 338 1125 338 1100 q 355 1169 338 1151 q 399 1186 372 1186 m 628 1186 q 670 1169 653 1186 q 688 1125 688 1151 q 670 1082 688 1100 q 628 1064 653 1064 q 584 1082 601 1064 q 567 1125 567 1100 q 584 1169 567 1151 q 628 1186 601 1186 z "},"Ẏ":{"ha":1024,"x_min":131,"x_max":893,"o":"m 893 971 l 893 221 q 844 33 893 115 q 710 -97 796 -50 q 514 -143 624 -143 q 298 -98 404 -143 q 136 17 192 -53 l 186 83 q 326 -17 236 22 q 504 -57 415 -57 q 656 -21 589 -57 q 760 78 722 15 q 799 222 799 142 l 799 411 q 669 272 753 322 q 479 219 586 221 q 299 265 378 219 q 175 392 219 311 q 131 578 131 474 l 131 971 l 226 971 l 226 585 q 261 442 226 506 q 357 343 296 379 q 496 307 418 307 q 644 346 578 308 q 751 450 711 383 q 799 601 792 517 l 799 971 l 893 971 m 511 1196 q 558 1177 539 1196 q 576 1131 576 1158 q 558 1083 576 1103 q 511 1064 539 1064 q 466 1083 485 1064 q 447 1131 447 1103 q 465 1177 447 1158 q 511 1196 483 1196 z "},"Ỵ":{"ha":1024,"x_min":131,"x_max":893,"o":"m 893 971 l 893 221 q 844 33 893 115 q 710 -97 796 -50 q 514 -143 624 -143 q 298 -98 404 -143 q 136 17 192 -53 l 186 83 q 326 -17 236 22 q 504 -57 415 -57 q 656 -21 589 -57 q 760 78 722 15 q 799 222 799 142 l 799 411 q 669 272 753 322 q 479 219 586 221 q 299 265 378 219 q 175 392 219 311 q 131 578 131 474 l 131 971 l 226 971 l 226 585 q 261 442 226 506 q 357 343 296 379 q 496 307 418 307 q 644 346 578 308 q 751 450 711 383 q 799 601 792 517 l 799 971 l 893 971 m 532 -237 q 578 -256 560 -237 q 596 -303 596 -275 q 577 -350 596 -331 q 532 -369 558 -369 q 485 -350 504 -369 q 467 -303 467 -331 q 485 -256 467 -275 q 532 -237 504 -237 z "},"Ỳ":{"ha":1024,"x_min":131,"x_max":893,"o":"m 893 971 l 893 221 q 844 33 893 115 q 710 -97 796 -50 q 514 -143 624 -143 q 298 -98 404 -143 q 136 17 192 -53 l 186 83 q 326 -17 236 22 q 504 -57 415 -57 q 656 -21 589 -57 q 760 78 722 15 q 799 222 799 142 l 799 411 q 669 272 753 322 q 479 219 586 221 q 299 265 378 219 q 175 392 219 311 q 131 578 131 474 l 131 971 l 226 971 l 226 585 q 261 442 226 506 q 357 343 296 379 q 496 307 418 307 q 644 346 578 308 q 751 450 711 383 q 799 601 792 517 l 799 971 l 893 971 m 415 1244 l 578 1074 l 494 1064 l 319 1203 l 415 1244 z "},"Ỷ":{"ha":1024,"x_min":131,"x_max":893,"o":"m 893 971 l 893 221 q 844 33 893 115 q 710 -97 796 -50 q 514 -143 624 -143 q 298 -98 404 -143 q 136 17 192 -53 l 186 83 q 326 -17 236 22 q 504 -57 415 -57 q 656 -21 589 -57 q 760 78 722 15 q 799 222 799 142 l 799 411 q 669 272 753 322 q 479 219 586 221 q 299 265 378 219 q 175 392 219 311 q 131 578 131 474 l 131 971 l 226 971 l 226 585 q 261 442 226 506 q 357 343 296 379 q 496 307 418 307 q 644 346 578 308 q 751 450 711 383 q 799 601 792 517 l 799 971 l 893 971 m 501 1300 q 589 1272 556 1300 q 622 1194 622 1243 q 597 1116 622 1157 q 532 1042 572 1075 l 475 1067 q 524 1123 506 1092 q 542 1181 542 1154 q 526 1218 542 1203 q 485 1233 510 1233 q 424 1213 454 1233 l 390 1265 q 501 1300 442 1300 z "},"Ȳ":{"ha":1024,"x_min":131,"x_max":893,"o":"m 893 971 l 893 221 q 844 33 893 115 q 710 -97 796 -50 q 514 -143 624 -143 q 298 -98 404 -143 q 136 17 192 -53 l 186 83 q 326 -17 236 22 q 504 -57 415 -57 q 656 -21 589 -57 q 760 78 722 15 q 799 222 799 142 l 799 411 q 669 272 753 322 q 479 219 586 221 q 299 265 378 219 q 175 392 219 311 q 131 578 131 474 l 131 971 l 226 971 l 226 585 q 261 442 226 506 q 357 343 296 379 q 496 307 418 307 q 644 346 578 308 q 751 450 711 383 q 799 601 792 517 l 799 971 l 893 971 m 294 1139 l 728 1139 l 728 1075 l 294 1075 l 294 1139 z "},"Ỹ":{"ha":1024,"x_min":131,"x_max":893,"o":"m 893 971 l 893 221 q 844 33 893 115 q 710 -97 796 -50 q 514 -143 624 -143 q 298 -98 404 -143 q 136 17 192 -53 l 186 83 q 326 -17 236 22 q 504 -57 415 -57 q 656 -21 589 -57 q 760 78 722 15 q 799 222 799 142 l 799 411 q 669 272 753 322 q 479 219 586 221 q 299 265 378 219 q 175 392 219 311 q 131 578 131 474 l 131 971 l 226 971 l 226 585 q 261 442 226 506 q 357 343 296 379 q 496 307 418 307 q 644 346 578 308 q 751 450 711 383 q 799 601 792 517 l 799 971 l 893 971 m 715 1214 q 688 1107 715 1149 q 607 1065 661 1065 q 555 1077 578 1065 q 501 1110 532 1089 q 459 1137 474 1129 q 428 1144 444 1144 q 388 1125 401 1144 q 375 1071 375 1106 l 307 1071 q 334 1178 307 1136 q 415 1219 361 1219 q 468 1208 444 1219 q 521 1174 492 1196 q 563 1147 549 1154 q 594 1139 578 1139 q 647 1214 647 1139 l 715 1214 z "},"Z":{"ha":914,"x_min":63,"x_max":851,"o":"m 188 86 l 851 86 l 851 0 l 63 0 l 63 75 l 365 447 l 154 447 l 154 526 l 431 526 l 722 885 l 81 885 l 81 971 l 846 971 l 846 897 l 540 521 l 751 521 l 751 442 l 476 442 l 188 86 z "},"Ź":{"ha":914,"x_min":63,"x_max":851,"o":"m 188 86 l 851 86 l 851 0 l 63 0 l 63 75 l 365 447 l 154 447 l 154 526 l 431 526 l 722 885 l 81 885 l 81 971 l 846 971 l 846 897 l 540 521 l 751 521 l 751 442 l 476 442 l 188 86 m 567 1246 l 663 1204 l 488 1065 l 404 1075 l 567 1246 z "},"Ž":{"ha":914,"x_min":63,"x_max":851,"o":"m 188 86 l 851 86 l 851 0 l 63 0 l 63 75 l 365 447 l 154 447 l 154 526 l 431 526 l 722 885 l 81 885 l 81 971 l 846 971 l 846 897 l 540 521 l 751 521 l 751 442 l 476 442 l 188 86 m 542 1242 l 638 1242 l 494 1068 l 392 1068 l 250 1242 l 346 1242 l 443 1136 l 542 1242 z "},"Ż":{"ha":914,"x_min":63,"x_max":851,"o":"m 188 86 l 851 86 l 851 0 l 63 0 l 63 75 l 365 447 l 154 447 l 154 526 l 431 526 l 722 885 l 81 885 l 81 971 l 846 971 l 846 897 l 540 521 l 751 521 l 751 442 l 476 442 l 188 86 m 464 1197 q 510 1178 492 1197 q 529 1132 529 1160 q 510 1085 529 1104 q 464 1065 492 1065 q 419 1085 438 1065 q 400 1132 400 1104 q 418 1178 400 1160 q 464 1197 436 1197 z "},"Ẓ":{"ha":914,"x_min":63,"x_max":851,"o":"m 188 86 l 851 86 l 851 0 l 63 0 l 63 75 l 365 447 l 154 447 l 154 526 l 431 526 l 722 885 l 81 885 l 81 971 l 846 971 l 846 897 l 540 521 l 751 521 l 751 442 l 476 442 l 188 86 m 458 -106 q 504 -124 486 -106 q 522 -171 522 -143 q 503 -218 522 -199 q 458 -237 485 -237 q 412 -218 431 -237 q 393 -171 393 -199 q 412 -124 393 -143 q 458 -106 431 -106 z "},"a":{"ha":933,"x_min":61,"x_max":797,"o":"m 797 728 l 797 0 l 704 0 l 704 164 q 588 39 663 83 q 414 -6 513 -6 q 231 42 311 -6 q 106 174 150 89 q 61 365 61 258 q 106 556 61 472 q 230 686 150 639 q 411 733 310 733 q 587 689 511 733 q 704 564 663 644 l 704 728 l 797 728 m 431 75 q 618 147 543 75 q 704 333 693 218 l 704 392 q 618 580 693 507 q 431 653 543 653 q 289 615 351 653 q 190 512 226 578 q 154 363 154 446 q 190 214 154 279 q 288 112 225 149 q 431 75 351 75 z "},"á":{"ha":933,"x_min":61,"x_max":797,"o":"m 797 728 l 797 0 l 704 0 l 704 164 q 588 39 663 83 q 414 -6 513 -6 q 231 42 311 -6 q 106 174 150 89 q 61 365 61 258 q 106 556 61 472 q 230 686 150 639 q 411 733 310 733 q 587 689 511 733 q 704 564 663 644 l 704 728 l 797 728 m 431 75 q 618 147 543 75 q 704 333 693 218 l 704 392 q 618 580 693 507 q 431 653 543 653 q 289 615 351 653 q 190 512 226 578 q 154 363 154 446 q 190 214 154 279 q 288 112 225 149 q 431 75 351 75 m 565 1038 l 661 996 l 486 857 l 403 867 l 565 1038 z "},"ă":{"ha":933,"x_min":61,"x_max":797,"o":"m 797 728 l 797 0 l 704 0 l 704 164 q 588 39 663 83 q 414 -6 513 -6 q 231 42 311 -6 q 106 174 150 89 q 61 365 61 258 q 106 556 61 472 q 230 686 150 639 q 411 733 310 733 q 587 689 511 733 q 704 564 663 644 l 704 728 l 797 728 m 431 75 q 618 147 543 75 q 704 333 693 218 l 704 392 q 618 580 693 507 q 431 653 543 653 q 289 615 351 653 q 190 512 226 578 q 154 363 154 446 q 190 214 154 279 q 288 112 225 149 q 431 75 351 75 m 360 1024 q 391 949 363 979 q 463 919 419 919 q 534 949 506 919 q 565 1024 563 979 l 633 1024 q 583 901 632 949 q 463 853 535 853 q 343 901 392 853 q 292 1024 294 949 l 360 1024 z "},"ắ":{"ha":933,"x_min":61,"x_max":797,"o":"m 797 728 l 797 0 l 704 0 l 704 164 q 588 39 663 83 q 414 -6 513 -6 q 231 42 311 -6 q 106 174 150 89 q 61 365 61 258 q 106 556 61 472 q 230 686 150 639 q 411 733 310 733 q 587 689 511 733 q 704 564 663 644 l 704 728 l 797 728 m 431 75 q 618 147 543 75 q 704 333 693 218 l 704 392 q 618 580 693 507 q 431 653 543 653 q 289 615 351 653 q 190 512 226 578 q 154 363 154 446 q 190 214 154 279 q 288 112 225 149 q 431 75 351 75 m 361 996 q 392 938 364 960 q 463 915 419 915 q 535 938 506 915 q 565 996 564 961 l 635 996 q 584 892 633 932 q 463 851 535 851 q 342 892 390 851 q 290 996 293 932 l 361 996 m 567 1182 l 646 1129 l 450 1021 l 374 1044 l 567 1182 z "},"ặ":{"ha":933,"x_min":61,"x_max":797,"o":"m 797 728 l 797 0 l 704 0 l 704 164 q 588 39 663 83 q 414 -6 513 -6 q 231 42 311 -6 q 106 174 150 89 q 61 365 61 258 q 106 556 61 472 q 230 686 150 639 q 411 733 310 733 q 587 689 511 733 q 704 564 663 644 l 704 728 l 797 728 m 431 75 q 618 147 543 75 q 704 333 693 218 l 704 392 q 618 580 693 507 q 431 653 543 653 q 289 615 351 653 q 190 512 226 578 q 154 363 154 446 q 190 214 154 279 q 288 112 225 149 q 431 75 351 75 m 464 -106 q 510 -124 492 -106 q 528 -171 528 -143 q 509 -218 528 -199 q 464 -237 490 -237 q 417 -218 436 -237 q 399 -171 399 -199 q 417 -124 399 -143 q 464 -106 436 -106 m 360 1024 q 391 949 363 979 q 463 919 419 919 q 534 949 506 919 q 565 1024 563 979 l 633 1024 q 583 901 632 949 q 463 853 535 853 q 343 901 392 853 q 292 1024 294 949 l 360 1024 z "},"ằ":{"ha":933,"x_min":61,"x_max":797,"o":"m 797 728 l 797 0 l 704 0 l 704 164 q 588 39 663 83 q 414 -6 513 -6 q 231 42 311 -6 q 106 174 150 89 q 61 365 61 258 q 106 556 61 472 q 230 686 150 639 q 411 733 310 733 q 587 689 511 733 q 704 564 663 644 l 704 728 l 797 728 m 431 75 q 618 147 543 75 q 704 333 693 218 l 704 392 q 618 580 693 507 q 431 653 543 653 q 289 615 351 653 q 190 512 226 578 q 154 363 154 446 q 190 214 154 279 q 288 112 225 149 q 431 75 351 75 m 361 996 q 392 938 364 960 q 463 915 419 915 q 535 938 506 915 q 565 996 564 961 l 635 996 q 584 892 633 932 q 463 851 535 851 q 342 892 390 851 q 290 996 293 932 l 361 996 m 357 1182 l 549 1044 l 474 1021 l 276 1129 l 357 1182 z "},"ẳ":{"ha":933,"x_min":61,"x_max":797,"o":"m 797 728 l 797 0 l 704 0 l 704 164 q 588 39 663 83 q 414 -6 513 -6 q 231 42 311 -6 q 106 174 150 89 q 61 365 61 258 q 106 556 61 472 q 230 686 150 639 q 411 733 310 733 q 587 689 511 733 q 704 564 663 644 l 704 728 l 797 728 m 431 75 q 618 147 543 75 q 704 333 693 218 l 704 392 q 618 580 693 507 q 431 653 543 653 q 289 615 351 653 q 190 512 226 578 q 154 363 154 446 q 190 214 154 279 q 288 112 225 149 q 431 75 351 75 m 361 996 q 392 938 364 960 q 463 915 419 915 q 535 938 506 915 q 565 996 564 961 l 635 996 q 584 892 633 932 q 463 851 535 851 q 342 892 390 851 q 290 996 293 932 l 361 996 m 454 1229 q 531 1205 503 1229 q 560 1142 560 1181 q 537 1079 560 1111 q 474 1019 514 1047 l 421 1042 q 467 1084 450 1061 q 483 1126 483 1107 q 471 1156 483 1144 q 436 1167 458 1167 q 383 1151 408 1167 l 353 1197 q 454 1229 406 1229 z "},"ẵ":{"ha":933,"x_min":61,"x_max":797,"o":"m 797 728 l 797 0 l 704 0 l 704 164 q 588 39 663 83 q 414 -6 513 -6 q 231 42 311 -6 q 106 174 150 89 q 61 365 61 258 q 106 556 61 472 q 230 686 150 639 q 411 733 310 733 q 587 689 511 733 q 704 564 663 644 l 704 728 l 797 728 m 431 75 q 618 147 543 75 q 704 333 693 218 l 704 392 q 618 580 693 507 q 431 653 543 653 q 289 615 351 653 q 190 512 226 578 q 154 363 154 446 q 190 214 154 279 q 288 112 225 149 q 431 75 351 75 m 360 996 q 390 938 363 960 q 461 915 418 915 q 533 938 504 915 q 564 996 563 961 l 633 996 q 583 892 632 932 q 461 851 533 851 q 340 892 389 851 q 289 996 292 932 l 360 996 m 667 1190 q 640 1098 667 1133 q 560 1063 613 1063 q 507 1072 531 1063 q 451 1101 483 1082 q 410 1124 428 1117 q 376 1132 393 1132 q 335 1115 349 1132 q 321 1067 321 1097 l 263 1067 q 290 1160 263 1125 q 369 1196 317 1196 q 422 1186 399 1196 q 478 1157 446 1176 q 519 1134 501 1142 q 553 1126 536 1126 q 594 1144 581 1126 q 608 1190 608 1161 l 667 1190 z "},"â":{"ha":933,"x_min":61,"x_max":797,"o":"m 797 728 l 797 0 l 704 0 l 704 164 q 588 39 663 83 q 414 -6 513 -6 q 231 42 311 -6 q 106 174 150 89 q 61 365 61 258 q 106 556 61 472 q 230 686 150 639 q 411 733 310 733 q 587 689 511 733 q 704 564 663 644 l 704 728 l 797 728 m 431 75 q 618 147 543 75 q 704 333 693 218 l 704 392 q 618 580 693 507 q 431 653 543 653 q 289 615 351 653 q 190 512 226 578 q 154 363 154 446 q 190 214 154 279 q 288 112 225 149 q 431 75 351 75 m 657 860 l 561 860 l 464 965 l 365 860 l 269 860 l 413 1033 l 515 1033 l 657 860 z "},"ấ":{"ha":933,"x_min":61,"x_max":797,"o":"m 797 728 l 797 0 l 704 0 l 704 164 q 588 39 663 83 q 414 -6 513 -6 q 231 42 311 -6 q 106 174 150 89 q 61 365 61 258 q 106 556 61 472 q 230 686 150 639 q 411 733 310 733 q 587 689 511 733 q 704 564 663 644 l 704 728 l 797 728 m 431 75 q 618 147 543 75 q 704 333 693 218 l 704 392 q 618 580 693 507 q 431 653 543 653 q 289 615 351 653 q 190 512 226 578 q 154 363 154 446 q 190 214 154 279 q 288 112 225 149 q 431 75 351 75 m 678 851 l 575 851 l 464 935 l 351 851 l 249 851 l 397 976 l 529 976 l 678 851 m 567 1182 l 646 1129 l 450 1021 l 374 1044 l 567 1182 z "},"ậ":{"ha":933,"x_min":61,"x_max":797,"o":"m 797 728 l 797 0 l 704 0 l 704 164 q 588 39 663 83 q 414 -6 513 -6 q 231 42 311 -6 q 106 174 150 89 q 61 365 61 258 q 106 556 61 472 q 230 686 150 639 q 411 733 310 733 q 587 689 511 733 q 704 564 663 644 l 704 728 l 797 728 m 431 75 q 618 147 543 75 q 704 333 693 218 l 704 392 q 618 580 693 507 q 431 653 543 653 q 289 615 351 653 q 190 512 226 578 q 154 363 154 446 q 190 214 154 279 q 288 112 225 149 q 431 75 351 75 m 464 -106 q 510 -124 492 -106 q 528 -171 528 -143 q 509 -218 528 -199 q 464 -237 490 -237 q 417 -218 436 -237 q 399 -171 399 -199 q 417 -124 399 -143 q 464 -106 436 -106 m 657 860 l 561 860 l 464 965 l 365 860 l 269 860 l 413 1033 l 515 1033 l 657 860 z "},"ầ":{"ha":933,"x_min":61,"x_max":797,"o":"m 797 728 l 797 0 l 704 0 l 704 164 q 588 39 663 83 q 414 -6 513 -6 q 231 42 311 -6 q 106 174 150 89 q 61 365 61 258 q 106 556 61 472 q 230 686 150 639 q 411 733 310 733 q 587 689 511 733 q 704 564 663 644 l 704 728 l 797 728 m 431 75 q 618 147 543 75 q 704 333 693 218 l 704 392 q 618 580 693 507 q 431 653 543 653 q 289 615 351 653 q 190 512 226 578 q 154 363 154 446 q 190 214 154 279 q 288 112 225 149 q 431 75 351 75 m 678 851 l 575 851 l 464 935 l 351 851 l 249 851 l 397 976 l 529 976 l 678 851 m 357 1182 l 549 1044 l 474 1021 l 276 1129 l 357 1182 z "},"ẩ":{"ha":933,"x_min":61,"x_max":797,"o":"m 797 728 l 797 0 l 704 0 l 704 164 q 588 39 663 83 q 414 -6 513 -6 q 231 42 311 -6 q 106 174 150 89 q 61 365 61 258 q 106 556 61 472 q 230 686 150 639 q 411 733 310 733 q 587 689 511 733 q 704 564 663 644 l 704 728 l 797 728 m 431 75 q 618 147 543 75 q 704 333 693 218 l 704 392 q 618 580 693 507 q 431 653 543 653 q 289 615 351 653 q 190 512 226 578 q 154 363 154 446 q 190 214 154 279 q 288 112 225 149 q 431 75 351 75 m 678 851 l 575 851 l 464 935 l 351 851 l 249 851 l 397 976 l 529 976 l 678 851 m 454 1229 q 531 1205 503 1229 q 560 1142 560 1181 q 537 1079 560 1111 q 474 1019 514 1047 l 421 1042 q 467 1084 450 1061 q 483 1126 483 1107 q 471 1156 483 1144 q 436 1167 458 1167 q 383 1151 408 1167 l 353 1197 q 454 1229 406 1229 z "},"ẫ":{"ha":933,"x_min":61,"x_max":797,"o":"m 797 728 l 797 0 l 704 0 l 704 164 q 588 39 663 83 q 414 -6 513 -6 q 231 42 311 -6 q 106 174 150 89 q 61 365 61 258 q 106 556 61 472 q 230 686 150 639 q 411 733 310 733 q 587 689 511 733 q 704 564 663 644 l 704 728 l 797 728 m 431 75 q 618 147 543 75 q 704 333 693 218 l 704 392 q 618 580 693 507 q 431 653 543 653 q 289 615 351 653 q 190 512 226 578 q 154 363 154 446 q 190 214 154 279 q 288 112 225 149 q 431 75 351 75 m 679 851 l 576 851 l 465 935 l 353 851 l 250 851 l 399 976 l 531 976 l 679 851 m 667 1160 q 640 1067 667 1103 q 560 1032 613 1032 q 507 1042 531 1032 q 451 1071 483 1051 q 410 1094 428 1086 q 376 1101 393 1101 q 335 1084 349 1101 q 321 1036 321 1067 l 263 1036 q 290 1130 263 1094 q 369 1165 317 1165 q 422 1156 399 1165 q 478 1126 446 1146 q 519 1103 501 1111 q 553 1096 536 1096 q 594 1113 581 1096 q 608 1160 608 1131 l 667 1160 z "},"ȁ":{"ha":933,"x_min":61,"x_max":797,"o":"m 797 728 l 797 0 l 704 0 l 704 164 q 588 39 663 83 q 414 -6 513 -6 q 231 42 311 -6 q 106 174 150 89 q 61 365 61 258 q 106 556 61 472 q 230 686 150 639 q 411 733 310 733 q 587 689 511 733 q 704 564 663 644 l 704 728 l 797 728 m 431 75 q 618 147 543 75 q 704 333 693 218 l 704 392 q 618 580 693 507 q 431 653 543 653 q 289 615 351 653 q 190 512 226 578 q 154 363 154 446 q 190 214 154 279 q 288 112 225 149 q 431 75 351 75 m 296 1043 l 419 867 l 344 857 l 215 1004 l 296 1043 m 493 1043 l 617 867 l 542 857 l 413 1004 l 493 1043 z "},"ä":{"ha":933,"x_min":61,"x_max":797,"o":"m 797 728 l 797 0 l 704 0 l 704 164 q 588 39 663 83 q 414 -6 513 -6 q 231 42 311 -6 q 106 174 150 89 q 61 365 61 258 q 106 556 61 472 q 230 686 150 639 q 411 733 310 733 q 587 689 511 733 q 704 564 663 644 l 704 728 l 797 728 m 431 75 q 618 147 543 75 q 704 333 693 218 l 704 392 q 618 580 693 507 q 431 653 543 653 q 289 615 351 653 q 190 512 226 578 q 154 363 154 446 q 190 214 154 279 q 288 112 225 149 q 431 75 351 75 m 350 997 q 392 980 375 997 q 410 936 410 963 q 392 893 410 911 q 350 875 375 875 q 308 893 325 875 q 290 936 290 911 q 308 980 290 963 q 350 997 325 997 m 578 997 q 620 980 603 997 q 638 936 638 963 q 620 893 638 911 q 578 875 603 875 q 535 893 553 875 q 518 936 518 911 q 535 980 518 963 q 578 997 553 997 z "},"ạ":{"ha":933,"x_min":61,"x_max":797,"o":"m 797 728 l 797 0 l 704 0 l 704 164 q 588 39 663 83 q 414 -6 513 -6 q 231 42 311 -6 q 106 174 150 89 q 61 365 61 258 q 106 556 61 472 q 230 686 150 639 q 411 733 310 733 q 587 689 511 733 q 704 564 663 644 l 704 728 l 797 728 m 431 75 q 618 147 543 75 q 704 333 693 218 l 704 392 q 618 580 693 507 q 431 653 543 653 q 289 615 351 653 q 190 512 226 578 q 154 363 154 446 q 190 214 154 279 q 288 112 225 149 q 431 75 351 75 m 464 -106 q 510 -124 492 -106 q 528 -171 528 -143 q 509 -218 528 -199 q 464 -237 490 -237 q 417 -218 436 -237 q 399 -171 399 -199 q 417 -124 399 -143 q 464 -106 436 -106 z "},"à":{"ha":933,"x_min":61,"x_max":797,"o":"m 797 728 l 797 0 l 704 0 l 704 164 q 588 39 663 83 q 414 -6 513 -6 q 231 42 311 -6 q 106 174 150 89 q 61 365 61 258 q 106 556 61 472 q 230 686 150 639 q 411 733 310 733 q 587 689 511 733 q 704 564 663 644 l 704 728 l 797 728 m 431 75 q 618 147 543 75 q 704 333 693 218 l 704 392 q 618 580 693 507 q 431 653 543 653 q 289 615 351 653 q 190 512 226 578 q 154 363 154 446 q 190 214 154 279 q 288 112 225 149 q 431 75 351 75 m 367 1038 l 529 867 l 446 857 l 271 996 l 367 1038 z "},"ả":{"ha":933,"x_min":61,"x_max":797,"o":"m 797 728 l 797 0 l 704 0 l 704 164 q 588 39 663 83 q 414 -6 513 -6 q 231 42 311 -6 q 106 174 150 89 q 61 365 61 258 q 106 556 61 472 q 230 686 150 639 q 411 733 310 733 q 587 689 511 733 q 704 564 663 644 l 704 728 l 797 728 m 431 75 q 618 147 543 75 q 704 333 693 218 l 704 392 q 618 580 693 507 q 431 653 543 653 q 289 615 351 653 q 190 512 226 578 q 154 363 154 446 q 190 214 154 279 q 288 112 225 149 q 431 75 351 75 m 453 1067 q 540 1038 507 1067 q 574 961 574 1010 q 549 883 574 924 q 483 808 524 842 l 426 833 q 475 890 457 858 q 493 947 493 921 q 477 985 493 969 q 436 1000 461 1000 q 375 979 406 1000 l 342 1032 q 453 1067 393 1067 z "},"ȃ":{"ha":933,"x_min":61,"x_max":797,"o":"m 797 728 l 797 0 l 704 0 l 704 164 q 588 39 663 83 q 414 -6 513 -6 q 231 42 311 -6 q 106 174 150 89 q 61 365 61 258 q 106 556 61 472 q 230 686 150 639 q 411 733 310 733 q 587 689 511 733 q 704 564 663 644 l 704 728 l 797 728 m 431 75 q 618 147 543 75 q 704 333 693 218 l 704 392 q 618 580 693 507 q 431 653 543 653 q 289 615 351 653 q 190 512 226 578 q 154 363 154 446 q 190 214 154 279 q 288 112 225 149 q 431 75 351 75 m 292 853 q 343 976 294 928 q 463 1024 392 1024 q 583 976 535 1024 q 633 853 632 928 l 565 853 q 534 928 563 899 q 463 958 506 958 q 391 928 419 958 q 360 853 363 899 l 292 853 z "},"ā":{"ha":933,"x_min":61,"x_max":797,"o":"m 797 728 l 797 0 l 704 0 l 704 164 q 588 39 663 83 q 414 -6 513 -6 q 231 42 311 -6 q 106 174 150 89 q 61 365 61 258 q 106 556 61 472 q 230 686 150 639 q 411 733 310 733 q 587 689 511 733 q 704 564 663 644 l 704 728 l 797 728 m 431 75 q 618 147 543 75 q 704 333 693 218 l 704 392 q 618 580 693 507 q 431 653 543 653 q 289 615 351 653 q 190 512 226 578 q 154 363 154 446 q 190 214 154 279 q 288 112 225 149 q 431 75 351 75 m 271 968 l 654 968 l 654 904 l 271 904 l 271 968 z "},"ą":{"ha":933,"x_min":61,"x_max":797,"o":"m 797 0 q 687 -92 721 -54 q 653 -169 653 -131 q 667 -212 653 -199 q 707 -226 682 -226 q 771 -207 739 -226 l 796 -269 q 689 -299 746 -299 q 599 -269 632 -299 q 565 -185 565 -239 q 704 13 565 -81 l 704 164 q 588 39 663 83 q 414 -6 513 -6 q 231 42 311 -6 q 106 174 150 89 q 61 365 61 258 q 106 556 61 472 q 230 686 150 639 q 411 733 310 733 q 587 689 511 733 q 704 564 663 644 l 704 728 l 797 728 l 797 0 m 431 75 q 618 147 543 75 q 704 333 693 218 l 704 392 q 618 580 693 507 q 431 653 543 653 q 289 615 351 653 q 190 512 226 578 q 154 363 154 446 q 190 214 154 279 q 288 112 225 149 q 431 75 351 75 z "},"å":{"ha":933,"x_min":61,"x_max":797,"o":"m 797 728 l 797 0 l 704 0 l 704 164 q 588 39 663 83 q 414 -6 513 -6 q 231 42 311 -6 q 106 174 150 89 q 61 365 61 258 q 106 556 61 472 q 230 686 150 639 q 411 733 310 733 q 587 689 511 733 q 704 564 663 644 l 704 728 l 797 728 m 431 75 q 618 147 543 75 q 704 333 693 218 l 704 392 q 618 580 693 507 q 431 653 543 653 q 289 615 351 653 q 190 512 226 578 q 154 363 154 446 q 190 214 154 279 q 288 112 225 149 q 431 75 351 75 m 463 1079 q 560 1038 519 1079 q 601 942 601 997 q 560 846 601 886 q 463 806 519 806 q 365 846 406 806 q 324 942 324 886 q 365 1038 324 997 q 463 1079 406 1079 m 463 1025 q 401 1001 426 1025 q 376 942 376 976 q 402 884 376 908 q 463 860 428 860 q 523 884 497 860 q 549 942 549 908 q 523 1001 549 976 q 463 1025 497 1025 z "},"ǻ":{"ha":933,"x_min":61,"x_max":797,"o":"m 797 728 l 797 0 l 704 0 l 704 164 q 588 39 663 83 q 414 -6 513 -6 q 231 42 311 -6 q 106 174 150 89 q 61 365 61 258 q 106 556 61 472 q 230 686 150 639 q 411 733 310 733 q 587 689 511 733 q 704 564 663 644 l 704 728 l 797 728 m 431 75 q 618 147 543 75 q 704 333 693 218 l 704 392 q 618 580 693 507 q 431 653 543 653 q 289 615 351 653 q 190 512 226 578 q 154 363 154 446 q 190 214 154 279 q 288 112 225 149 q 431 75 351 75 m 463 1079 q 560 1038 519 1079 q 601 942 601 997 q 560 846 601 886 q 463 806 519 806 q 365 846 406 806 q 324 942 324 886 q 365 1038 324 997 q 463 1079 406 1079 m 463 1025 q 401 1001 426 1025 q 376 942 376 976 q 402 884 376 908 q 463 860 428 860 q 523 884 497 860 q 549 942 549 908 q 523 1001 549 976 q 463 1025 497 1025 m 567 1290 l 646 1238 l 450 1129 l 374 1153 l 567 1290 z "},"ã":{"ha":933,"x_min":61,"x_max":797,"o":"m 797 728 l 797 0 l 704 0 l 704 164 q 588 39 663 83 q 414 -6 513 -6 q 231 42 311 -6 q 106 174 150 89 q 61 365 61 258 q 106 556 61 472 q 230 686 150 639 q 411 733 310 733 q 587 689 511 733 q 704 564 663 644 l 704 728 l 797 728 m 431 75 q 618 147 543 75 q 704 333 693 218 l 704 392 q 618 580 693 507 q 431 653 543 653 q 289 615 351 653 q 190 512 226 578 q 154 363 154 446 q 190 214 154 279 q 288 112 225 149 q 431 75 351 75 m 667 1004 q 640 897 667 939 q 558 856 613 856 q 506 867 529 856 q 453 900 483 879 q 410 927 425 919 q 379 935 396 935 q 340 915 353 935 q 326 861 326 896 l 258 861 q 285 968 258 926 q 367 1010 313 1010 q 419 998 396 1010 q 472 964 443 986 q 515 937 500 944 q 546 929 529 929 q 599 1004 599 929 l 667 1004 z "},"æ":{"ha":1346,"x_min":72,"x_max":1289,"o":"m 972 74 q 1208 179 1114 74 l 1264 129 q 967 -3 1149 -3 q 769 49 858 -3 q 638 190 681 101 q 319 -4 546 -4 q 192 24 249 -4 q 104 103 136 53 q 72 215 72 153 q 145 364 72 310 q 346 418 218 418 l 592 418 l 592 472 q 538 608 590 561 q 388 654 486 654 q 153 567 276 654 l 113 631 q 258 708 192 686 q 406 731 325 731 q 574 688 507 731 q 663 569 640 646 q 786 688 707 646 q 964 731 865 731 q 1179 658 1093 731 q 1289 460 1265 586 l 715 253 q 813 122 744 171 q 972 74 882 74 m 965 653 q 768 573 840 653 q 697 356 696 493 q 699 326 697 336 l 1194 506 q 1106 615 1164 578 q 965 653 1047 653 m 593 346 l 358 346 q 161 218 161 346 q 209 113 161 153 q 336 74 257 74 q 500 120 435 74 q 593 257 565 167 l 593 346 z "},"ǽ":{"ha":1346,"x_min":72,"x_max":1289,"o":"m 972 74 q 1208 179 1114 74 l 1264 129 q 967 -3 1149 -3 q 769 49 858 -3 q 638 190 681 101 q 319 -4 546 -4 q 192 24 249 -4 q 104 103 136 53 q 72 215 72 153 q 145 364 72 310 q 346 418 218 418 l 592 418 l 592 472 q 538 608 590 561 q 388 654 486 654 q 153 567 276 654 l 113 631 q 258 708 192 686 q 406 731 325 731 q 574 688 507 731 q 663 569 640 646 q 786 688 707 646 q 964 731 865 731 q 1179 658 1093 731 q 1289 460 1265 586 l 715 253 q 813 122 744 171 q 972 74 882 74 m 965 653 q 768 573 840 653 q 697 356 696 493 q 699 326 697 336 l 1194 506 q 1106 615 1164 578 q 965 653 1047 653 m 593 346 l 358 346 q 161 218 161 346 q 209 113 161 153 q 336 74 257 74 q 500 120 435 74 q 593 257 565 167 l 593 346 m 772 1038 l 868 996 l 693 857 l 610 867 l 772 1038 z "},"b":{"ha":938,"x_min":143,"x_max":876,"o":"m 526 731 q 708 684 628 731 q 832 553 788 638 q 876 363 876 469 q 832 174 876 257 q 708 44 788 90 q 528 -3 629 -3 q 353 42 428 -3 q 236 168 278 88 l 236 0 l 143 0 l 143 1031 l 236 1031 l 236 560 q 352 685 276 640 q 526 731 428 731 m 510 78 q 650 115 588 78 q 747 217 713 151 q 782 365 782 282 q 747 513 782 447 q 650 615 713 578 q 510 651 588 651 q 369 615 431 651 q 272 513 307 578 q 236 365 236 447 q 271 217 236 282 q 368 115 306 151 q 510 78 431 78 z "},"c":{"ha":779,"x_min":60,"x_max":707,"o":"m 643 563 q 425 649 554 649 q 285 613 347 649 q 188 512 222 576 q 153 364 153 447 q 188 215 153 281 q 285 114 222 150 q 425 78 347 78 q 555 103 496 78 q 654 175 614 128 l 707 119 q 585 29 658 61 q 421 -3 511 -3 q 235 44 317 -3 q 106 174 153 90 q 60 364 60 258 q 106 553 60 469 q 235 684 153 638 q 421 731 317 731 q 576 703 506 731 q 696 625 646 675 l 643 563 z "},"ć":{"ha":779,"x_min":60,"x_max":707,"o":"m 643 563 q 425 649 554 649 q 285 613 347 649 q 188 512 222 576 q 153 364 153 447 q 188 215 153 281 q 285 114 222 150 q 425 78 347 78 q 555 103 496 78 q 654 175 614 128 l 707 119 q 585 29 658 61 q 421 -3 511 -3 q 235 44 317 -3 q 106 174 153 90 q 60 364 60 258 q 106 553 60 469 q 235 684 153 638 q 421 731 317 731 q 576 703 506 731 q 696 625 646 675 l 643 563 m 508 1038 l 604 996 l 429 857 l 346 867 l 508 1038 z "},"č":{"ha":779,"x_min":60,"x_max":707,"o":"m 643 563 q 425 649 554 649 q 285 613 347 649 q 188 512 222 576 q 153 364 153 447 q 188 215 153 281 q 285 114 222 150 q 425 78 347 78 q 555 103 496 78 q 654 175 614 128 l 707 119 q 585 29 658 61 q 421 -3 511 -3 q 235 44 317 -3 q 106 174 153 90 q 60 364 60 258 q 106 553 60 469 q 235 684 153 638 q 421 731 317 731 q 576 703 506 731 q 696 625 646 675 l 643 563 m 504 1033 l 600 1033 l 457 860 l 354 860 l 213 1033 l 308 1033 l 406 928 l 504 1033 z "},"ç":{"ha":779,"x_min":60,"x_max":707,"o":"m 707 119 q 594 33 661 65 q 443 -3 526 1 l 421 -74 q 505 -110 476 -79 q 533 -181 533 -140 q 494 -267 533 -233 q 390 -300 454 -300 q 329 -292 361 -300 q 272 -269 297 -283 l 294 -210 q 336 -226 313 -219 q 381 -232 360 -232 q 437 -214 417 -232 q 457 -172 457 -196 q 437 -134 457 -150 q 382 -118 417 -118 l 340 -118 l 376 0 q 212 58 283 10 q 100 186 140 107 q 60 364 60 265 q 106 553 60 469 q 235 684 153 638 q 421 731 317 731 q 576 703 506 731 q 696 625 646 675 l 643 563 q 425 649 554 649 q 285 613 347 649 q 188 512 222 576 q 153 364 153 447 q 188 215 153 281 q 285 114 222 150 q 425 78 347 78 q 555 103 496 78 q 654 175 614 128 l 707 119 z "},"ḉ":{"ha":779,"x_min":60,"x_max":707,"o":"m 592 1029 l 417 890 l 333 900 l 496 1071 l 592 1029 m 707 119 q 594 33 661 65 q 443 -3 526 1 l 421 -74 q 505 -110 476 -79 q 533 -181 533 -140 q 494 -267 533 -233 q 390 -300 454 -300 q 329 -292 361 -300 q 272 -269 297 -283 l 294 -210 q 336 -226 313 -219 q 381 -232 360 -232 q 437 -214 417 -232 q 457 -172 457 -196 q 437 -134 457 -150 q 382 -118 417 -118 l 340 -118 l 376 0 q 212 58 283 10 q 100 186 140 107 q 60 364 60 265 q 106 553 60 469 q 235 684 153 638 q 421 731 317 731 q 576 703 506 731 q 696 625 646 675 l 643 563 q 425 649 554 649 q 285 613 347 649 q 188 512 222 576 q 153 364 153 447 q 188 215 153 281 q 285 114 222 150 q 425 78 347 78 q 555 103 496 78 q 654 175 614 128 l 707 119 z "},"ĉ":{"ha":779,"x_min":60,"x_max":707,"o":"m 643 563 q 425 649 554 649 q 285 613 347 649 q 188 512 222 576 q 153 364 153 447 q 188 215 153 281 q 285 114 222 150 q 425 78 347 78 q 555 103 496 78 q 654 175 614 128 l 707 119 q 585 29 658 61 q 421 -3 511 -3 q 235 44 317 -3 q 106 174 153 90 q 60 364 60 258 q 106 553 60 469 q 235 684 153 638 q 421 731 317 731 q 576 703 506 731 q 696 625 646 675 l 643 563 m 600 860 l 504 860 l 407 965 l 308 860 l 213 860 l 356 1033 l 458 1033 l 600 860 z "},"ċ":{"ha":779,"x_min":60,"x_max":707,"o":"m 643 563 q 425 649 554 649 q 285 613 347 649 q 188 512 222 576 q 153 364 153 447 q 188 215 153 281 q 285 114 222 150 q 425 78 347 78 q 555 103 496 78 q 654 175 614 128 l 707 119 q 585 29 658 61 q 421 -3 511 -3 q 235 44 317 -3 q 106 174 153 90 q 60 364 60 258 q 106 553 60 469 q 235 684 153 638 q 421 731 317 731 q 576 703 506 731 q 696 625 646 675 l 643 563 m 407 1003 q 453 984 435 1003 q 471 938 471 965 q 452 890 471 910 q 407 871 433 871 q 360 890 379 871 q 342 938 342 910 q 360 984 342 965 q 407 1003 379 1003 z "},"d":{"ha":942,"x_min":61,"x_max":799,"o":"m 799 1031 l 799 0 l 706 0 l 706 167 q 589 40 664 85 q 414 -6 514 -6 q 231 42 311 -6 q 106 174 150 89 q 61 365 61 258 q 106 556 61 472 q 231 686 151 639 q 413 733 311 733 q 588 688 513 733 q 706 560 664 642 l 706 1031 l 799 1031 m 431 75 q 572 112 510 75 q 670 214 635 149 q 706 363 706 279 q 670 512 706 446 q 572 615 635 578 q 431 653 510 653 q 289 615 351 653 q 190 512 226 578 q 154 363 154 446 q 190 214 154 279 q 288 112 225 149 q 431 75 351 75 z "},"ð":{"ha":803,"x_min":67,"x_max":744,"o":"m 511 849 q 683 605 622 736 q 744 340 744 474 q 701 159 744 238 q 577 38 657 81 q 392 -4 497 -4 q 221 35 294 -4 q 107 144 147 74 q 67 310 67 215 q 106 469 67 400 q 216 575 144 538 q 382 613 288 613 q 543 573 471 613 q 649 468 615 533 q 574 647 629 558 q 438 814 519 736 l 196 703 l 171 758 l 388 858 q 194 985 297 933 l 256 1035 q 463 893 372 974 l 651 981 l 678 925 l 511 849 m 400 79 q 579 142 513 79 q 646 307 646 204 q 579 478 646 414 q 400 542 513 542 q 223 480 289 542 q 157 315 157 418 q 223 144 157 208 q 400 79 289 79 z "},"ď":{"ha":994,"x_min":61,"x_max":1018,"o":"m 799 1031 l 799 0 l 706 0 l 706 167 q 589 40 664 85 q 414 -6 514 -6 q 231 42 311 -6 q 106 174 150 89 q 61 365 61 258 q 106 556 61 472 q 231 686 151 639 q 413 733 311 733 q 588 688 513 733 q 706 560 664 642 l 706 1031 l 799 1031 m 431 75 q 572 112 510 75 q 670 214 635 149 q 706 363 706 279 q 670 512 706 446 q 572 615 635 578 q 431 653 510 653 q 289 615 351 653 q 190 512 226 578 q 154 363 154 446 q 190 214 154 279 q 288 112 225 149 q 431 75 351 75 m 929 1031 l 1018 1031 l 996 767 l 929 767 l 929 1031 z "},"đ":{"ha":940,"x_min":61,"x_max":903,"o":"m 903 839 l 799 839 l 799 0 l 706 0 l 706 171 q 586 42 664 89 q 411 -6 508 -6 q 231 41 310 -6 q 106 170 151 88 q 61 357 61 253 q 106 544 61 463 q 229 672 150 626 q 410 718 308 718 q 585 672 507 718 q 706 543 663 625 l 706 839 l 390 839 l 390 900 l 706 900 l 706 1031 l 799 1031 l 799 900 l 903 900 l 903 839 m 431 75 q 572 111 510 75 q 670 211 635 147 q 706 356 706 275 q 670 501 706 436 q 572 601 635 565 q 431 638 510 638 q 288 601 351 638 q 190 501 225 565 q 154 356 154 436 q 190 211 154 275 q 288 111 225 147 q 431 75 351 75 z "},"ḍ":{"ha":942,"x_min":61,"x_max":799,"o":"m 799 1031 l 799 0 l 706 0 l 706 167 q 589 40 664 85 q 414 -6 514 -6 q 231 42 311 -6 q 106 174 150 89 q 61 365 61 258 q 106 556 61 472 q 231 686 151 639 q 413 733 311 733 q 588 688 513 733 q 706 560 664 642 l 706 1031 l 799 1031 m 431 75 q 572 112 510 75 q 670 214 635 149 q 706 363 706 279 q 670 512 706 446 q 572 615 635 578 q 431 653 510 653 q 289 615 351 653 q 190 512 226 578 q 154 363 154 446 q 190 214 154 279 q 288 112 225 149 q 431 75 351 75 m 479 -106 q 525 -124 507 -106 q 543 -171 543 -143 q 524 -218 543 -199 q 479 -237 506 -237 q 433 -218 451 -237 q 414 -171 414 -199 q 433 -124 414 -143 q 479 -106 451 -106 z "},"ḏ":{"ha":942,"x_min":61,"x_max":799,"o":"m 799 1031 l 799 0 l 706 0 l 706 167 q 589 40 664 85 q 414 -6 514 -6 q 231 42 311 -6 q 106 174 150 89 q 61 365 61 258 q 106 556 61 472 q 231 686 151 639 q 413 733 311 733 q 588 688 513 733 q 706 560 664 642 l 706 1031 l 799 1031 m 431 75 q 572 112 510 75 q 670 214 635 149 q 706 363 706 279 q 670 512 706 446 q 572 615 635 578 q 431 653 510 653 q 289 615 351 653 q 190 512 226 578 q 154 363 154 446 q 190 214 154 279 q 288 112 225 149 q 431 75 351 75 m 286 -119 l 669 -119 l 669 -183 l 286 -183 l 286 -119 z "},"ǆ":{"ha":1668,"x_min":61,"x_max":1608,"o":"m 799 1031 l 799 0 l 706 0 l 706 167 q 589 40 664 85 q 414 -6 514 -6 q 231 42 311 -6 q 106 174 150 89 q 61 365 61 258 q 106 556 61 472 q 231 686 151 639 q 413 733 311 733 q 588 688 513 733 q 706 560 664 642 l 706 1031 l 799 1031 m 431 75 q 572 112 510 75 q 670 214 635 149 q 706 363 706 279 q 670 512 706 446 q 572 615 635 578 q 431 653 510 653 q 289 615 351 653 q 190 512 226 578 q 154 363 154 446 q 190 214 154 279 q 288 112 225 149 q 431 75 351 75 m 1129 78 l 1608 76 l 1608 -1 l 1017 0 l 1017 71 l 1228 332 l 1071 332 l 1071 407 l 1289 407 l 1485 650 l 1029 651 l 1029 728 l 1597 726 l 1597 657 l 1390 401 l 1549 401 l 1549 326 l 1331 326 l 1129 78 m 1415 1033 l 1511 1033 l 1368 860 l 1265 860 l 1124 1033 l 1219 1033 l 1317 928 l 1415 1033 z "},"e":{"ha":799,"x_min":61,"x_max":750,"o":"m 433 74 q 672 194 578 74 l 731 144 q 428 -3 613 -3 q 238 44 321 -3 q 108 174 154 90 q 61 365 61 258 q 107 554 61 471 q 235 684 153 638 q 424 731 318 731 q 642 658 553 731 q 750 461 731 586 l 172 256 q 271 122 201 171 q 433 74 340 74 m 425 653 q 228 576 303 653 q 154 368 154 499 q 157 326 154 354 l 654 507 q 567 616 626 579 q 425 653 507 653 z "},"é":{"ha":799,"x_min":61,"x_max":750,"o":"m 433 74 q 672 194 578 74 l 731 144 q 428 -3 613 -3 q 238 44 321 -3 q 108 174 154 90 q 61 365 61 258 q 107 554 61 471 q 235 684 153 638 q 424 731 318 731 q 642 658 553 731 q 750 461 731 586 l 172 256 q 271 122 201 171 q 433 74 340 74 m 425 653 q 228 576 303 653 q 154 368 154 499 q 157 326 154 354 l 654 507 q 567 616 626 579 q 425 653 507 653 m 518 1038 l 614 996 l 439 857 l 356 867 l 518 1038 z "},"ĕ":{"ha":799,"x_min":61,"x_max":750,"o":"m 433 74 q 672 194 578 74 l 731 144 q 428 -3 613 -3 q 238 44 321 -3 q 108 174 154 90 q 61 365 61 258 q 107 554 61 471 q 235 684 153 638 q 424 731 318 731 q 642 658 553 731 q 750 461 731 586 l 172 256 q 271 122 201 171 q 433 74 340 74 m 425 653 q 228 576 303 653 q 154 368 154 499 q 157 326 154 354 l 654 507 q 567 616 626 579 q 425 653 507 653 m 313 1024 q 344 949 315 979 q 415 919 372 919 q 487 949 458 919 q 518 1024 515 979 l 586 1024 q 536 901 585 949 q 415 853 488 853 q 296 901 344 853 q 244 1024 247 949 l 313 1024 z "},"ě":{"ha":799,"x_min":61,"x_max":750,"o":"m 433 74 q 672 194 578 74 l 731 144 q 428 -3 613 -3 q 238 44 321 -3 q 108 174 154 90 q 61 365 61 258 q 107 554 61 471 q 235 684 153 638 q 424 731 318 731 q 642 658 553 731 q 750 461 731 586 l 172 256 q 271 122 201 171 q 433 74 340 74 m 425 653 q 228 576 303 653 q 154 368 154 499 q 157 326 154 354 l 654 507 q 567 616 626 579 q 425 653 507 653 m 514 1033 l 610 1033 l 467 860 l 364 860 l 222 1033 l 318 1033 l 415 928 l 514 1033 z "},"ḝ":{"ha":799,"x_min":61,"x_max":750,"o":"m 407 886 q 288 934 336 886 q 236 1057 239 982 l 304 1057 q 335 983 307 1013 q 407 953 364 953 q 478 983 450 953 q 510 1057 507 1013 l 578 1057 q 528 934 576 982 q 407 886 479 886 m 433 74 q 672 194 578 74 l 731 144 q 458 -1 622 10 l 435 -74 q 519 -110 490 -79 q 547 -181 547 -140 q 508 -267 547 -233 q 404 -300 468 -300 q 343 -292 375 -300 q 286 -269 311 -283 l 308 -210 q 350 -226 326 -219 q 394 -232 374 -232 q 451 -214 431 -232 q 471 -172 471 -196 q 451 -134 471 -150 q 396 -118 431 -118 l 354 -118 l 390 -1 q 219 56 293 7 q 103 184 144 104 q 61 365 61 264 q 107 554 61 471 q 235 684 153 638 q 424 731 318 731 q 642 658 553 731 q 750 461 731 586 l 172 256 q 271 122 201 171 q 433 74 340 74 m 425 653 q 228 576 303 653 q 154 368 154 499 q 157 326 154 354 l 654 507 q 567 616 626 579 q 425 653 507 653 z "},"ê":{"ha":799,"x_min":61,"x_max":750,"o":"m 433 74 q 672 194 578 74 l 731 144 q 428 -3 613 -3 q 238 44 321 -3 q 108 174 154 90 q 61 365 61 258 q 107 554 61 471 q 235 684 153 638 q 424 731 318 731 q 642 658 553 731 q 750 461 731 586 l 172 256 q 271 122 201 171 q 433 74 340 74 m 425 653 q 228 576 303 653 q 154 368 154 499 q 157 326 154 354 l 654 507 q 567 616 626 579 q 425 653 507 653 m 610 860 l 514 860 l 417 965 l 318 860 l 222 860 l 365 1033 l 468 1033 l 610 860 z "},"ế":{"ha":799,"x_min":61,"x_max":750,"o":"m 433 74 q 672 194 578 74 l 731 144 q 428 -3 613 -3 q 238 44 321 -3 q 108 174 154 90 q 61 365 61 258 q 107 554 61 471 q 235 684 153 638 q 424 731 318 731 q 642 658 553 731 q 750 461 731 586 l 172 256 q 271 122 201 171 q 433 74 340 74 m 425 653 q 228 576 303 653 q 154 368 154 499 q 157 326 154 354 l 654 507 q 567 616 626 579 q 425 653 507 653 m 631 851 l 528 851 l 417 935 l 304 851 l 201 851 l 350 976 l 482 976 l 631 851 m 519 1182 l 599 1129 l 403 1021 l 326 1044 l 519 1182 z "},"ệ":{"ha":799,"x_min":61,"x_max":750,"o":"m 433 74 q 672 194 578 74 l 731 144 q 428 -3 613 -3 q 238 44 321 -3 q 108 174 154 90 q 61 365 61 258 q 107 554 61 471 q 235 684 153 638 q 424 731 318 731 q 642 658 553 731 q 750 461 731 586 l 172 256 q 271 122 201 171 q 433 74 340 74 m 425 653 q 228 576 303 653 q 154 368 154 499 q 157 326 154 354 l 654 507 q 567 616 626 579 q 425 653 507 653 m 417 -106 q 463 -124 444 -106 q 481 -171 481 -143 q 462 -218 481 -199 q 417 -237 443 -237 q 370 -218 389 -237 q 351 -171 351 -199 q 370 -124 351 -143 q 417 -106 389 -106 m 610 860 l 514 860 l 417 965 l 318 860 l 222 860 l 365 1033 l 468 1033 l 610 860 z "},"ề":{"ha":799,"x_min":61,"x_max":750,"o":"m 433 74 q 672 194 578 74 l 731 144 q 428 -3 613 -3 q 238 44 321 -3 q 108 174 154 90 q 61 365 61 258 q 107 554 61 471 q 235 684 153 638 q 424 731 318 731 q 642 658 553 731 q 750 461 731 586 l 172 256 q 271 122 201 171 q 433 74 340 74 m 425 653 q 228 576 303 653 q 154 368 154 499 q 157 326 154 354 l 654 507 q 567 616 626 579 q 425 653 507 653 m 631 851 l 528 851 l 417 935 l 304 851 l 201 851 l 350 976 l 482 976 l 631 851 m 310 1182 l 501 1044 l 426 1021 l 229 1129 l 310 1182 z "},"ể":{"ha":799,"x_min":61,"x_max":750,"o":"m 433 74 q 672 194 578 74 l 731 144 q 428 -3 613 -3 q 238 44 321 -3 q 108 174 154 90 q 61 365 61 258 q 107 554 61 471 q 235 684 153 638 q 424 731 318 731 q 642 658 553 731 q 750 461 731 586 l 172 256 q 271 122 201 171 q 433 74 340 74 m 425 653 q 228 576 303 653 q 154 368 154 499 q 157 326 154 354 l 654 507 q 567 616 626 579 q 425 653 507 653 m 631 851 l 528 851 l 417 935 l 304 851 l 201 851 l 350 976 l 482 976 l 631 851 m 407 1229 q 484 1205 456 1229 q 513 1142 513 1181 q 490 1079 513 1111 q 426 1019 467 1047 l 374 1042 q 419 1084 403 1061 q 436 1126 436 1107 q 424 1156 436 1144 q 389 1167 411 1167 q 336 1151 361 1167 l 306 1197 q 407 1229 358 1229 z "},"ễ":{"ha":799,"x_min":61,"x_max":750,"o":"m 433 74 q 672 194 578 74 l 731 144 q 428 -3 613 -3 q 238 44 321 -3 q 108 174 154 90 q 61 365 61 258 q 107 554 61 471 q 235 684 153 638 q 424 731 318 731 q 642 658 553 731 q 750 461 731 586 l 172 256 q 271 122 201 171 q 433 74 340 74 m 425 653 q 228 576 303 653 q 154 368 154 499 q 157 326 154 354 l 654 507 q 567 616 626 579 q 425 653 507 653 m 632 851 l 529 851 l 418 935 l 306 851 l 203 851 l 351 976 l 483 976 l 632 851 m 619 1160 q 592 1067 619 1103 q 513 1032 565 1032 q 460 1042 483 1032 q 404 1071 436 1051 q 363 1094 381 1086 q 329 1101 346 1101 q 288 1084 301 1101 q 274 1036 274 1067 l 215 1036 q 242 1130 215 1094 q 322 1165 269 1165 q 375 1156 351 1165 q 431 1126 399 1146 q 472 1103 454 1111 q 506 1096 489 1096 q 547 1113 533 1096 q 561 1160 561 1131 l 619 1160 z "},"ȅ":{"ha":799,"x_min":61,"x_max":750,"o":"m 433 74 q 672 194 578 74 l 731 144 q 428 -3 613 -3 q 238 44 321 -3 q 108 174 154 90 q 61 365 61 258 q 107 554 61 471 q 235 684 153 638 q 424 731 318 731 q 642 658 553 731 q 750 461 731 586 l 172 256 q 271 122 201 171 q 433 74 340 74 m 425 653 q 228 576 303 653 q 154 368 154 499 q 157 326 154 354 l 654 507 q 567 616 626 579 q 425 653 507 653 m 249 1043 l 372 867 l 297 857 l 168 1004 l 249 1043 m 446 1043 l 569 867 l 494 857 l 365 1004 l 446 1043 z "},"ë":{"ha":799,"x_min":61,"x_max":750,"o":"m 433 74 q 672 194 578 74 l 731 144 q 428 -3 613 -3 q 238 44 321 -3 q 108 174 154 90 q 61 365 61 258 q 107 554 61 471 q 235 684 153 638 q 424 731 318 731 q 642 658 553 731 q 750 461 731 586 l 172 256 q 271 122 201 171 q 433 74 340 74 m 425 653 q 228 576 303 653 q 154 368 154 499 q 157 326 154 354 l 654 507 q 567 616 626 579 q 425 653 507 653 m 303 997 q 345 980 328 997 q 363 936 363 963 q 345 893 363 911 q 303 875 328 875 q 260 893 278 875 q 243 936 243 911 q 260 980 243 963 q 303 997 278 997 m 531 997 q 573 980 556 997 q 590 936 590 963 q 573 893 590 911 q 531 875 556 875 q 488 893 506 875 q 471 936 471 911 q 488 980 471 963 q 531 997 506 997 z "},"ė":{"ha":799,"x_min":61,"x_max":750,"o":"m 433 74 q 672 194 578 74 l 731 144 q 428 -3 613 -3 q 238 44 321 -3 q 108 174 154 90 q 61 365 61 258 q 107 554 61 471 q 235 684 153 638 q 424 731 318 731 q 642 658 553 731 q 750 461 731 586 l 172 256 q 271 122 201 171 q 433 74 340 74 m 425 653 q 228 576 303 653 q 154 368 154 499 q 157 326 154 354 l 654 507 q 567 616 626 579 q 425 653 507 653 m 417 1003 q 463 984 444 1003 q 481 938 481 965 q 462 890 481 910 q 417 871 443 871 q 370 890 389 871 q 351 938 351 910 q 370 984 351 965 q 417 1003 389 1003 z "},"ẹ":{"ha":799,"x_min":61,"x_max":750,"o":"m 433 74 q 672 194 578 74 l 731 144 q 428 -3 613 -3 q 238 44 321 -3 q 108 174 154 90 q 61 365 61 258 q 107 554 61 471 q 235 684 153 638 q 424 731 318 731 q 642 658 553 731 q 750 461 731 586 l 172 256 q 271 122 201 171 q 433 74 340 74 m 425 653 q 228 576 303 653 q 154 368 154 499 q 157 326 154 354 l 654 507 q 567 616 626 579 q 425 653 507 653 m 417 -106 q 463 -124 444 -106 q 481 -171 481 -143 q 462 -218 481 -199 q 417 -237 443 -237 q 370 -218 389 -237 q 351 -171 351 -199 q 370 -124 351 -143 q 417 -106 389 -106 z "},"è":{"ha":799,"x_min":61,"x_max":750,"o":"m 433 74 q 672 194 578 74 l 731 144 q 428 -3 613 -3 q 238 44 321 -3 q 108 174 154 90 q 61 365 61 258 q 107 554 61 471 q 235 684 153 638 q 424 731 318 731 q 642 658 553 731 q 750 461 731 586 l 172 256 q 271 122 201 171 q 433 74 340 74 m 425 653 q 228 576 303 653 q 154 368 154 499 q 157 326 154 354 l 654 507 q 567 616 626 579 q 425 653 507 653 m 319 1038 l 482 867 l 399 857 l 224 996 l 319 1038 z "},"ẻ":{"ha":799,"x_min":61,"x_max":750,"o":"m 433 74 q 672 194 578 74 l 731 144 q 428 -3 613 -3 q 238 44 321 -3 q 108 174 154 90 q 61 365 61 258 q 107 554 61 471 q 235 684 153 638 q 424 731 318 731 q 642 658 553 731 q 750 461 731 586 l 172 256 q 271 122 201 171 q 433 74 340 74 m 425 653 q 228 576 303 653 q 154 368 154 499 q 157 326 154 354 l 654 507 q 567 616 626 579 q 425 653 507 653 m 406 1067 q 493 1038 460 1067 q 526 961 526 1010 q 501 883 526 924 q 436 808 476 842 l 379 833 q 428 890 410 858 q 446 947 446 921 q 430 985 446 969 q 389 1000 414 1000 q 328 979 358 1000 l 294 1032 q 406 1067 346 1067 z "},"ȇ":{"ha":799,"x_min":61,"x_max":750,"o":"m 433 74 q 672 194 578 74 l 731 144 q 428 -3 613 -3 q 238 44 321 -3 q 108 174 154 90 q 61 365 61 258 q 107 554 61 471 q 235 684 153 638 q 424 731 318 731 q 642 658 553 731 q 750 461 731 586 l 172 256 q 271 122 201 171 q 433 74 340 74 m 425 653 q 228 576 303 653 q 154 368 154 499 q 157 326 154 354 l 654 507 q 567 616 626 579 q 425 653 507 653 m 244 853 q 296 976 247 928 q 415 1024 344 1024 q 536 976 488 1024 q 586 853 585 928 l 518 853 q 487 928 515 899 q 415 958 458 958 q 344 928 372 958 q 313 853 315 899 l 244 853 z "},"ē":{"ha":799,"x_min":61,"x_max":750,"o":"m 433 74 q 672 194 578 74 l 731 144 q 428 -3 613 -3 q 238 44 321 -3 q 108 174 154 90 q 61 365 61 258 q 107 554 61 471 q 235 684 153 638 q 424 731 318 731 q 642 658 553 731 q 750 461 731 586 l 172 256 q 271 122 201 171 q 433 74 340 74 m 425 653 q 228 576 303 653 q 154 368 154 499 q 157 326 154 354 l 654 507 q 567 616 626 579 q 425 653 507 653 m 224 968 l 607 968 l 607 904 l 224 904 l 224 968 z "},"ḗ":{"ha":799,"x_min":61,"x_max":750,"o":"m 433 74 q 672 194 578 74 l 731 144 q 428 -3 613 -3 q 238 44 321 -3 q 108 174 154 90 q 61 365 61 258 q 107 554 61 471 q 235 684 153 638 q 424 731 318 731 q 642 658 553 731 q 750 461 731 586 l 172 256 q 271 122 201 171 q 433 74 340 74 m 425 653 q 228 576 303 653 q 154 368 154 499 q 157 326 154 354 l 654 507 q 567 616 626 579 q 425 653 507 653 m 261 915 l 589 915 l 589 851 l 261 851 l 261 915 m 528 1149 l 607 1096 l 411 988 l 335 1011 l 528 1149 z "},"ḕ":{"ha":799,"x_min":61,"x_max":750,"o":"m 433 74 q 672 194 578 74 l 731 144 q 428 -3 613 -3 q 238 44 321 -3 q 108 174 154 90 q 61 365 61 258 q 107 554 61 471 q 235 684 153 638 q 424 731 318 731 q 642 658 553 731 q 750 461 731 586 l 172 256 q 271 122 201 171 q 433 74 340 74 m 425 653 q 228 576 303 653 q 154 368 154 499 q 157 326 154 354 l 654 507 q 567 616 626 579 q 425 653 507 653 m 256 915 l 583 915 l 583 851 l 256 851 l 256 915 m 313 1149 l 504 1011 l 429 988 l 232 1096 l 313 1149 z "},"ę":{"ha":799,"x_min":61,"x_max":750,"o":"m 433 74 q 672 194 578 74 l 731 144 q 654 69 697 104 q 540 -53 583 11 q 496 -167 496 -118 q 510 -211 496 -196 q 550 -226 525 -226 q 614 -207 583 -226 l 639 -269 q 532 -299 586 -299 q 442 -265 475 -299 q 408 -175 408 -232 q 497 3 408 -90 q 428 -3 468 -3 q 238 44 321 -3 q 108 174 154 90 q 61 365 61 258 q 107 554 61 471 q 235 684 153 638 q 424 731 318 731 q 642 658 553 731 q 750 461 731 586 l 172 256 q 271 122 201 171 q 433 74 340 74 m 425 653 q 228 576 303 653 q 154 368 154 499 q 157 326 154 354 l 654 507 q 567 616 626 579 q 425 653 507 653 z "},"ẽ":{"ha":799,"x_min":61,"x_max":750,"o":"m 433 74 q 672 194 578 74 l 731 144 q 428 -3 613 -3 q 238 44 321 -3 q 108 174 154 90 q 61 365 61 258 q 107 554 61 471 q 235 684 153 638 q 424 731 318 731 q 642 658 553 731 q 750 461 731 586 l 172 256 q 271 122 201 171 q 433 74 340 74 m 425 653 q 228 576 303 653 q 154 368 154 499 q 157 326 154 354 l 654 507 q 567 616 626 579 q 425 653 507 653 m 619 1004 q 592 897 619 939 q 511 856 565 856 q 459 867 482 856 q 406 900 436 879 q 363 927 378 919 q 332 935 349 935 q 292 915 306 935 q 279 861 279 896 l 211 861 q 238 968 211 926 q 319 1010 265 1010 q 372 998 349 1010 q 425 964 396 986 q 467 937 453 944 q 499 929 482 929 q 551 1004 551 929 l 619 1004 z "},"ə":{"ha":799,"x_min":49,"x_max":738,"o":"m 371 731 q 561 684 478 731 q 691 553 644 638 q 738 363 738 469 q 692 174 738 257 q 563 44 646 90 q 375 -3 481 -3 q 157 69 246 -3 q 49 267 68 142 l 626 472 q 528 606 597 557 q 365 654 458 654 q 126 533 221 654 l 68 583 q 371 731 186 731 m 374 75 q 570 152 496 75 q 644 360 644 229 q 642 401 644 374 l 144 221 q 232 112 172 149 q 374 75 292 75 z "},"f":{"ha":414,"x_min":118,"x_max":469,"o":"m 349 958 q 251 918 290 958 q 211 811 211 878 l 211 708 l 424 708 l 424 635 l 211 635 l 211 0 l 118 0 l 118 800 q 149 927 118 872 q 230 1011 179 982 q 340 1040 281 1040 q 469 1007 407 1040 l 444 932 q 349 958 396 958 z "},"g":{"ha":882,"x_min":61,"x_max":765,"o":"m 765 728 l 765 76 q 721 -108 765 -29 q 594 -230 676 -187 q 403 -272 511 -272 q 104 -161 242 -272 l 149 -94 q 265 -168 204 -143 q 399 -193 326 -193 q 598 -120 524 -193 q 672 75 672 -47 l 672 193 q 561 74 633 117 q 394 31 489 31 q 222 76 297 31 q 103 201 146 121 q 61 382 61 281 q 103 563 61 483 q 222 686 146 642 q 396 731 299 731 q 561 688 490 731 q 672 568 632 646 l 672 728 l 765 728 m 411 106 q 546 141 486 106 q 639 239 606 176 q 672 379 672 301 q 639 521 672 458 q 546 619 606 583 q 411 654 486 654 q 276 619 336 654 q 183 521 217 583 q 149 379 149 458 q 183 238 149 300 q 276 141 217 176 q 411 106 335 106 z "},"ğ":{"ha":882,"x_min":61,"x_max":765,"o":"m 765 728 l 765 76 q 721 -108 765 -29 q 594 -230 676 -187 q 403 -272 511 -272 q 104 -161 242 -272 l 149 -94 q 265 -168 204 -143 q 399 -193 326 -193 q 598 -120 524 -193 q 672 75 672 -47 l 672 193 q 561 74 633 117 q 394 31 489 31 q 222 76 297 31 q 103 201 146 121 q 61 382 61 281 q 103 563 61 483 q 222 686 146 642 q 396 731 299 731 q 561 688 490 731 q 672 568 632 646 l 672 728 l 765 728 m 411 106 q 546 141 486 106 q 639 239 606 176 q 672 379 672 301 q 639 521 672 458 q 546 619 606 583 q 411 654 486 654 q 276 619 336 654 q 183 521 217 583 q 149 379 149 458 q 183 238 149 300 q 276 141 217 176 q 411 106 335 106 m 317 1024 q 348 949 319 979 q 419 919 376 919 q 491 949 463 919 q 522 1024 519 979 l 590 1024 q 540 901 589 949 q 419 853 492 853 q 300 901 349 853 q 249 1024 251 949 l 317 1024 z "},"ǧ":{"ha":882,"x_min":61,"x_max":765,"o":"m 765 728 l 765 76 q 721 -108 765 -29 q 594 -230 676 -187 q 403 -272 511 -272 q 104 -161 242 -272 l 149 -94 q 265 -168 204 -143 q 399 -193 326 -193 q 598 -120 524 -193 q 672 75 672 -47 l 672 193 q 561 74 633 117 q 394 31 489 31 q 222 76 297 31 q 103 201 146 121 q 61 382 61 281 q 103 563 61 483 q 222 686 146 642 q 396 731 299 731 q 561 688 490 731 q 672 568 632 646 l 672 728 l 765 728 m 411 106 q 546 141 486 106 q 639 239 606 176 q 672 379 672 301 q 639 521 672 458 q 546 619 606 583 q 411 654 486 654 q 276 619 336 654 q 183 521 217 583 q 149 379 149 458 q 183 238 149 300 q 276 141 217 176 q 411 106 335 106 m 518 1033 l 614 1033 l 471 860 l 368 860 l 226 1033 l 322 1033 l 419 928 l 518 1033 z "},"ĝ":{"ha":882,"x_min":61,"x_max":765,"o":"m 765 728 l 765 76 q 721 -108 765 -29 q 594 -230 676 -187 q 403 -272 511 -272 q 104 -161 242 -272 l 149 -94 q 265 -168 204 -143 q 399 -193 326 -193 q 598 -120 524 -193 q 672 75 672 -47 l 672 193 q 561 74 633 117 q 394 31 489 31 q 222 76 297 31 q 103 201 146 121 q 61 382 61 281 q 103 563 61 483 q 222 686 146 642 q 396 731 299 731 q 561 688 490 731 q 672 568 632 646 l 672 728 l 765 728 m 411 106 q 546 141 486 106 q 639 239 606 176 q 672 379 672 301 q 639 521 672 458 q 546 619 606 583 q 411 654 486 654 q 276 619 336 654 q 183 521 217 583 q 149 379 149 458 q 183 238 149 300 q 276 141 217 176 q 411 106 335 106 m 614 860 l 518 860 l 421 965 l 322 860 l 226 860 l 369 1033 l 472 1033 l 614 860 z "},"ģ":{"ha":882,"x_min":61,"x_max":765,"o":"m 765 728 l 765 76 q 721 -108 765 -29 q 594 -230 676 -187 q 403 -272 511 -272 q 104 -161 242 -272 l 149 -94 q 265 -168 204 -143 q 399 -193 326 -193 q 598 -120 524 -193 q 672 75 672 -47 l 672 193 q 561 74 633 117 q 394 31 489 31 q 222 76 297 31 q 103 201 146 121 q 61 382 61 281 q 103 563 61 483 q 222 686 146 642 q 396 731 299 731 q 561 688 490 731 q 672 568 632 646 l 672 728 l 765 728 m 411 106 q 546 141 486 106 q 639 239 606 176 q 672 379 672 301 q 639 521 672 458 q 546 619 606 583 q 411 654 486 654 q 276 619 336 654 q 183 521 217 583 q 149 379 149 458 q 183 238 149 300 q 276 141 217 176 q 411 106 335 106 m 458 853 l 369 853 l 440 1069 l 510 1069 l 458 853 z "},"ġ":{"ha":882,"x_min":61,"x_max":765,"o":"m 765 728 l 765 76 q 721 -108 765 -29 q 594 -230 676 -187 q 403 -272 511 -272 q 104 -161 242 -272 l 149 -94 q 265 -168 204 -143 q 399 -193 326 -193 q 598 -120 524 -193 q 672 75 672 -47 l 672 193 q 561 74 633 117 q 394 31 489 31 q 222 76 297 31 q 103 201 146 121 q 61 382 61 281 q 103 563 61 483 q 222 686 146 642 q 396 731 299 731 q 561 688 490 731 q 672 568 632 646 l 672 728 l 765 728 m 411 106 q 546 141 486 106 q 639 239 606 176 q 672 379 672 301 q 639 521 672 458 q 546 619 606 583 q 411 654 486 654 q 276 619 336 654 q 183 521 217 583 q 149 379 149 458 q 183 238 149 300 q 276 141 217 176 q 411 106 335 106 m 421 1003 q 467 984 449 1003 q 485 938 485 965 q 466 890 485 910 q 421 871 447 871 q 374 890 393 871 q 356 938 356 910 q 374 984 356 965 q 421 1003 393 1003 z "},"ḡ":{"ha":882,"x_min":61,"x_max":765,"o":"m 765 728 l 765 76 q 721 -108 765 -29 q 594 -230 676 -187 q 403 -272 511 -272 q 104 -161 242 -272 l 149 -94 q 265 -168 204 -143 q 399 -193 326 -193 q 598 -120 524 -193 q 672 75 672 -47 l 672 193 q 561 74 633 117 q 394 31 489 31 q 222 76 297 31 q 103 201 146 121 q 61 382 61 281 q 103 563 61 483 q 222 686 146 642 q 396 731 299 731 q 561 688 490 731 q 672 568 632 646 l 672 728 l 765 728 m 411 106 q 546 141 486 106 q 639 239 606 176 q 672 379 672 301 q 639 521 672 458 q 546 619 606 583 q 411 654 486 654 q 276 619 336 654 q 183 521 217 583 q 149 379 149 458 q 183 238 149 300 q 276 141 217 176 q 411 106 335 106 m 228 968 l 611 968 l 611 904 l 228 904 l 228 968 z "},"h":{"ha":917,"x_min":143,"x_max":804,"o":"m 525 731 q 730 655 656 731 q 804 447 804 579 l 804 0 l 710 0 l 710 425 q 653 586 710 528 q 494 644 596 644 q 305 565 374 643 q 236 357 236 486 l 236 0 l 143 0 l 143 1031 l 236 1031 l 236 556 q 525 731 310 728 z "},"ħ":{"ha":917,"x_min":39,"x_max":804,"o":"m 525 717 q 730 641 656 717 q 804 433 804 565 l 804 0 l 710 0 l 710 411 q 653 572 710 514 q 494 631 596 631 q 305 552 374 631 q 236 343 236 474 l 236 0 l 143 0 l 143 839 l 39 839 l 39 900 l 143 900 l 143 1031 l 236 1031 l 236 900 l 551 900 l 551 839 l 236 839 l 236 542 q 525 717 310 717 z "},"ḫ":{"ha":917,"x_min":143,"x_max":804,"o":"m 525 731 q 730 655 656 731 q 804 447 804 579 l 804 0 l 710 0 l 710 425 q 653 586 710 528 q 494 644 596 644 q 305 565 374 643 q 236 357 236 486 l 236 0 l 143 0 l 143 1031 l 236 1031 l 236 556 q 525 731 310 728 m 371 -69 q 402 -144 374 -114 q 474 -174 431 -174 q 545 -144 517 -174 q 576 -69 574 -114 l 644 -69 q 594 -192 643 -144 q 474 -240 546 -240 q 354 -192 403 -240 q 303 -69 306 -144 l 371 -69 z "},"ĥ":{"ha":917,"x_min":-6,"x_max":804,"o":"m 525 731 q 730 655 656 731 q 804 447 804 579 l 804 0 l 710 0 l 710 425 q 653 586 710 528 q 494 644 596 644 q 305 565 374 643 q 236 357 236 486 l 236 0 l 143 0 l 143 1031 l 236 1031 l 236 556 q 525 731 310 728 m 382 1163 l 286 1163 l 189 1268 l 90 1163 l -6 1163 l 138 1336 l 240 1336 l 382 1163 z "},"ḥ":{"ha":917,"x_min":143,"x_max":804,"o":"m 525 731 q 730 655 656 731 q 804 447 804 579 l 804 0 l 710 0 l 710 425 q 653 586 710 528 q 494 644 596 644 q 305 565 374 643 q 236 357 236 486 l 236 0 l 143 0 l 143 1031 l 236 1031 l 236 556 q 525 731 310 728 m 475 -106 q 521 -124 503 -106 q 539 -171 539 -143 q 520 -218 539 -199 q 475 -237 501 -237 q 428 -218 447 -237 q 410 -171 410 -199 q 428 -124 410 -143 q 475 -106 447 -106 z "},"i":{"ha":364,"x_min":118,"x_max":247,"o":"m 136 728 l 229 728 l 229 0 l 136 0 l 136 728 m 183 1003 q 229 984 211 1003 q 247 938 247 965 q 228 890 247 910 q 183 871 210 871 q 137 890 156 871 q 118 938 118 910 q 137 984 118 965 q 183 1003 156 1003 z "},"ı":{"ha":364,"x_min":136,"x_max":229,"o":"m 136 728 l 229 728 l 229 0 l 136 0 l 136 728 z "},"í":{"ha":364,"x_min":122,"x_max":381,"o":"m 136 728 l 229 728 l 229 0 l 136 0 l 136 728 m 285 1038 l 381 996 l 206 857 l 122 867 l 285 1038 z "},"ĭ":{"ha":364,"x_min":11,"x_max":353,"o":"m 136 728 l 229 728 l 229 0 l 136 0 l 136 728 m 79 1024 q 110 949 82 979 q 182 919 139 919 q 253 949 225 919 q 285 1024 282 979 l 353 1024 q 303 901 351 949 q 182 853 254 853 q 63 901 111 853 q 11 1024 14 949 l 79 1024 z "},"î":{"ha":364,"x_min":-12,"x_max":375,"o":"m 136 728 l 229 728 l 229 0 l 136 0 l 136 728 m 375 860 l 279 860 l 182 965 l 83 860 l -12 860 l 131 1033 l 233 1033 l 375 860 z "},"ȉ":{"ha":364,"x_min":-67,"x_max":335,"o":"m 136 728 l 229 728 l 229 0 l 136 0 l 136 728 m 14 1043 l 138 867 l 63 857 l -67 1004 l 14 1043 m 211 1043 l 335 867 l 260 857 l 131 1004 l 211 1043 z "},"ï":{"ha":364,"x_min":29,"x_max":335,"o":"m 136 728 l 229 728 l 229 0 l 136 0 l 136 728 m 89 997 q 132 980 115 997 q 149 936 149 963 q 131 893 149 911 q 89 875 114 875 q 47 893 64 875 q 29 936 29 911 q 47 980 29 963 q 89 997 64 997 m 275 997 q 317 980 300 997 q 335 936 335 963 q 317 893 335 911 q 275 875 300 875 q 233 893 250 875 q 215 936 215 911 q 233 980 215 963 q 275 997 250 997 z "},"ḯ":{"ha":364,"x_min":10,"x_max":356,"o":"m 136 728 l 229 728 l 229 0 l 136 0 l 136 728 m 68 968 q 110 951 93 968 q 126 910 126 935 q 110 867 126 885 q 68 849 93 849 q 26 867 43 849 q 10 910 10 885 q 26 951 10 935 q 68 968 43 968 m 278 968 q 319 951 301 968 q 336 910 336 935 q 319 867 336 885 q 278 849 301 849 q 235 867 253 849 q 218 910 218 885 q 235 951 218 935 q 278 968 253 968 m 276 1158 l 356 1106 l 160 997 l 83 1021 l 276 1158 z "},"ị":{"ha":364,"x_min":118,"x_max":247,"o":"m 136 728 l 229 728 l 229 0 l 136 0 l 136 728 m 183 1003 q 229 984 211 1003 q 247 938 247 965 q 228 890 247 910 q 183 871 210 871 q 137 890 156 871 q 118 938 118 910 q 137 984 118 965 q 183 1003 156 1003 m 183 -106 q 229 -124 211 -106 q 247 -171 247 -143 q 228 -218 247 -199 q 183 -237 210 -237 q 137 -218 156 -237 q 118 -171 118 -199 q 137 -124 118 -143 q 183 -106 156 -106 z "},"ì":{"ha":364,"x_min":-10,"x_max":249,"o":"m 136 728 l 229 728 l 229 0 l 136 0 l 136 728 m 86 1038 l 249 867 l 165 857 l -10 996 l 86 1038 z "},"ỉ":{"ha":364,"x_min":61,"x_max":293,"o":"m 136 728 l 229 728 l 229 0 l 136 0 l 136 728 m 172 1067 q 260 1038 226 1067 q 293 961 293 1010 q 268 883 293 924 q 203 808 243 842 l 146 833 q 194 890 176 858 q 213 947 213 921 q 197 985 213 969 q 156 1000 181 1000 q 94 979 125 1000 l 61 1032 q 172 1067 113 1067 z "},"ȋ":{"ha":364,"x_min":31,"x_max":333,"o":"m 136 728 l 229 728 l 229 0 l 136 0 l 136 728 m 31 853 q 75 978 32 929 q 182 1026 118 1026 q 289 978 246 1026 q 333 853 332 929 l 265 853 q 240 928 263 899 q 182 958 217 958 q 124 928 147 958 q 99 853 101 899 l 31 853 z "},"ĳ":{"ha":724,"x_min":118,"x_max":607,"o":"m 136 728 l 229 728 l 229 0 l 136 0 l 136 728 m 183 1003 q 229 984 211 1003 q 247 938 247 965 q 228 890 247 910 q 183 871 210 871 q 137 890 156 871 q 118 938 118 910 q 137 984 118 965 q 183 1003 156 1003 m 307 -178 q 379 -193 344 -192 q 466 -152 436 -194 q 496 -28 496 -110 l 496 728 l 589 728 l 589 -39 q 540 -212 589 -151 q 399 -272 490 -272 q 285 -249 343 -272 l 307 -178 m 543 1003 q 589 984 571 1003 q 607 938 607 965 q 588 890 607 910 q 543 871 569 871 q 497 890 515 871 q 478 938 478 910 q 497 984 478 965 q 543 1003 515 1003 z "},"ī":{"ha":364,"x_min":17,"x_max":344,"o":"m 136 728 l 229 728 l 229 0 l 136 0 l 136 728 m 17 968 l 344 968 l 344 904 l 17 904 l 17 968 z "},"į":{"ha":364,"x_min":-3,"x_max":247,"o":"m 183 871 q 137 890 156 871 q 118 938 118 910 q 137 984 118 965 q 183 1003 156 1003 q 229 984 211 1003 q 247 938 247 965 q 228 890 247 910 q 183 871 210 871 m 136 728 l 229 728 l 229 0 q 119 -92 153 -54 q 85 -169 85 -131 q 99 -212 85 -199 q 139 -226 114 -226 q 203 -207 171 -226 l 228 -269 q 121 -299 178 -299 q 31 -269 64 -299 q -3 -185 -3 -239 q 136 13 -3 -81 l 136 728 z "},"ĩ":{"ha":364,"x_min":7,"x_max":360,"o":"m 136 728 l 229 728 l 229 0 l 136 0 l 136 728 m 360 1003 q 336 895 360 936 q 265 854 313 854 q 220 866 240 854 q 175 900 200 878 q 142 924 154 917 q 117 932 129 932 q 74 860 74 932 l 7 860 q 31 967 7 926 q 101 1008 54 1008 q 145 997 125 1008 q 190 965 165 986 q 224 941 211 949 q 249 933 236 933 q 282 952 271 933 q 293 1003 293 971 l 360 1003 z "},"j":{"ha":343,"x_min":-79,"x_max":243,"o":"m -57 -178 q 15 -193 -19 -192 q 102 -152 72 -194 q 132 -28 132 -110 l 132 728 l 225 728 l 225 -39 q 176 -212 225 -151 q 35 -272 126 -272 q -79 -249 -21 -272 l -57 -178 m 179 1003 q 225 984 207 1003 q 243 938 243 965 q 224 890 243 910 q 179 871 206 871 q 133 890 151 871 q 114 938 114 910 q 133 984 114 965 q 179 1003 151 1003 z "},"ȷ":{"ha":343,"x_min":-79,"x_max":225,"o":"m -57 -178 q 15 -193 -19 -192 q 102 -152 72 -194 q 132 -28 132 -110 l 132 728 l 225 728 l 225 -39 q 176 -212 225 -151 q 35 -272 126 -272 q -79 -249 -21 -272 l -57 -178 z "},"ĵ":{"ha":343,"x_min":-79,"x_max":371,"o":"m -57 -178 q 15 -193 -19 -192 q 102 -152 72 -194 q 132 -28 132 -110 l 132 728 l 225 728 l 225 -39 q 176 -212 225 -151 q 35 -272 126 -272 q -79 -249 -21 -272 l -57 -178 m 371 860 l 275 860 l 178 965 l 79 860 l -17 860 l 126 1033 l 229 1033 l 371 860 z "},"k":{"ha":788,"x_min":143,"x_max":771,"o":"m 658 0 l 400 379 l 236 211 l 236 0 l 143 0 l 143 1031 l 236 1031 l 236 331 l 628 728 l 739 728 l 465 446 l 771 0 l 658 0 z "},"ķ":{"ha":788,"x_min":143,"x_max":771,"o":"m 658 0 l 400 379 l 236 211 l 236 0 l 143 0 l 143 1031 l 236 1031 l 236 331 l 628 728 l 739 728 l 465 446 l 771 0 l 658 0 m 393 -85 l 482 -85 l 411 -301 l 342 -301 l 393 -85 z "},"ĸ":{"ha":782,"x_min":136,"x_max":765,"o":"m 654 0 l 396 381 l 229 210 l 229 0 l 136 0 l 136 728 l 229 728 l 229 329 l 622 728 l 733 728 l 460 446 l 765 0 l 654 0 z "},"l":{"ha":394,"x_min":124,"x_max":386,"o":"m 217 174 q 288 82 217 82 q 365 114 325 82 l 386 42 q 267 -4 322 -4 q 163 40 201 -4 q 124 164 124 83 l 124 1031 l 217 1031 l 217 174 z "},"ĺ":{"ha":394,"x_min":111,"x_max":386,"o":"m 217 174 q 288 82 217 82 q 365 114 325 82 l 386 42 q 267 -4 322 -4 q 163 40 201 -4 q 124 164 124 83 l 124 1031 l 217 1031 l 217 174 m 274 1340 l 369 1299 l 194 1160 l 111 1169 l 274 1340 z "},"ľ":{"ha":432,"x_min":125,"x_max":428,"o":"m 218 174 q 289 82 218 82 q 367 114 326 82 l 388 42 q 268 -4 324 -4 q 164 40 203 -4 q 125 164 125 83 l 125 1031 l 218 1031 l 218 174 m 339 1031 l 428 1031 l 406 767 l 339 767 l 339 1031 z "},"ļ":{"ha":394,"x_min":124,"x_max":386,"o":"m 217 174 q 288 82 217 82 q 365 114 325 82 l 386 42 q 267 -4 322 -4 q 163 40 201 -4 q 124 164 124 83 l 124 1031 l 217 1031 l 217 174 m 215 -85 l 304 -85 l 233 -301 l 164 -301 l 215 -85 z "},"ŀ":{"ha":394,"x_min":124,"x_max":447,"o":"m 217 174 q 288 82 217 82 q 365 114 325 82 l 386 42 q 267 -4 322 -4 q 163 40 201 -4 q 124 164 124 83 l 124 1031 l 217 1031 l 217 174 m 383 618 q 429 599 411 618 q 447 553 447 581 q 428 506 447 525 q 383 486 410 486 q 337 506 356 486 q 318 553 318 525 q 337 599 318 581 q 383 618 356 618 z "},"ḷ":{"ha":394,"x_min":124,"x_max":386,"o":"m 217 174 q 288 82 217 82 q 365 114 325 82 l 386 42 q 267 -4 322 -4 q 163 40 201 -4 q 124 164 124 83 l 124 1031 l 217 1031 l 217 174 m 260 -106 q 306 -124 288 -106 q 324 -171 324 -143 q 305 -218 324 -199 q 260 -237 286 -237 q 213 -218 232 -237 q 194 -171 194 -199 q 213 -124 194 -143 q 260 -106 232 -106 z "},"ǉ":{"ha":738,"x_min":124,"x_max":638,"o":"m 217 174 q 288 82 217 82 q 365 114 325 82 l 386 42 q 267 -4 322 -4 q 163 40 201 -4 q 124 164 124 83 l 124 1031 l 217 1031 l 217 174 m 338 -178 q 410 -193 375 -192 q 497 -152 467 -194 q 526 -28 526 -110 l 526 728 l 619 728 l 619 -39 q 570 -212 619 -151 q 429 -272 521 -272 q 315 -249 374 -272 l 338 -178 m 574 1003 q 619 984 601 1003 q 638 938 638 965 q 619 890 638 910 q 574 871 600 871 q 527 890 546 871 q 508 938 508 910 q 527 984 508 965 q 574 1003 546 1003 z "},"ḻ":{"ha":394,"x_min":67,"x_max":450,"o":"m 217 174 q 288 82 217 82 q 365 114 325 82 l 386 42 q 267 -4 322 -4 q 163 40 201 -4 q 124 164 124 83 l 124 1031 l 217 1031 l 217 174 m 67 -119 l 450 -119 l 450 -183 l 67 -183 l 67 -119 z "},"ł":{"ha":501,"x_min":57,"x_max":471,"o":"m 296 510 l 296 174 q 367 82 296 82 q 444 114 404 82 l 465 42 q 346 -4 401 -4 q 242 40 281 -4 q 203 164 203 83 l 203 460 l 57 381 l 57 451 l 203 531 l 203 1031 l 296 1031 l 296 581 l 471 675 l 471 604 l 296 510 z "},"m":{"ha":1451,"x_min":136,"x_max":1339,"o":"m 1065 731 q 1267 656 1194 731 q 1339 447 1339 581 l 1339 0 l 1244 0 l 1244 425 q 1188 587 1244 529 q 1033 644 1132 644 q 851 564 917 642 q 785 358 785 486 l 785 0 l 690 0 l 690 425 q 634 587 690 529 q 479 644 578 644 q 296 564 363 642 q 229 358 229 486 l 229 0 l 136 0 l 136 728 l 229 728 l 229 557 q 337 686 265 643 q 511 731 408 729 q 684 679 615 731 q 775 535 753 628 q 883 681 808 632 q 1065 731 957 729 z "},"ṃ":{"ha":1451,"x_min":136,"x_max":1339,"o":"m 1065 731 q 1267 656 1194 731 q 1339 447 1339 581 l 1339 0 l 1244 0 l 1244 425 q 1188 587 1244 529 q 1033 644 1132 644 q 851 564 917 642 q 785 358 785 486 l 785 0 l 690 0 l 690 425 q 634 587 690 529 q 479 644 578 644 q 296 564 363 642 q 229 358 229 486 l 229 0 l 136 0 l 136 728 l 229 728 l 229 557 q 337 686 265 643 q 511 731 408 729 q 684 679 615 731 q 775 535 753 628 q 883 681 808 632 q 1065 731 957 729 m 739 -106 q 785 -124 767 -106 q 803 -171 803 -143 q 784 -218 803 -199 q 739 -237 765 -237 q 692 -218 711 -237 q 674 -171 674 -199 q 692 -124 674 -143 q 739 -106 711 -106 z "},"n":{"ha":908,"x_min":136,"x_max":796,"o":"m 517 731 q 722 655 647 731 q 796 447 796 579 l 796 0 l 701 0 l 701 425 q 644 586 701 528 q 486 644 588 644 q 306 575 374 643 q 229 392 239 507 l 229 0 l 136 0 l 136 728 l 229 728 l 229 558 q 340 686 267 643 q 517 731 413 729 z "},"ń":{"ha":908,"x_min":136,"x_max":796,"o":"m 517 731 q 722 655 647 731 q 796 447 796 579 l 796 0 l 701 0 l 701 425 q 644 586 701 528 q 486 644 588 644 q 306 575 374 643 q 229 392 239 507 l 229 0 l 136 0 l 136 728 l 229 728 l 229 558 q 340 686 267 643 q 517 731 413 729 m 581 1038 l 676 996 l 501 857 l 418 867 l 581 1038 z "},"ŉ":{"ha":1018,"x_min":46,"x_max":906,"o":"m 49 972 l 124 972 l 108 611 l 46 611 l 49 972 m 626 731 q 831 655 757 731 q 906 447 906 579 l 906 0 l 811 0 l 811 425 q 754 586 811 528 q 596 644 697 644 q 416 575 483 643 q 339 392 349 507 l 339 0 l 246 0 l 246 728 l 339 728 l 339 558 q 449 686 376 643 q 626 731 522 729 z "},"ň":{"ha":908,"x_min":136,"x_max":796,"o":"m 517 731 q 722 655 647 731 q 796 447 796 579 l 796 0 l 701 0 l 701 425 q 644 586 701 528 q 486 644 588 644 q 306 575 374 643 q 229 392 239 507 l 229 0 l 136 0 l 136 728 l 229 728 l 229 558 q 340 686 267 643 q 517 731 413 729 m 576 1033 l 672 1033 l 529 860 l 426 860 l 285 1033 l 381 1033 l 478 928 l 576 1033 z "},"ņ":{"ha":908,"x_min":136,"x_max":796,"o":"m 517 731 q 722 655 647 731 q 796 447 796 579 l 796 0 l 701 0 l 701 425 q 644 586 701 528 q 486 644 588 644 q 306 575 374 643 q 229 392 239 507 l 229 0 l 136 0 l 136 728 l 229 728 l 229 558 q 340 686 267 643 q 517 731 413 729 m 417 -85 l 506 -85 l 435 -301 l 365 -301 l 417 -85 z "},"ṅ":{"ha":908,"x_min":136,"x_max":796,"o":"m 517 731 q 722 655 647 731 q 796 447 796 579 l 796 0 l 701 0 l 701 425 q 644 586 701 528 q 486 644 588 644 q 306 575 374 643 q 229 392 239 507 l 229 0 l 136 0 l 136 728 l 229 728 l 229 558 q 340 686 267 643 q 517 731 413 729 m 479 1003 q 525 984 507 1003 q 543 938 543 965 q 524 890 543 910 q 479 871 506 871 q 433 890 451 871 q 414 938 414 910 q 433 984 414 965 q 479 1003 451 1003 z "},"ṇ":{"ha":908,"x_min":136,"x_max":796,"o":"m 517 731 q 722 655 647 731 q 796 447 796 579 l 796 0 l 701 0 l 701 425 q 644 586 701 528 q 486 644 588 644 q 306 575 374 643 q 229 392 239 507 l 229 0 l 136 0 l 136 728 l 229 728 l 229 558 q 340 686 267 643 q 517 731 413 729 m 461 -106 q 507 -124 489 -106 q 525 -171 525 -143 q 506 -218 525 -199 q 461 -237 488 -237 q 415 -218 433 -237 q 396 -171 396 -199 q 415 -124 396 -143 q 461 -106 433 -106 z "},"ŋ":{"ha":908,"x_min":136,"x_max":796,"o":"m 517 731 q 722 655 647 731 q 796 447 796 579 l 796 -32 q 740 -210 796 -149 q 597 -272 685 -272 q 447 -222 515 -272 l 482 -150 q 537 -178 507 -168 q 594 -189 567 -189 q 674 -152 646 -189 q 701 -42 701 -115 l 701 425 q 644 586 701 528 q 486 644 588 644 q 306 575 374 643 q 229 392 239 507 l 229 0 l 136 0 l 136 728 l 229 728 l 229 558 q 340 686 267 643 q 517 731 413 729 z "},"ǌ":{"ha":1251,"x_min":136,"x_max":1151,"o":"m 517 731 q 722 655 647 731 q 796 447 796 579 l 796 0 l 701 0 l 701 425 q 644 586 701 528 q 486 644 588 644 q 306 575 374 643 q 229 392 239 507 l 229 0 l 136 0 l 136 728 l 229 728 l 229 558 q 340 686 267 643 q 517 731 413 729 m 851 -178 q 924 -193 889 -192 q 1010 -152 981 -194 q 1040 -28 1040 -110 l 1040 728 l 1133 728 l 1133 -39 q 1084 -212 1133 -151 q 943 -272 1035 -272 q 829 -249 888 -272 l 851 -178 m 1088 1003 q 1133 984 1115 1003 q 1151 938 1151 965 q 1133 890 1151 910 q 1088 871 1114 871 q 1041 890 1060 871 q 1022 938 1022 910 q 1041 984 1022 965 q 1088 1003 1060 1003 z "},"ṉ":{"ha":908,"x_min":136,"x_max":796,"o":"m 517 731 q 722 655 647 731 q 796 447 796 579 l 796 0 l 701 0 l 701 425 q 644 586 701 528 q 486 644 588 644 q 306 575 374 643 q 229 392 239 507 l 229 0 l 136 0 l 136 728 l 229 728 l 229 558 q 340 686 267 643 q 517 731 413 729 m 268 -119 l 651 -119 l 651 -183 l 268 -183 l 268 -119 z "},"ñ":{"ha":908,"x_min":136,"x_max":796,"o":"m 517 731 q 722 655 647 731 q 796 447 796 579 l 796 0 l 701 0 l 701 425 q 644 586 701 528 q 486 644 588 644 q 306 575 374 643 q 229 392 239 507 l 229 0 l 136 0 l 136 728 l 229 728 l 229 558 q 340 686 267 643 q 517 731 413 729 m 682 1004 q 655 897 682 939 q 574 856 628 856 q 522 867 544 856 q 468 900 499 879 q 426 927 440 919 q 394 935 411 935 q 355 915 368 935 q 342 861 342 896 l 274 861 q 301 968 274 926 q 382 1010 328 1010 q 435 998 411 1010 q 488 964 458 986 q 530 937 515 944 q 561 929 544 929 q 614 1004 614 929 l 682 1004 z "},"o":{"ha":856,"x_min":61,"x_max":794,"o":"m 428 731 q 617 684 533 731 q 747 554 700 638 q 794 365 794 471 q 747 174 794 258 q 617 44 700 90 q 428 -3 533 -3 q 239 44 322 -3 q 108 174 156 90 q 61 365 61 258 q 108 554 61 471 q 239 684 156 638 q 428 731 322 731 m 428 650 q 286 614 349 650 q 189 513 224 578 q 154 364 154 447 q 189 214 154 279 q 286 113 224 149 q 428 76 349 76 q 569 113 507 76 q 667 214 632 149 q 701 364 701 279 q 667 513 701 447 q 569 614 632 578 q 428 650 507 650 z "},"ó":{"ha":856,"x_min":61,"x_max":794,"o":"m 428 731 q 617 684 533 731 q 747 554 700 638 q 794 365 794 471 q 747 174 794 258 q 617 44 700 90 q 428 -3 533 -3 q 239 44 322 -3 q 108 174 156 90 q 61 365 61 258 q 108 554 61 471 q 239 684 156 638 q 428 731 322 731 m 428 650 q 286 614 349 650 q 189 513 224 578 q 154 364 154 447 q 189 214 154 279 q 286 113 224 149 q 428 76 349 76 q 569 113 507 76 q 667 214 632 149 q 701 364 701 279 q 667 513 701 447 q 569 614 632 578 q 428 650 507 650 m 531 1038 l 626 996 l 451 857 l 368 867 l 531 1038 z "},"ŏ":{"ha":856,"x_min":61,"x_max":794,"o":"m 428 731 q 617 684 533 731 q 747 554 700 638 q 794 365 794 471 q 747 174 794 258 q 617 44 700 90 q 428 -3 533 -3 q 239 44 322 -3 q 108 174 156 90 q 61 365 61 258 q 108 554 61 471 q 239 684 156 638 q 428 731 322 731 m 428 650 q 286 614 349 650 q 189 513 224 578 q 154 364 154 447 q 189 214 154 279 q 286 113 224 149 q 428 76 349 76 q 569 113 507 76 q 667 214 632 149 q 701 364 701 279 q 667 513 701 447 q 569 614 632 578 q 428 650 507 650 m 325 1024 q 356 949 328 979 q 428 919 385 919 q 499 949 471 919 q 531 1024 528 979 l 599 1024 q 549 901 597 949 q 428 853 500 853 q 308 901 357 853 q 257 1024 260 949 l 325 1024 z "},"ô":{"ha":856,"x_min":61,"x_max":794,"o":"m 428 731 q 617 684 533 731 q 747 554 700 638 q 794 365 794 471 q 747 174 794 258 q 617 44 700 90 q 428 -3 533 -3 q 239 44 322 -3 q 108 174 156 90 q 61 365 61 258 q 108 554 61 471 q 239 684 156 638 q 428 731 322 731 m 428 650 q 286 614 349 650 q 189 513 224 578 q 154 364 154 447 q 189 214 154 279 q 286 113 224 149 q 428 76 349 76 q 569 113 507 76 q 667 214 632 149 q 701 364 701 279 q 667 513 701 447 q 569 614 632 578 q 428 650 507 650 m 622 860 l 526 860 l 429 965 l 331 860 l 235 860 l 378 1033 l 481 1033 l 622 860 z "},"ố":{"ha":856,"x_min":61,"x_max":794,"o":"m 428 731 q 617 684 533 731 q 747 554 700 638 q 794 365 794 471 q 747 174 794 258 q 617 44 700 90 q 428 -3 533 -3 q 239 44 322 -3 q 108 174 156 90 q 61 365 61 258 q 108 554 61 471 q 239 684 156 638 q 428 731 322 731 m 428 650 q 286 614 349 650 q 189 513 224 578 q 154 364 154 447 q 189 214 154 279 q 286 113 224 149 q 428 76 349 76 q 569 113 507 76 q 667 214 632 149 q 701 364 701 279 q 667 513 701 447 q 569 614 632 578 q 428 650 507 650 m 643 851 l 540 851 l 429 935 l 317 851 l 214 851 l 363 976 l 494 976 l 643 851 m 532 1182 l 611 1129 l 415 1021 l 339 1044 l 532 1182 z "},"ộ":{"ha":856,"x_min":61,"x_max":794,"o":"m 428 731 q 617 684 533 731 q 747 554 700 638 q 794 365 794 471 q 747 174 794 258 q 617 44 700 90 q 428 -3 533 -3 q 239 44 322 -3 q 108 174 156 90 q 61 365 61 258 q 108 554 61 471 q 239 684 156 638 q 428 731 322 731 m 428 650 q 286 614 349 650 q 189 513 224 578 q 154 364 154 447 q 189 214 154 279 q 286 113 224 149 q 428 76 349 76 q 569 113 507 76 q 667 214 632 149 q 701 364 701 279 q 667 513 701 447 q 569 614 632 578 q 428 650 507 650 m 429 -106 q 475 -124 457 -106 q 493 -171 493 -143 q 474 -218 493 -199 q 429 -237 456 -237 q 383 -218 401 -237 q 364 -171 364 -199 q 383 -124 364 -143 q 429 -106 401 -106 m 622 860 l 526 860 l 429 965 l 331 860 l 235 860 l 378 1033 l 481 1033 l 622 860 z "},"ồ":{"ha":856,"x_min":61,"x_max":794,"o":"m 428 731 q 617 684 533 731 q 747 554 700 638 q 794 365 794 471 q 747 174 794 258 q 617 44 700 90 q 428 -3 533 -3 q 239 44 322 -3 q 108 174 156 90 q 61 365 61 258 q 108 554 61 471 q 239 684 156 638 q 428 731 322 731 m 428 650 q 286 614 349 650 q 189 513 224 578 q 154 364 154 447 q 189 214 154 279 q 286 113 224 149 q 428 76 349 76 q 569 113 507 76 q 667 214 632 149 q 701 364 701 279 q 667 513 701 447 q 569 614 632 578 q 428 650 507 650 m 643 851 l 540 851 l 429 935 l 317 851 l 214 851 l 363 976 l 494 976 l 643 851 m 322 1182 l 514 1044 l 439 1021 l 242 1129 l 322 1182 z "},"ổ":{"ha":856,"x_min":61,"x_max":794,"o":"m 428 731 q 617 684 533 731 q 747 554 700 638 q 794 365 794 471 q 747 174 794 258 q 617 44 700 90 q 428 -3 533 -3 q 239 44 322 -3 q 108 174 156 90 q 61 365 61 258 q 108 554 61 471 q 239 684 156 638 q 428 731 322 731 m 428 650 q 286 614 349 650 q 189 513 224 578 q 154 364 154 447 q 189 214 154 279 q 286 113 224 149 q 428 76 349 76 q 569 113 507 76 q 667 214 632 149 q 701 364 701 279 q 667 513 701 447 q 569 614 632 578 q 428 650 507 650 m 643 851 l 540 851 l 429 935 l 317 851 l 214 851 l 363 976 l 494 976 l 643 851 m 419 1229 q 497 1205 468 1229 q 525 1142 525 1181 q 502 1079 525 1111 q 439 1019 479 1047 l 386 1042 q 432 1084 415 1061 q 449 1126 449 1107 q 436 1156 449 1144 q 401 1167 424 1167 q 349 1151 374 1167 l 318 1197 q 419 1229 371 1229 z "},"ỗ":{"ha":856,"x_min":61,"x_max":794,"o":"m 428 731 q 617 684 533 731 q 747 554 700 638 q 794 365 794 471 q 747 174 794 258 q 617 44 700 90 q 428 -3 533 -3 q 239 44 322 -3 q 108 174 156 90 q 61 365 61 258 q 108 554 61 471 q 239 684 156 638 q 428 731 322 731 m 428 650 q 286 614 349 650 q 189 513 224 578 q 154 364 154 447 q 189 214 154 279 q 286 113 224 149 q 428 76 349 76 q 569 113 507 76 q 667 214 632 149 q 701 364 701 279 q 667 513 701 447 q 569 614 632 578 q 428 650 507 650 m 644 851 l 542 851 l 431 935 l 318 851 l 215 851 l 364 976 l 496 976 l 644 851 m 632 1160 q 605 1067 632 1103 q 525 1032 578 1032 q 472 1042 496 1032 q 417 1071 449 1051 q 376 1094 393 1086 q 342 1101 358 1101 q 300 1084 314 1101 q 286 1036 286 1067 l 228 1036 q 255 1130 228 1094 q 335 1165 282 1165 q 388 1156 364 1165 q 443 1126 411 1146 q 484 1103 467 1111 q 518 1096 501 1096 q 560 1113 546 1096 q 574 1160 574 1131 l 632 1160 z "},"ȍ":{"ha":856,"x_min":61,"x_max":794,"o":"m 428 731 q 617 684 533 731 q 747 554 700 638 q 794 365 794 471 q 747 174 794 258 q 617 44 700 90 q 428 -3 533 -3 q 239 44 322 -3 q 108 174 156 90 q 61 365 61 258 q 108 554 61 471 q 239 684 156 638 q 428 731 322 731 m 428 650 q 286 614 349 650 q 189 513 224 578 q 154 364 154 447 q 189 214 154 279 q 286 113 224 149 q 428 76 349 76 q 569 113 507 76 q 667 214 632 149 q 701 364 701 279 q 667 513 701 447 q 569 614 632 578 q 428 650 507 650 m 261 1043 l 385 867 l 310 857 l 181 1004 l 261 1043 m 458 1043 l 582 867 l 507 857 l 378 1004 l 458 1043 z "},"ö":{"ha":856,"x_min":61,"x_max":794,"o":"m 428 731 q 617 684 533 731 q 747 554 700 638 q 794 365 794 471 q 747 174 794 258 q 617 44 700 90 q 428 -3 533 -3 q 239 44 322 -3 q 108 174 156 90 q 61 365 61 258 q 108 554 61 471 q 239 684 156 638 q 428 731 322 731 m 428 650 q 286 614 349 650 q 189 513 224 578 q 154 364 154 447 q 189 214 154 279 q 286 113 224 149 q 428 76 349 76 q 569 113 507 76 q 667 214 632 149 q 701 364 701 279 q 667 513 701 447 q 569 614 632 578 q 428 650 507 650 m 315 997 q 358 980 340 997 q 375 936 375 963 q 358 893 375 911 q 315 875 340 875 q 273 893 290 875 q 256 936 256 911 q 273 980 256 963 q 315 997 290 997 m 543 997 q 585 980 568 997 q 603 936 603 963 q 585 893 603 911 q 543 875 568 875 q 501 893 518 875 q 483 936 483 911 q 501 980 483 963 q 543 997 518 997 z "},"ȫ":{"ha":856,"x_min":61,"x_max":794,"o":"m 428 731 q 617 684 533 731 q 747 554 700 638 q 794 365 794 471 q 747 174 794 258 q 617 44 700 90 q 428 -3 533 -3 q 239 44 322 -3 q 108 174 156 90 q 61 365 61 258 q 108 554 61 471 q 239 684 156 638 q 428 731 322 731 m 428 650 q 286 614 349 650 q 189 513 224 578 q 154 364 154 447 q 189 214 154 279 q 286 113 224 149 q 428 76 349 76 q 569 113 507 76 q 667 214 632 149 q 701 364 701 279 q 667 513 701 447 q 569 614 632 578 q 428 650 507 650 m 325 968 q 367 951 350 968 q 383 910 383 935 q 367 867 383 885 q 325 849 350 849 q 283 867 300 849 q 267 910 267 885 q 283 951 267 935 q 325 968 300 968 m 535 968 q 576 951 558 968 q 593 910 593 935 q 576 867 593 885 q 535 849 558 849 q 492 867 510 849 q 475 910 475 885 q 492 951 475 935 q 535 968 510 968 m 267 1089 l 594 1089 l 594 1025 l 267 1025 l 267 1089 z "},"ȱ":{"ha":856,"x_min":61,"x_max":794,"o":"m 428 731 q 617 684 533 731 q 747 554 700 638 q 794 365 794 471 q 747 174 794 258 q 617 44 700 90 q 428 -3 533 -3 q 239 44 322 -3 q 108 174 156 90 q 61 365 61 258 q 108 554 61 471 q 239 684 156 638 q 428 731 322 731 m 428 650 q 286 614 349 650 q 189 513 224 578 q 154 364 154 447 q 189 214 154 279 q 286 113 224 149 q 428 76 349 76 q 569 113 507 76 q 667 214 632 149 q 701 364 701 279 q 667 513 701 447 q 569 614 632 578 q 428 650 507 650 m 426 975 q 471 956 453 975 q 489 911 489 938 q 471 867 489 885 q 426 849 453 849 q 383 867 401 849 q 365 911 365 885 q 383 956 365 938 q 426 975 401 975 m 264 1089 l 592 1089 l 592 1025 l 264 1025 l 264 1089 z "},"ọ":{"ha":856,"x_min":61,"x_max":794,"o":"m 428 731 q 617 684 533 731 q 747 554 700 638 q 794 365 794 471 q 747 174 794 258 q 617 44 700 90 q 428 -3 533 -3 q 239 44 322 -3 q 108 174 156 90 q 61 365 61 258 q 108 554 61 471 q 239 684 156 638 q 428 731 322 731 m 428 650 q 286 614 349 650 q 189 513 224 578 q 154 364 154 447 q 189 214 154 279 q 286 113 224 149 q 428 76 349 76 q 569 113 507 76 q 667 214 632 149 q 701 364 701 279 q 667 513 701 447 q 569 614 632 578 q 428 650 507 650 m 429 -106 q 475 -124 457 -106 q 493 -171 493 -143 q 474 -218 493 -199 q 429 -237 456 -237 q 383 -218 401 -237 q 364 -171 364 -199 q 383 -124 364 -143 q 429 -106 401 -106 z "},"ò":{"ha":856,"x_min":61,"x_max":794,"o":"m 428 731 q 617 684 533 731 q 747 554 700 638 q 794 365 794 471 q 747 174 794 258 q 617 44 700 90 q 428 -3 533 -3 q 239 44 322 -3 q 108 174 156 90 q 61 365 61 258 q 108 554 61 471 q 239 684 156 638 q 428 731 322 731 m 428 650 q 286 614 349 650 q 189 513 224 578 q 154 364 154 447 q 189 214 154 279 q 286 113 224 149 q 428 76 349 76 q 569 113 507 76 q 667 214 632 149 q 701 364 701 279 q 667 513 701 447 q 569 614 632 578 q 428 650 507 650 m 332 1038 l 494 867 l 411 857 l 236 996 l 332 1038 z "},"ỏ":{"ha":856,"x_min":61,"x_max":794,"o":"m 428 731 q 617 684 533 731 q 747 554 700 638 q 794 365 794 471 q 747 174 794 258 q 617 44 700 90 q 428 -3 533 -3 q 239 44 322 -3 q 108 174 156 90 q 61 365 61 258 q 108 554 61 471 q 239 684 156 638 q 428 731 322 731 m 428 650 q 286 614 349 650 q 189 513 224 578 q 154 364 154 447 q 189 214 154 279 q 286 113 224 149 q 428 76 349 76 q 569 113 507 76 q 667 214 632 149 q 701 364 701 279 q 667 513 701 447 q 569 614 632 578 q 428 650 507 650 m 418 1067 q 506 1038 472 1067 q 539 961 539 1010 q 514 883 539 924 q 449 808 489 842 l 392 833 q 440 890 422 858 q 458 947 458 921 q 442 985 458 969 q 401 1000 426 1000 q 340 979 371 1000 l 307 1032 q 418 1067 358 1067 z "},"ơ":{"ha":893,"x_min":61,"x_max":856,"o":"m 822 904 q 856 790 856 851 q 814 673 856 722 q 704 615 772 624 q 771 503 747 567 q 794 365 794 439 q 747 174 794 258 q 617 44 700 90 q 428 -3 533 -3 q 239 44 322 -3 q 108 174 156 90 q 61 365 61 258 q 108 554 61 471 q 239 684 156 638 q 428 731 322 731 q 611 688 529 731 q 674 676 642 676 q 746 708 719 676 q 772 785 772 739 q 743 875 772 833 l 822 904 m 428 76 q 569 113 507 76 q 667 214 632 149 q 701 364 701 279 q 667 513 701 447 q 569 614 632 578 q 428 650 507 650 q 286 614 349 650 q 189 513 224 578 q 154 364 154 447 q 189 214 154 279 q 286 113 224 149 q 428 76 349 76 z "},"ớ":{"ha":893,"x_min":61,"x_max":856,"o":"m 822 904 q 856 790 856 851 q 814 673 856 722 q 704 615 772 624 q 771 503 747 567 q 794 365 794 439 q 747 174 794 258 q 617 44 700 90 q 428 -3 533 -3 q 239 44 322 -3 q 108 174 156 90 q 61 365 61 258 q 108 554 61 471 q 239 684 156 638 q 428 731 322 731 q 611 688 529 731 q 674 676 642 676 q 746 708 719 676 q 772 785 772 739 q 743 875 772 833 l 822 904 m 428 76 q 569 113 507 76 q 667 214 632 149 q 701 364 701 279 q 667 513 701 447 q 569 614 632 578 q 428 650 507 650 q 286 614 349 650 q 189 513 224 578 q 154 364 154 447 q 189 214 154 279 q 286 113 224 149 q 428 76 349 76 m 531 1038 l 626 996 l 451 857 l 368 867 l 531 1038 z "},"ợ":{"ha":894,"x_min":61,"x_max":856,"o":"m 822 904 q 856 790 856 851 q 814 673 856 722 q 704 615 772 624 q 771 503 747 567 q 794 365 794 439 q 747 174 794 258 q 617 44 700 90 q 428 -3 533 -3 q 239 44 322 -3 q 108 174 156 90 q 61 365 61 258 q 108 554 61 471 q 239 684 156 638 q 428 731 322 731 q 611 688 529 731 q 674 676 642 676 q 746 708 719 676 q 772 785 772 739 q 743 875 772 833 l 822 904 m 428 76 q 569 113 507 76 q 667 214 632 149 q 701 364 701 279 q 667 513 701 447 q 569 614 632 578 q 428 650 507 650 q 286 614 349 650 q 189 513 224 578 q 154 364 154 447 q 189 214 154 279 q 286 113 224 149 q 428 76 349 76 m 429 -106 q 475 -124 457 -106 q 493 -171 493 -143 q 474 -218 493 -199 q 429 -237 456 -237 q 383 -218 401 -237 q 364 -171 364 -199 q 383 -124 364 -143 q 429 -106 401 -106 z "},"ờ":{"ha":893,"x_min":61,"x_max":856,"o":"m 822 904 q 856 790 856 851 q 814 673 856 722 q 704 615 772 624 q 771 503 747 567 q 794 365 794 439 q 747 174 794 258 q 617 44 700 90 q 428 -3 533 -3 q 239 44 322 -3 q 108 174 156 90 q 61 365 61 258 q 108 554 61 471 q 239 684 156 638 q 428 731 322 731 q 611 688 529 731 q 674 676 642 676 q 746 708 719 676 q 772 785 772 739 q 743 875 772 833 l 822 904 m 428 76 q 569 113 507 76 q 667 214 632 149 q 701 364 701 279 q 667 513 701 447 q 569 614 632 578 q 428 650 507 650 q 286 614 349 650 q 189 513 224 578 q 154 364 154 447 q 189 214 154 279 q 286 113 224 149 q 428 76 349 76 m 332 1038 l 494 867 l 411 857 l 236 996 l 332 1038 z "}}}
